<?xml version="1.0" encoding="UTF-8" standalone="no"?>
<svg xmlns="http://www.w3.org/2000/svg" version="1.1" viewBox="0 0 100 70" width="100mm" height="70mm">
<title>IGBT Low-Side Switching PCB - Etch Guide v2</title>
<desc>Black=no copper. White=copper. Drill=black dots. Units mm.</desc>
<rect id="background" x="0" y="0" width="100" height="70" fill="black"/>
<g id="copper" fill="white" stroke="none" shape-rendering="crispEdges">
<g id="net-INPUT_VPLUS">
<polygon points="2.750,5.700 11.250,5.700 11.250,9.300 2.750,9.300"/>
</g>
<g id="net-LED_ANODE">
<polygon points="15.570,6.710 20.170,6.710 20.170,10.210 15.570,10.210"/>
<polygon points="17.530,8.530 19.930,8.530 19.930,10.930 17.530,10.930"/>
</g>
<g id="net-INPUT_GND">
<polygon points="2.870,11.050 20.870,11.050 20.870,14.050 2.870,14.050"/>
</g>
<g id="net-VCC">
<polygon points="25.470,5.490 32.870,5.490 32.870,8.890 25.470,8.890"/>
<polygon points="33.750,9.750 36.250,9.750 36.250,12.250 33.750,12.250"/>
<polygon points="28.000,8.600 36.300,8.600 36.300,12.300 33.800,12.300 33.800,8.600"/>
</g>
<g id="net-GATE_DRIVE">
<polygon points="24.600,9.200 28.100,9.200 28.100,12.800 24.600,12.800"/>
<polygon points="28.100,9.400 39.200,13.400 39.200,18.600 36.800,18.600 36.800,14.200 28.100,11.600"/>
<polygon points="36.200,16.500 39.800,16.500 39.800,25.500 36.200,25.500"/>
<polygon points="33.750,20.250 36.250,20.250 36.250,22.750 33.750,22.750"/>
<polygon points="33.750,20.750 39.800,20.750 39.800,22.250 33.750,22.250"/>
<polygon points="35.500,24.500 40.500,24.500 40.500,38.500 35.500,38.500"/>
<polygon points="34.250,33.250 36.750,33.250 36.750,35.750 34.250,35.750"/>
<polygon points="34.250,33.750 40.500,33.750 40.500,35.250 34.250,35.250"/>
<polygon points="35.500,36.500 40.500,36.500 40.500,39.500 35.500,39.500"/>
</g>
<g id="net-KELVIN_RETURN">
<polygon points="24.600,13.010 28.100,13.010 28.100,16.610 24.600,16.610"/>
<polygon points="28.100,13.200 33.500,13.200 33.500,18.400 28.100,18.400"/>
<polygon points="30.500,15.500 33.500,15.500 33.500,18.500 30.500,18.500"/>
<polygon points="43.250,13.750 45.750,13.750 45.750,16.250 43.250,16.250"/>
<polygon points="33.500,16.200 46.000,16.200 46.000,13.800 33.500,13.800"/>
<polygon points="40.950,16.000 45.950,16.000 45.950,40.000 40.950,40.000"/>
<polygon points="39.250,33.250 41.750,33.250 41.750,35.750 39.250,35.750"/>
<polygon points="39.250,33.750 45.950,33.750 45.950,35.250 39.250,35.250"/>
</g>
<g id="net-POWER_GROUND">
<polygon points="4.000,40.000 89.000,40.000 89.000,67.000 4.000,67.000"/>
<polygon points="46.600,24.000 51.200,24.000 51.200,39.000 46.600,39.000"/>
<polygon points="46.400,21.750 51.400,21.750 51.400,26.250 46.400,26.250"/>
<polygon points="82.500,37.000 85.500,37.000 85.500,43.000 82.500,43.000"/>
<polygon points="87.580,37.000 90.580,37.000 90.580,43.000 87.580,43.000"/>
</g>
<g id="net-COLLECTOR">
<polygon points="52.100,36.500 56.600,36.500 56.600,39.500 52.100,39.500"/>
<polygon points="52.350,30.000 56.350,30.000 56.350,37.000 52.350,37.000"/>
<polygon points="53.700,36.500 67.700,36.500 67.700,39.500 53.700,39.500"/>
<polygon points="65.000,36.500 69.000,36.500 69.000,39.500 65.000,39.500"/>
<polygon points="58.750,32.250 61.250,32.250 61.250,34.750 58.750,34.750"/>
<polygon points="58.750,32.250 61.250,32.250 61.250,36.500 52.350,36.500 52.350,35.000 58.750,35.000"/>
</g>
<g id="net-SNUBBER_INTERMEDIATE">
<polygon points="58.650,28.500 61.650,28.500 61.650,31.500 58.650,31.500"/>
<polygon points="62.600,22.500 65.600,22.500 65.600,25.500 62.600,25.500"/>
<polygon points="58.850,30.750 62.850,24.750 65.400,24.750 65.400,23.250 62.850,23.250 61.650,28.500 58.850,29.250"/>
</g>
<g id="net-FLYBACK_HIGH">
<polygon points="76.500,36.500 80.500,36.500 80.500,39.500 76.500,39.500"/>
<polygon points="76.500,35.000 80.500,35.000 80.500,38.000 76.500,38.000"/>
<polygon points="71.000,32.500 94.000,32.500 94.000,35.000 71.000,35.000"/>
<polygon points="73.750,32.500 76.250,32.500 76.250,35.000 73.750,35.000"/>
<polygon points="85.040,32.750 88.040,32.750 88.040,35.250 85.040,35.250"/>
<polygon points="92.000,35.000 97.000,35.000 97.000,65.000 92.000,65.000"/>
<polygon points="92.000,57.000 98.000,57.000 98.000,63.000 92.000,63.000"/>
</g>
</g>
<g id="drills" fill="black" stroke="none">
<circle cx="5.000" cy="7.500" r="0.750"/>
<circle cx="5.000" cy="12.580" r="0.750"/>
<circle cx="9.000" cy="7.500" r="0.500"/>
<circle cx="17.000" cy="7.500" r="0.500"/>
<circle cx="18.730" cy="7.190" r="0.450"/>
<circle cx="18.730" cy="9.730" r="0.450"/>
<circle cx="18.730" cy="12.270" r="0.450"/>
<circle cx="18.730" cy="14.810" r="0.450"/>
<circle cx="26.350" cy="14.810" r="0.450"/>
<circle cx="26.350" cy="12.270" r="0.450"/>
<circle cx="26.350" cy="9.730" r="0.450"/>
<circle cx="26.350" cy="7.190" r="0.450"/>
<circle cx="32.000" cy="7.190" r="0.750"/>
<circle cx="32.000" cy="17.000" r="0.750"/>
<circle cx="38.000" cy="17.000" r="0.500"/>
<circle cx="38.000" cy="25.000" r="0.500"/>
<circle cx="38.000" cy="31.500" r="0.600"/>
<circle cx="43.450" cy="31.500" r="0.600"/>
<circle cx="35.500" cy="34.500" r="0.500"/>
<circle cx="40.500" cy="34.500" r="0.500"/>
<circle cx="38.000" cy="38.000" r="0.800"/>
<circle cx="43.450" cy="38.000" r="0.800"/>
<circle cx="48.900" cy="38.000" r="0.800"/>
<circle cx="54.350" cy="38.000" r="0.800"/>
<circle cx="48.900" cy="24.000" r="0.750"/>
<circle cx="64.100" cy="24.000" r="0.750"/>
<circle cx="54.350" cy="30.000" r="0.500"/>
<circle cx="60.150" cy="30.000" r="0.500"/>
<circle cx="67.000" cy="38.000" r="0.600"/>
<circle cx="78.500" cy="38.000" r="0.600"/>
<circle cx="84.000" cy="38.000" r="0.700"/>
<circle cx="86.540" cy="34.000" r="0.700"/>
<circle cx="89.080" cy="38.000" r="0.700"/>
<circle cx="20.000" cy="60.000" r="1.600"/>
<circle cx="95.000" cy="60.000" r="1.600"/>
<circle cx="35.000" cy="11.000" r="0.450"/>
<circle cx="44.500" cy="15.000" r="0.450"/>
<circle cx="35.000" cy="21.500" r="0.450"/>
<circle cx="44.500" cy="21.500" r="0.450"/>
<circle cx="60.000" cy="33.500" r="0.450"/>
<circle cx="75.000" cy="33.750" r="0.450"/>
<circle cx="32.000" cy="50.000" r="0.450"/>
<circle cx="72.000" cy="55.000" r="0.450"/>
<circle cx="88.000" cy="48.000" r="0.450"/>
</g>
<g id="silk" fill="none" stroke="#666" stroke-width="0.15" opacity="0.55">
<rect x="2.000" y="5.790" width="6.000" height="8.500"/>
<rect x="9.500" y="6.200" width="7.000" height="2.600"/>
<rect x="17.750" y="6.250" width="9.500" height="9.500"/>
<rect x="36.700" y="17.250" width="2.600" height="7.500"/>
<rect x="37.975" y="30.200" width="5.450" height="2.600"/>
<rect x="35.500" y="33.200" width="5.000" height="2.600"/>
<rect x="38.380" y="44.500" width="15.600" height="21.000"/>
<rect x="47.400" y="21.200" width="18.200" height="5.600"/>
<rect x="54.350" y="28.700" width="5.800" height="2.600"/>
<rect x="65.250" y="36.700" width="15.000" height="2.600"/>
<rect x="81.540" y="42.250" width="10.000" height="15.500"/>
<rect x="16.000" y="62.000" width="8.000" height="5.000"/>
<rect x="91.000" y="62.000" width="8.000" height="5.000"/>
</g>
<g id="labels" fill="#bcd" font-family="sans-serif" opacity="0.85">
<text x="7.000" y="5.000" text-anchor="middle" font-size="1.1">INPUT_V+</text>
<text x="7.000" y="16.000" text-anchor="middle" font-size="1.1">INPUT_GND</text>
<text x="35.000" y="3.500" text-anchor="middle" font-size="1.1">VCC +15V</text>
<text x="32.000" y="19.500" text-anchor="middle" font-size="1.1">KELVIN_RTN</text>
<text x="46.000" y="26.500" text-anchor="middle" font-size="0.9">KELVIN</text>
<text x="31.000" y="28.000" text-anchor="middle" font-size="1.0">GATE_DRIVE</text>
<text x="50.000" y="45.000" text-anchor="middle" font-size="1.4">PGND  (Net 3)</text>
<text x="60.000" y="27.500" text-anchor="middle" font-size="0.9">COLLECTOR</text>
<text x="64.500" y="21.000" text-anchor="middle" font-size="0.9">SNUB_INT</text>
<text x="80.000" y="31.000" text-anchor="middle" font-size="1.0">FLYBACK_HIGH</text>
<text x="50.000" y="38.000" text-anchor="middle" font-size="0.7">IGBT G KE PE C</text>
<text x="87.000" y="34.000" text-anchor="middle" font-size="0.6">CAT (bent)</text>
</g>
<g id="reg" stroke="black" stroke-width="0.2" fill="none">
<line x1="1.0" y1="2.5" x2="4.0" y2="2.5"/>
<line x1="2.5" y1="1.0" x2="2.5" y2="4.0"/>
<line x1="96.0" y1="2.5" x2="99.0" y2="2.5"/>
<line x1="97.5" y1="1.0" x2="97.5" y2="4.0"/>
<line x1="1.0" y1="67.5" x2="4.0" y2="67.5"/>
<line x1="2.5" y1="66.0" x2="2.5" y2="69.0"/>
<line x1="96.0" y1="67.5" x2="99.0" y2="67.5"/>
<line x1="97.5" y1="66.0" x2="97.5" y2="69.0"/>
</g>
</svg>