%TF.GenerationSoftware,KiCad,Pcbnew,10.0.3*%
%TF.CreationDate,2026-05-16T17:39:07-05:00*%
%TF.ProjectId,igbt_pcb,69676274-5f70-4636-922e-6b696361645f,rev?*%
%TF.SameCoordinates,Original*%
%TF.FileFunction,Copper,L1,Top*%
%TF.FilePolarity,Positive*%
%FSLAX46Y46*%
G04 Gerber Fmt 4.6, Leading zero omitted, Abs format (unit mm)*
G04 Created by KiCad (PCBNEW 10.0.3) date 2026-05-16 17:39:07*
%MOMM*%
%LPD*%
G01*
G04 APERTURE LIST*
G04 Aperture macros list*
%AMRoundRect*
0 Rectangle with rounded corners*
0 $1 Rounding radius*
0 $2 $3 $4 $5 $6 $7 $8 $9 X,Y pos of 4 corners*
0 Add a 4 corners polygon primitive as box body*
4,1,4,$2,$3,$4,$5,$6,$7,$8,$9,$2,$3,0*
0 Add four circle primitives for the rounded corners*
1,1,$1+$1,$2,$3*
1,1,$1+$1,$4,$5*
1,1,$1+$1,$6,$7*
1,1,$1+$1,$8,$9*
0 Add four rect primitives between the rounded corners*
20,1,$1+$1,$2,$3,$4,$5,0*
20,1,$1+$1,$4,$5,$6,$7,0*
20,1,$1+$1,$6,$7,$8,$9,0*
20,1,$1+$1,$8,$9,$2,$3,0*%
G04 Aperture macros list end*
%TA.AperFunction,ComponentPad*%
%ADD10C,1.600000*%
%TD*%
%TA.AperFunction,ComponentPad*%
%ADD11R,2.500000X2.500000*%
%TD*%
%TA.AperFunction,ComponentPad*%
%ADD12C,2.400000*%
%TD*%
%TA.AperFunction,ComponentPad*%
%ADD13C,2.500000*%
%TD*%
%TA.AperFunction,ComponentPad*%
%ADD14R,4.500000X4.500000*%
%TD*%
%TA.AperFunction,ComponentPad*%
%ADD15O,1.905000X2.000000*%
%TD*%
%TA.AperFunction,ComponentPad*%
%ADD16R,1.905000X2.000000*%
%TD*%
%TA.AperFunction,SMDPad,CuDef*%
%ADD17C,1.500000*%
%TD*%
%TA.AperFunction,ComponentPad*%
%ADD18RoundRect,0.250000X0.550000X-0.550000X0.550000X0.550000X-0.550000X0.550000X-0.550000X-0.550000X0*%
%TD*%
%TA.AperFunction,ComponentPad*%
%ADD19C,1.900000*%
%TD*%
%TA.AperFunction,ComponentPad*%
%ADD20R,1.905000X4.500000*%
%TD*%
%TA.AperFunction,ComponentPad*%
%ADD21O,1.905000X4.500000*%
%TD*%
%TA.AperFunction,SMDPad,CuDef*%
%ADD22RoundRect,0.250000X-1.000000X-0.900000X1.000000X-0.900000X1.000000X0.900000X-1.000000X0.900000X0*%
%TD*%
%TA.AperFunction,ComponentPad*%
%ADD23RoundRect,0.250000X-0.550000X-0.550000X0.550000X-0.550000X0.550000X0.550000X-0.550000X0.550000X0*%
%TD*%
%TA.AperFunction,Conductor*%
%ADD24C,1.000000*%
%TD*%
%TA.AperFunction,Conductor*%
%ADD25C,2.000000*%
%TD*%
%TA.AperFunction,Conductor*%
%ADD26C,3.000000*%
%TD*%
%TA.AperFunction,Conductor*%
%ADD27C,0.500000*%
%TD*%
G04 APERTURE END LIST*
D10*
%TO.P,C2,2*%
%TO.N,KELVIN_RETURN*%
X32500000Y-2500000D03*
%TO.P,C2,1*%
%TO.N,VCC*%
X27500000Y-2500000D03*
%TD*%
D11*
%TO.P,J1,1*%
%TO.N,INPUT_VPLUS*%
X3000000Y-3920000D03*
%TO.P,J1,2*%
%TO.N,INPUT_GND*%
X3000000Y-9000000D03*
%TD*%
D12*
%TO.P,R4,2*%
%TO.N,SNUB_INTERMEDIATE*%
X69950000Y-29500000D03*
%TO.P,R4,1*%
%TO.N,COLLECTOR*%
X57250000Y-29500000D03*
%TD*%
D13*
%TO.P,C1,2*%
%TO.N,SNUB_INTERMEDIATE*%
X69700000Y-18500000D03*
%TO.P,C1,1*%
%TO.N,POWER_GROUND*%
X54500000Y-18500000D03*
%TD*%
D14*
%TO.P,,1*%
%TO.N,POWER_GROUND*%
X85500000Y-65500000D03*
%TD*%
D15*
%TO.P,D1,3*%
%TO.N,POWER_GROUND*%
X91080000Y-50000000D03*
%TO.P,D1,2*%
%TO.N,FLYBACK_HIGH*%
X88540000Y-50000000D03*
D16*
%TO.P,D1,1*%
%TO.N,POWER_GROUND*%
X86000000Y-50000000D03*
%TD*%
D14*
%TO.P,J5,1*%
%TO.N,FLYBACK_HIGH*%
X96500000Y-61000000D03*
%TD*%
D17*
%TO.P,TP3,1*%
%TO.N,GATE*%
X32000000Y-29000000D03*
%TD*%
%TO.P,TP5,1*%
%TO.N,COLLECTOR*%
X60000000Y-33000000D03*
%TD*%
%TO.P,TP9,1*%
%TO.N,POWER_GROUND*%
X85000000Y-55000000D03*
%TD*%
D18*
%TO.P,C3,1*%
%TO.N,VCC*%
X33500000Y-11500000D03*
D10*
%TO.P,C3,2*%
%TO.N,KELVIN_RETURN*%
X33500000Y-9000000D03*
%TD*%
D17*
%TO.P,TP1,1*%
%TO.N,VCC*%
X21500000Y-6500000D03*
%TD*%
%TO.P,TP8,1*%
%TO.N,POWER_GROUND*%
X60000000Y-50000000D03*
%TD*%
D11*
%TO.P,J2,1*%
%TO.N,VCC*%
X22000000Y-2500000D03*
%TD*%
D14*
%TO.P,J4,1*%
%TO.N,POWER_GROUND*%
X20000000Y-60000000D03*
%TD*%
D17*
%TO.P,TP4,1*%
%TO.N,KELVIN_RETURN*%
X47000000Y-25000000D03*
%TD*%
D12*
%TO.P,R5,1*%
%TO.N,COLLECTOR*%
X72750000Y-38000000D03*
%TO.P,R5,2*%
%TO.N,FLYBACK_HIGH*%
X87990000Y-38000000D03*
%TD*%
D17*
%TO.P,TP2,1*%
%TO.N,KELVIN_RETURN*%
X47000000Y-18000000D03*
%TD*%
%TO.P,TP7,1*%
%TO.N,POWER_GROUND*%
X28000000Y-50000000D03*
%TD*%
D19*
%TO.P,R2,1*%
%TO.N,GATE_DRIVE_HOT*%
X34000000Y-21000000D03*
%TO.P,R2,2*%
%TO.N,GATE*%
X42000000Y-21000000D03*
%TD*%
D20*
%TO.P,Q1,1*%
%TO.N,GATE*%
X46000000Y-55000000D03*
D21*
%TO.P,Q1,2*%
%TO.N,KELVIN_RETURN*%
X51080000Y-55000000D03*
%TO.P,Q1,3*%
%TO.N,POWER_GROUND*%
X53620000Y-55000000D03*
%TO.P,Q1,4*%
%TO.N,COLLECTOR*%
X56160000Y-55000000D03*
%TD*%
D17*
%TO.P,TP6,1*%
%TO.N,FLYBACK_HIGH*%
X78500000Y-48000000D03*
%TD*%
D22*
%TO.P,D2,1*%
%TO.N,GATE*%
X35850000Y-34500000D03*
%TO.P,D2,2*%
%TO.N,KELVIN_RETURN*%
X40150000Y-34500000D03*
%TD*%
D10*
%TO.P,R3,1*%
%TO.N,GATE*%
X40700000Y-31500000D03*
%TO.P,R3,2*%
%TO.N,KELVIN_RETURN*%
X50860000Y-31500000D03*
%TD*%
D23*
%TO.P,U1,1*%
%TO.N,N/C*%
X22000000Y-11000000D03*
D10*
%TO.P,U1,2*%
%TO.N,LED_ANODE*%
X22000000Y-13540000D03*
%TO.P,U1,3*%
%TO.N,INPUT_GND*%
X22000000Y-16080000D03*
%TO.P,U1,4*%
%TO.N,N/C*%
X22000000Y-18620000D03*
%TO.P,U1,5*%
%TO.N,KELVIN_RETURN*%
X29620000Y-18620000D03*
%TO.P,U1,6*%
%TO.N,GATE_DRIVE_HOT*%
X29620000Y-16080000D03*
%TO.P,U1,7*%
X29620000Y-13540000D03*
%TO.P,U1,8*%
%TO.N,VCC*%
X29620000Y-11000000D03*
%TD*%
%TO.P,R1,1*%
%TO.N,INPUT_VPLUS*%
X7920000Y-3500000D03*
%TO.P,R1,2*%
%TO.N,LED_ANODE*%
X18080000Y-3500000D03*
%TD*%
D11*
%TO.P,J3,1*%
%TO.N,KELVIN_RETURN*%
X32000000Y-17000000D03*
%TD*%
%TO.N,FLYBACK_HIGH*%
D24*
X83500000Y-42500000D02*
X88540000Y-42500000D01*
X78500000Y-47500000D02*
X83500000Y-42500000D01*
X78500000Y-48000000D02*
X78500000Y-47500000D01*
D25*
X88540000Y-42500000D02*
X88540000Y-38550000D01*
%TO.N,KELVIN_RETURN*%
D24*
X32500000Y-8000000D02*
X33500000Y-9000000D01*
X32500000Y-2500000D02*
X32500000Y-8000000D01*
%TO.N,VCC*%
X27500000Y-6000000D02*
X27500000Y-2500000D01*
X27000000Y-6500000D02*
X27500000Y-6000000D01*
%TO.N,LED_ANODE*%
X19040000Y-13540000D02*
X22000000Y-13540000D01*
X17500000Y-12000000D02*
X19040000Y-13540000D01*
X17500000Y-4080000D02*
X17500000Y-12000000D01*
X18080000Y-3500000D02*
X17500000Y-4080000D01*
%TO.N,INPUT_VPLUS*%
X7500000Y-3920000D02*
X7920000Y-3500000D01*
X3000000Y-3920000D02*
X7500000Y-3920000D01*
%TO.N,INPUT_GND*%
X10080000Y-16080000D02*
X22000000Y-16080000D01*
X3000000Y-9000000D02*
X10080000Y-16080000D01*
%TO.N,FLYBACK_HIGH*%
D25*
X96500000Y-51500000D02*
X96500000Y-61000000D01*
X92500000Y-47500000D02*
X96500000Y-51500000D01*
X88540000Y-49004466D02*
X90044466Y-47500000D01*
X88540000Y-50000000D02*
X88540000Y-49004466D01*
X90044466Y-47500000D02*
X92500000Y-47500000D01*
D24*
X88540000Y-38550000D02*
X87990000Y-38000000D01*
D25*
X88540000Y-50000000D02*
X88540000Y-42500000D01*
%TO.N,COLLECTOR*%
X62000000Y-36500000D02*
X57250000Y-31750000D01*
X63500000Y-36500000D02*
X62000000Y-36500000D01*
X57250000Y-31750000D02*
X57250000Y-30000000D01*
D24*
X63500000Y-36500000D02*
X60000000Y-33000000D01*
%TO.N,POWER_GROUND*%
D25*
X52500000Y-21500000D02*
X52500000Y-27600000D01*
X52500000Y-27600000D02*
X54007717Y-29107717D01*
X54500000Y-19500000D02*
X52500000Y-21500000D01*
X54500000Y-18500000D02*
X54500000Y-19500000D01*
X54007717Y-29107717D02*
X54007717Y-44007717D01*
X91080000Y-50000000D02*
X91080000Y-53920000D01*
D26*
X91080000Y-53920000D02*
X90000000Y-55000000D01*
X90000000Y-55000000D02*
X85000000Y-55000000D01*
X85500000Y-65500000D02*
X80750000Y-60750000D01*
X80750000Y-60750000D02*
X80750000Y-59250000D01*
X54500000Y-61000000D02*
X51500000Y-61000000D01*
X57000000Y-63500000D02*
X54500000Y-61000000D01*
X76500000Y-63500000D02*
X57000000Y-63500000D01*
X85000000Y-55000000D02*
X76500000Y-63500000D01*
D25*
X87000000Y-55000000D02*
X86000000Y-54000000D01*
X81250000Y-59250000D02*
X80750000Y-59250000D01*
X86210000Y-54290000D02*
X81250000Y-59250000D01*
X53620000Y-60880000D02*
X53620000Y-55000000D01*
X53500000Y-61000000D02*
X53620000Y-60880000D01*
X53500000Y-61000000D02*
X51500000Y-61000000D01*
D26*
X53500000Y-61000000D02*
X54000000Y-60500000D01*
X21000000Y-61000000D02*
X53500000Y-61000000D01*
D25*
X86000000Y-54000000D02*
X85000000Y-55000000D01*
X86000000Y-50000000D02*
X86000000Y-54000000D01*
D26*
X85000000Y-55000000D02*
X80750000Y-59250000D01*
%TO.N,VCC*%
D24*
X21500000Y-5500000D02*
X22000000Y-5000000D01*
X22000000Y-5000000D02*
X22000000Y-1500000D01*
X21500000Y-6500000D02*
X21500000Y-5500000D01*
X27000000Y-6500000D02*
X21500000Y-6500000D01*
X29620000Y-9120000D02*
X27000000Y-6500000D01*
X29620000Y-11000000D02*
X29620000Y-9120000D01*
%TO.N,KELVIN_RETURN*%
X29620000Y-18620000D02*
X30380000Y-18620000D01*
X30380000Y-18620000D02*
X32000000Y-17000000D01*
%TO.N,VCC*%
X33500000Y-11500000D02*
X30000000Y-11500000D01*
%TO.N,KELVIN_RETURN*%
X34940000Y-9440000D02*
X33500000Y-9440000D01*
X32000000Y-17000000D02*
X35300000Y-13700000D01*
X35300000Y-13700000D02*
X35300000Y-9800000D01*
X35300000Y-9800000D02*
X34940000Y-9440000D01*
%TO.N,GATE_DRIVE_HOT*%
X29620000Y-16080000D02*
X29620000Y-13540000D01*
X29454415Y-21000000D02*
X34000000Y-21000000D01*
X27820000Y-19365585D02*
X29454415Y-21000000D01*
X27820000Y-16748630D02*
X27820000Y-19365585D01*
X28488630Y-16080000D02*
X27820000Y-16748630D01*
X29620000Y-16080000D02*
X28488630Y-16080000D01*
%TO.N,POWER_GROUND*%
X28000000Y-50000000D02*
X28000000Y-52000000D01*
X28000000Y-52000000D02*
X20000000Y-60000000D01*
X20000000Y-60000000D02*
X21000000Y-61000000D01*
%TO.N,KELVIN_RETURN*%
X51080000Y-43560000D02*
X51080000Y-55000000D01*
X42010000Y-34490000D02*
X51080000Y-43560000D01*
%TO.N,GATE*%
X38850000Y-24150000D02*
X39500000Y-23500000D01*
X38850000Y-31500000D02*
X38850000Y-24150000D01*
X35850000Y-34500000D02*
X38850000Y-31500000D01*
X46000000Y-55000000D02*
X46000000Y-44650000D01*
X46000000Y-44650000D02*
X35850000Y-34500000D01*
%TO.N,POWER_GROUND*%
X53620000Y-44395434D02*
X54007717Y-44007717D01*
D25*
X53620000Y-55000000D02*
X53620000Y-44395434D01*
%TO.N,COLLECTOR*%
X62500000Y-55000000D02*
X72750000Y-44750000D01*
X72750000Y-44750000D02*
X72750000Y-38000000D01*
X56160000Y-55000000D02*
X62500000Y-55000000D01*
X65000000Y-38000000D02*
X60000000Y-33000000D01*
X72750000Y-38000000D02*
X65000000Y-38000000D01*
%TO.N,POWER_GROUND*%
X54007717Y-44007717D02*
X60000000Y-50000000D01*
%TO.N,KELVIN_RETURN*%
D24*
X42010000Y-34490000D02*
X47000000Y-29500000D01*
X47000000Y-29500000D02*
X47000000Y-27640000D01*
X40150000Y-34490000D02*
X42010000Y-34490000D01*
D27*
X40150000Y-34500000D02*
X40150000Y-34490000D01*
%TO.N,GATE*%
D24*
X32000000Y-30650000D02*
X35850000Y-34500000D01*
X32000000Y-29000000D02*
X32000000Y-30650000D01*
%TO.N,KELVIN_RETURN*%
X47000000Y-27640000D02*
X50860000Y-31500000D01*
X47000000Y-25000000D02*
X47000000Y-27640000D01*
X46650000Y-20350000D02*
X46650000Y-24931981D01*
X47000000Y-20000000D02*
X46650000Y-20350000D01*
X47000000Y-18000000D02*
X47000000Y-20000000D01*
%TO.N,GATE*%
X39500000Y-30300000D02*
X40700000Y-31500000D01*
X39500000Y-23500000D02*
X39500000Y-30300000D01*
X42000000Y-21000000D02*
X39500000Y-23500000D01*
%TO.N,KELVIN_RETURN*%
X46000000Y-17000000D02*
X47000000Y-18000000D01*
X32000000Y-17000000D02*
X46000000Y-17000000D01*
%TO.N,SNUB_INTERMEDIATE*%
X69950000Y-18750000D02*
X69950000Y-30000000D01*
X69700000Y-18500000D02*
X69950000Y-18750000D01*
%TD*%
M02*
