%TF.GenerationSoftware,KiCad,Pcbnew,10.0.3*%
%TF.CreationDate,2026-05-17T16:56:59-05:00*%
%TF.ProjectId,igbt_pcb,69676274-5f70-4636-922e-6b696361645f,rev?*%
%TF.SameCoordinates,Original*%
%TF.FileFunction,Soldermask,Top*%
%TF.FilePolarity,Negative*%
%FSLAX46Y46*%
G04 Gerber Fmt 4.6, Leading zero omitted, Abs format (unit mm)*
G04 Created by KiCad (PCBNEW 10.0.3) date 2026-05-17 16:56:59*
%MOMM*%
%LPD*%
G01*
G04 APERTURE LIST*
G04 APERTURE END LIST*
G36*
X52269134Y-61703806D02*
G01*
X52285355Y-61714645D01*
X52296194Y-61730866D01*
X52300000Y-61750000D01*
X52300000Y-66250000D01*
X52296194Y-66269134D01*
X52285355Y-66285355D01*
X52269134Y-66296194D01*
X52250000Y-66300000D01*
X47750000Y-66300000D01*
X47730866Y-66296194D01*
X47714645Y-66285355D01*
X47703806Y-66269134D01*
X47700000Y-66250000D01*
X47700000Y-61750000D01*
X47703806Y-61730866D01*
X47714645Y-61714645D01*
X47730866Y-61703806D01*
X47750000Y-61700000D01*
X52250000Y-61700000D01*
X52269134Y-61703806D01*
G37*
G36*
X77269134Y-61703806D02*
G01*
X77285355Y-61714645D01*
X77296194Y-61730866D01*
X77300000Y-61750000D01*
X77300000Y-66250000D01*
X77296194Y-66269134D01*
X77285355Y-66285355D01*
X77269134Y-66296194D01*
X77250000Y-66300000D01*
X72750000Y-66300000D01*
X72730866Y-66296194D01*
X72714645Y-66285355D01*
X72703806Y-66269134D01*
X72700000Y-66250000D01*
X72700000Y-61750000D01*
X72703806Y-61730866D01*
X72714645Y-61714645D01*
X72730866Y-61703806D01*
X72750000Y-61700000D01*
X77250000Y-61700000D01*
X77269134Y-61703806D01*
G37*
G36*
X97269134Y-61703806D02*
G01*
X97285355Y-61714645D01*
X97296194Y-61730866D01*
X97300000Y-61750000D01*
X97300000Y-66250000D01*
X97296194Y-66269134D01*
X97285355Y-66285355D01*
X97269134Y-66296194D01*
X97250000Y-66300000D01*
X92750000Y-66300000D01*
X92730866Y-66296194D01*
X92714645Y-66285355D01*
X92703806Y-66269134D01*
X92700000Y-66250000D01*
X92700000Y-61750000D01*
X92703806Y-61730866D01*
X92714645Y-61714645D01*
X92730866Y-61703806D01*
X92750000Y-61700000D01*
X97250000Y-61700000D01*
X97269134Y-61703806D01*
G37*
G36*
X28232228Y-59234448D02*
G01*
X28377117Y-59294463D01*
X28507515Y-59381592D01*
X28618408Y-59492485D01*
X28705537Y-59622883D01*
X28765552Y-59767772D01*
X28796148Y-59921586D01*
X28796148Y-60078414D01*
X28765552Y-60232228D01*
X28705537Y-60377117D01*
X28618408Y-60507515D01*
X28507515Y-60618408D01*
X28377117Y-60705537D01*
X28232228Y-60765552D01*
X28078414Y-60796148D01*
X27921586Y-60796148D01*
X27767772Y-60765552D01*
X27622883Y-60705537D01*
X27492485Y-60618408D01*
X27381592Y-60507515D01*
X27294463Y-60377117D01*
X27234448Y-60232228D01*
X27203852Y-60078414D01*
X27203852Y-59921586D01*
X27234448Y-59767772D01*
X27294463Y-59622883D01*
X27381592Y-59492485D01*
X27492485Y-59381592D01*
X27622883Y-59294463D01*
X27767772Y-59234448D01*
X27921586Y-59203852D01*
X28078414Y-59203852D01*
X28232228Y-59234448D01*
G37*
G36*
X50232228Y-59234448D02*
G01*
X50377117Y-59294463D01*
X50507515Y-59381592D01*
X50618408Y-59492485D01*
X50705537Y-59622883D01*
X50765552Y-59767772D01*
X50796148Y-59921586D01*
X50796148Y-60078414D01*
X50765552Y-60232228D01*
X50705537Y-60377117D01*
X50618408Y-60507515D01*
X50507515Y-60618408D01*
X50377117Y-60705537D01*
X50232228Y-60765552D01*
X50078414Y-60796148D01*
X49921586Y-60796148D01*
X49767772Y-60765552D01*
X49622883Y-60705537D01*
X49492485Y-60618408D01*
X49381592Y-60507515D01*
X49294463Y-60377117D01*
X49234448Y-60232228D01*
X49203852Y-60078414D01*
X49203852Y-59921586D01*
X49234448Y-59767772D01*
X49294463Y-59622883D01*
X49381592Y-59492485D01*
X49492485Y-59381592D01*
X49622883Y-59294463D01*
X49767772Y-59234448D01*
X49921586Y-59203852D01*
X50078414Y-59203852D01*
X50232228Y-59234448D01*
G37*
G36*
X80232228Y-59234448D02*
G01*
X80377117Y-59294463D01*
X80507515Y-59381592D01*
X80618408Y-59492485D01*
X80705537Y-59622883D01*
X80765552Y-59767772D01*
X80796148Y-59921586D01*
X80796148Y-60078414D01*
X80765552Y-60232228D01*
X80705537Y-60377117D01*
X80618408Y-60507515D01*
X80507515Y-60618408D01*
X80377117Y-60705537D01*
X80232228Y-60765552D01*
X80078414Y-60796148D01*
X79921586Y-60796148D01*
X79767772Y-60765552D01*
X79622883Y-60705537D01*
X79492485Y-60618408D01*
X79381592Y-60507515D01*
X79294463Y-60377117D01*
X79234448Y-60232228D01*
X79203852Y-60078414D01*
X79203852Y-59921586D01*
X79234448Y-59767772D01*
X79294463Y-59622883D01*
X79381592Y-59492485D01*
X79492485Y-59381592D01*
X79622883Y-59294463D01*
X79767772Y-59234448D01*
X79921586Y-59203852D01*
X80078414Y-59203852D01*
X80232228Y-59234448D01*
G37*
G36*
X62303479Y-52335919D02*
G01*
X62497488Y-52398957D01*
X62679248Y-52491568D01*
X62844282Y-52611472D01*
X62988528Y-52755718D01*
X63108432Y-52920752D01*
X63201043Y-53102512D01*
X63264081Y-53296521D01*
X63295993Y-53498003D01*
X63295993Y-53701997D01*
X63264081Y-53903479D01*
X63201043Y-54097488D01*
X63108432Y-54279248D01*
X62988528Y-54444282D01*
X62844282Y-54588528D01*
X62679248Y-54708432D01*
X62497488Y-54801043D01*
X62303479Y-54864081D01*
X62101997Y-54895993D01*
X61898003Y-54895993D01*
X61696521Y-54864081D01*
X61502512Y-54801043D01*
X61320752Y-54708432D01*
X61155718Y-54588528D01*
X61011472Y-54444282D01*
X60891568Y-54279248D01*
X60798957Y-54097488D01*
X60735919Y-53903479D01*
X60704007Y-53701997D01*
X60704007Y-53498003D01*
X60735919Y-53296521D01*
X60798957Y-53102512D01*
X60891568Y-52920752D01*
X61011472Y-52755718D01*
X61155718Y-52611472D01*
X61320752Y-52491568D01*
X61502512Y-52398957D01*
X61696521Y-52335919D01*
X61898003Y-52304007D01*
X62101997Y-52304007D01*
X62303479Y-52335919D01*
G37*
G36*
X77831807Y-50284538D02*
G01*
X78018354Y-50345151D01*
X78193123Y-50434200D01*
X78351810Y-50549493D01*
X78490507Y-50688190D01*
X78605800Y-50846877D01*
X78694849Y-51021646D01*
X78755462Y-51208193D01*
X78786147Y-51401926D01*
X78786147Y-51598074D01*
X78755462Y-51791807D01*
X78694849Y-51978354D01*
X78605800Y-52153123D01*
X78490507Y-52311810D01*
X78351810Y-52450507D01*
X78193123Y-52565800D01*
X78018354Y-52654849D01*
X77831807Y-52715462D01*
X77638074Y-52746147D01*
X77441926Y-52746147D01*
X77248193Y-52715462D01*
X77061646Y-52654849D01*
X76886877Y-52565800D01*
X76728190Y-52450507D01*
X76589493Y-52311810D01*
X76474200Y-52153123D01*
X76385151Y-51978354D01*
X76324538Y-51791807D01*
X76293853Y-51598074D01*
X76293853Y-51401926D01*
X76324538Y-51208193D01*
X76385151Y-51021646D01*
X76474200Y-50846877D01*
X76589493Y-50688190D01*
X76728190Y-50549493D01*
X76886877Y-50434200D01*
X77061646Y-50345151D01*
X77248193Y-50284538D01*
X77441926Y-50253853D01*
X77638074Y-50253853D01*
X77831807Y-50284538D01*
G37*
G36*
X43246742Y-48186601D02*
G01*
X43400687Y-48250367D01*
X43539234Y-48342941D01*
X43657059Y-48460766D01*
X43749633Y-48599313D01*
X43813399Y-48753258D01*
X43845907Y-48916685D01*
X43845907Y-49083315D01*
X43813399Y-49246742D01*
X43749633Y-49400687D01*
X43657059Y-49539234D01*
X43539234Y-49657059D01*
X43400687Y-49749633D01*
X43246742Y-49813399D01*
X43083315Y-49845907D01*
X42916685Y-49845907D01*
X42753258Y-49813399D01*
X42599313Y-49749633D01*
X42460766Y-49657059D01*
X42342941Y-49539234D01*
X42250367Y-49400687D01*
X42186601Y-49246742D01*
X42154093Y-49083315D01*
X42154093Y-48916685D01*
X42186601Y-48753258D01*
X42250367Y-48599313D01*
X42342941Y-48460766D01*
X42460766Y-48342941D01*
X42599313Y-48250367D01*
X42753258Y-48186601D01*
X42916685Y-48154093D01*
X43083315Y-48154093D01*
X43246742Y-48186601D01*
G37*
G36*
X53406742Y-48186601D02*
G01*
X53560687Y-48250367D01*
X53699234Y-48342941D01*
X53817059Y-48460766D01*
X53909633Y-48599313D01*
X53973399Y-48753258D01*
X54005907Y-48916685D01*
X54005907Y-49083315D01*
X53973399Y-49246742D01*
X53909633Y-49400687D01*
X53817059Y-49539234D01*
X53699234Y-49657059D01*
X53560687Y-49749633D01*
X53406742Y-49813399D01*
X53243315Y-49845907D01*
X53076685Y-49845907D01*
X52913258Y-49813399D01*
X52759313Y-49749633D01*
X52620766Y-49657059D01*
X52502941Y-49539234D01*
X52410367Y-49400687D01*
X52346601Y-49246742D01*
X52314093Y-49083315D01*
X52314093Y-48916685D01*
X52346601Y-48753258D01*
X52410367Y-48599313D01*
X52502941Y-48460766D01*
X52620766Y-48342941D01*
X52759313Y-48250367D01*
X52913258Y-48186601D01*
X53076685Y-48154093D01*
X53243315Y-48154093D01*
X53406742Y-48186601D01*
G37*
G36*
X84232228Y-46234448D02*
G01*
X84377117Y-46294463D01*
X84507515Y-46381592D01*
X84618408Y-46492485D01*
X84705537Y-46622883D01*
X84765552Y-46767772D01*
X84796148Y-46921586D01*
X84796148Y-47078414D01*
X84765552Y-47232228D01*
X84705537Y-47377117D01*
X84618408Y-47507515D01*
X84507515Y-47618408D01*
X84377117Y-47705537D01*
X84232228Y-47765552D01*
X84078414Y-47796148D01*
X83921586Y-47796148D01*
X83767772Y-47765552D01*
X83622883Y-47705537D01*
X83492485Y-47618408D01*
X83381592Y-47507515D01*
X83294463Y-47377117D01*
X83234448Y-47232228D01*
X83203852Y-47078414D01*
X83203852Y-46921586D01*
X83234448Y-46767772D01*
X83294463Y-46622883D01*
X83381592Y-46492485D01*
X83492485Y-46381592D01*
X83622883Y-46294463D01*
X83767772Y-46234448D01*
X83921586Y-46203852D01*
X84078414Y-46203852D01*
X84232228Y-46234448D01*
G37*
G36*
X66291807Y-45134538D02*
G01*
X66478354Y-45195151D01*
X66653123Y-45284200D01*
X66811810Y-45399493D01*
X66950507Y-45538190D01*
X67065800Y-45696877D01*
X67154849Y-45871646D01*
X67215462Y-46058193D01*
X67246147Y-46251926D01*
X67246147Y-46448074D01*
X67215462Y-46641807D01*
X67154849Y-46828354D01*
X67065800Y-47003123D01*
X66950507Y-47161810D01*
X66811810Y-47300507D01*
X66653123Y-47415800D01*
X66478354Y-47504849D01*
X66291807Y-47565462D01*
X66098074Y-47596147D01*
X65901926Y-47596147D01*
X65708193Y-47565462D01*
X65521646Y-47504849D01*
X65346877Y-47415800D01*
X65188190Y-47300507D01*
X65049493Y-47161810D01*
X64934200Y-47003123D01*
X64845151Y-46828354D01*
X64784538Y-46641807D01*
X64753853Y-46448074D01*
X64753853Y-46251926D01*
X64784538Y-46058193D01*
X64845151Y-45871646D01*
X64934200Y-45696877D01*
X65049493Y-45538190D01*
X65188190Y-45399493D01*
X65346877Y-45284200D01*
X65521646Y-45195151D01*
X65708193Y-45134538D01*
X65901926Y-45103853D01*
X66098074Y-45103853D01*
X66291807Y-45134538D01*
G37*
G36*
X44018684Y-43757969D02*
G01*
X44034459Y-43764934D01*
X44042222Y-43766164D01*
X44074552Y-43782637D01*
X44119540Y-43802501D01*
X44197499Y-43880460D01*
X44217366Y-43925455D01*
X44233835Y-43957777D01*
X44235064Y-43965537D01*
X44242031Y-43981316D01*
X44249999Y-44050002D01*
X44249999Y-44059831D01*
X44250000Y-44059838D01*
X44250000Y-45098044D01*
X44250000Y-45949999D01*
X44242031Y-46018684D01*
X44235063Y-46034463D01*
X44233835Y-46042222D01*
X44217369Y-46074537D01*
X44197499Y-46119540D01*
X44119540Y-46197499D01*
X44074537Y-46217369D01*
X44042222Y-46233835D01*
X44034463Y-46235063D01*
X44018684Y-46242031D01*
X43949998Y-46249999D01*
X43940168Y-46249999D01*
X43940162Y-46250000D01*
X42059838Y-46250000D01*
X42059837Y-46249999D01*
X42050001Y-46250000D01*
X41981316Y-46242031D01*
X41965537Y-46235064D01*
X41957777Y-46233835D01*
X41925455Y-46217366D01*
X41880460Y-46197499D01*
X41802501Y-46119540D01*
X41782637Y-46074552D01*
X41766164Y-46042222D01*
X41764934Y-46034459D01*
X41757969Y-46018684D01*
X41750001Y-45949998D01*
X41750000Y-45940167D01*
X41750000Y-45940161D01*
X41750000Y-44059838D01*
X41750000Y-44059837D01*
X41750000Y-44050001D01*
X41757969Y-43981316D01*
X41764934Y-43965540D01*
X41766164Y-43957777D01*
X41782640Y-43925440D01*
X41802501Y-43880460D01*
X41880460Y-43802501D01*
X41925440Y-43782640D01*
X41957777Y-43766164D01*
X41965540Y-43764934D01*
X41981316Y-43757969D01*
X42050002Y-43750001D01*
X42059831Y-43750000D01*
X42059838Y-43750000D01*
X43940162Y-43750000D01*
X43949999Y-43750000D01*
X44018684Y-43757969D01*
G37*
G36*
X53451807Y-43784538D02*
G01*
X53638354Y-43845151D01*
X53813123Y-43934200D01*
X53971810Y-44049493D01*
X54110507Y-44188190D01*
X54225800Y-44346877D01*
X54314849Y-44521646D01*
X54375462Y-44708193D01*
X54406147Y-44901926D01*
X54406147Y-45098074D01*
X54375462Y-45291807D01*
X54314849Y-45478354D01*
X54225800Y-45653123D01*
X54110507Y-45811810D01*
X53971810Y-45950507D01*
X53813123Y-46065800D01*
X53638354Y-46154849D01*
X53451807Y-46215462D01*
X53258074Y-46246147D01*
X53061926Y-46246147D01*
X52868193Y-46215462D01*
X52681646Y-46154849D01*
X52506877Y-46065800D01*
X52348190Y-45950507D01*
X52209493Y-45811810D01*
X52094200Y-45653123D01*
X52005151Y-45478354D01*
X51944538Y-45291807D01*
X51913853Y-45098074D01*
X51913853Y-44901926D01*
X51944538Y-44708193D01*
X52005151Y-44521646D01*
X52094200Y-44346877D01*
X52209493Y-44188190D01*
X52348190Y-44049493D01*
X52506877Y-43934200D01*
X52681646Y-43845151D01*
X52868193Y-43784538D01*
X53061926Y-43753853D01*
X53258074Y-43753853D01*
X53451807Y-43784538D01*
G37*
G36*
X45971634Y-35703806D02*
G01*
X45987855Y-35714645D01*
X45998694Y-35730866D01*
X46002500Y-35750000D01*
X46002500Y-40250000D01*
X45998694Y-40269134D01*
X45987855Y-40285355D01*
X45971634Y-40296194D01*
X45952500Y-40300000D01*
X44047500Y-40300000D01*
X44028366Y-40296194D01*
X44012145Y-40285355D01*
X44001306Y-40269134D01*
X43997500Y-40250000D01*
X43997500Y-35750000D01*
X44001306Y-35730866D01*
X44012145Y-35714645D01*
X44028366Y-35703806D01*
X44047500Y-35700000D01*
X45952500Y-35700000D01*
X45971634Y-35703806D01*
G37*
G36*
X50167156Y-35704827D02*
G01*
X50178262Y-35704827D01*
X50221664Y-35713460D01*
X50313938Y-35728075D01*
X50343616Y-35737718D01*
X50371010Y-35743167D01*
X50409665Y-35759178D01*
X50463492Y-35776668D01*
X50513923Y-35802364D01*
X50552575Y-35818374D01*
X50575792Y-35833887D01*
X50603602Y-35848057D01*
X50679199Y-35902981D01*
X50715979Y-35927557D01*
X50723828Y-35935406D01*
X50730817Y-35940484D01*
X50842015Y-36051682D01*
X50847092Y-36058670D01*
X50854943Y-36066521D01*
X50879521Y-36103305D01*
X50934442Y-36178897D01*
X50948610Y-36206704D01*
X50964126Y-36229925D01*
X50980137Y-36268581D01*
X51005831Y-36319007D01*
X51023318Y-36372826D01*
X51039333Y-36411490D01*
X51044783Y-36438889D01*
X51054424Y-36468561D01*
X51069037Y-36560823D01*
X51077673Y-36604238D01*
X51078463Y-36620339D01*
X51079409Y-36626306D01*
X51082015Y-36692646D01*
X51082500Y-36702500D01*
X51082500Y-39297500D01*
X51082015Y-39307357D01*
X51079409Y-39373693D01*
X51078464Y-39379659D01*
X51077673Y-39395762D01*
X51069036Y-39439180D01*
X51054424Y-39531438D01*
X51044783Y-39561108D01*
X51039333Y-39588510D01*
X51023316Y-39627176D01*
X51005831Y-39680992D01*
X50980140Y-39731413D01*
X50964126Y-39770075D01*
X50948608Y-39793299D01*
X50934442Y-39821102D01*
X50879529Y-39896682D01*
X50854943Y-39933479D01*
X50847089Y-39941332D01*
X50842015Y-39948317D01*
X50730817Y-40059515D01*
X50723832Y-40064589D01*
X50715979Y-40072443D01*
X50679182Y-40097029D01*
X50603602Y-40151942D01*
X50575799Y-40166108D01*
X50552575Y-40181626D01*
X50513913Y-40197640D01*
X50463492Y-40223331D01*
X50409676Y-40240816D01*
X50371010Y-40256833D01*
X50343608Y-40262283D01*
X50313938Y-40271924D01*
X50221674Y-40286537D01*
X50178262Y-40295173D01*
X50167156Y-40295173D01*
X50158626Y-40296524D01*
X50001374Y-40296524D01*
X49992844Y-40295173D01*
X49981738Y-40295173D01*
X49938326Y-40286537D01*
X49846061Y-40271924D01*
X49816389Y-40262283D01*
X49788990Y-40256833D01*
X49750326Y-40240818D01*
X49696507Y-40223331D01*
X49646081Y-40197637D01*
X49607425Y-40181626D01*
X49584204Y-40166110D01*
X49556397Y-40151942D01*
X49480805Y-40097021D01*
X49444021Y-40072443D01*
X49436170Y-40064592D01*
X49429182Y-40059515D01*
X49317984Y-39948317D01*
X49312906Y-39941328D01*
X49305057Y-39933479D01*
X49280481Y-39896699D01*
X49225557Y-39821102D01*
X49211387Y-39793292D01*
X49195874Y-39770075D01*
X49179864Y-39731423D01*
X49154168Y-39680992D01*
X49136678Y-39627165D01*
X49120667Y-39588510D01*
X49115218Y-39561116D01*
X49105575Y-39531438D01*
X49090958Y-39439155D01*
X49082327Y-39395762D01*
X49081536Y-39379668D01*
X49080590Y-39373693D01*
X49077983Y-39307341D01*
X49077500Y-39297500D01*
X49077500Y-36702500D01*
X49077983Y-36692662D01*
X49080590Y-36626306D01*
X49081536Y-36620330D01*
X49082327Y-36604238D01*
X49090957Y-36560848D01*
X49105575Y-36468561D01*
X49115218Y-36438881D01*
X49120667Y-36411490D01*
X49136677Y-36372837D01*
X49154168Y-36319007D01*
X49179866Y-36268570D01*
X49195874Y-36229925D01*
X49211385Y-36206710D01*
X49225557Y-36178897D01*
X49280490Y-36103287D01*
X49305057Y-36066521D01*
X49312904Y-36058673D01*
X49317984Y-36051682D01*
X49429182Y-35940484D01*
X49436173Y-35935404D01*
X49444021Y-35927557D01*
X49480787Y-35902990D01*
X49556397Y-35848057D01*
X49584210Y-35833885D01*
X49607425Y-35818374D01*
X49646070Y-35802366D01*
X49696507Y-35776668D01*
X49750337Y-35759177D01*
X49788990Y-35743167D01*
X49816381Y-35737718D01*
X49846061Y-35728075D01*
X49938336Y-35713460D01*
X49981738Y-35704827D01*
X49992844Y-35704827D01*
X50001374Y-35703476D01*
X50158626Y-35703476D01*
X50167156Y-35704827D01*
G37*
G36*
X52707156Y-35704827D02*
G01*
X52718262Y-35704827D01*
X52761664Y-35713460D01*
X52853938Y-35728075D01*
X52883616Y-35737718D01*
X52911010Y-35743167D01*
X52949665Y-35759178D01*
X53003492Y-35776668D01*
X53053923Y-35802364D01*
X53092575Y-35818374D01*
X53115792Y-35833887D01*
X53143602Y-35848057D01*
X53219199Y-35902981D01*
X53255979Y-35927557D01*
X53263828Y-35935406D01*
X53270817Y-35940484D01*
X53382015Y-36051682D01*
X53387092Y-36058670D01*
X53394943Y-36066521D01*
X53419521Y-36103305D01*
X53474442Y-36178897D01*
X53488610Y-36206704D01*
X53504126Y-36229925D01*
X53520137Y-36268581D01*
X53545831Y-36319007D01*
X53563318Y-36372826D01*
X53579333Y-36411490D01*
X53584783Y-36438889D01*
X53594424Y-36468561D01*
X53609037Y-36560823D01*
X53617673Y-36604238D01*
X53618463Y-36620339D01*
X53619409Y-36626306D01*
X53622015Y-36692646D01*
X53622500Y-36702500D01*
X53622500Y-39297500D01*
X53622015Y-39307357D01*
X53619409Y-39373693D01*
X53618464Y-39379659D01*
X53617673Y-39395762D01*
X53609036Y-39439180D01*
X53594424Y-39531438D01*
X53584783Y-39561108D01*
X53579333Y-39588510D01*
X53563316Y-39627176D01*
X53545831Y-39680992D01*
X53520140Y-39731413D01*
X53504126Y-39770075D01*
X53488608Y-39793299D01*
X53474442Y-39821102D01*
X53419529Y-39896682D01*
X53394943Y-39933479D01*
X53387089Y-39941332D01*
X53382015Y-39948317D01*
X53270817Y-40059515D01*
X53263832Y-40064589D01*
X53255979Y-40072443D01*
X53219182Y-40097029D01*
X53143602Y-40151942D01*
X53115799Y-40166108D01*
X53092575Y-40181626D01*
X53053913Y-40197640D01*
X53003492Y-40223331D01*
X52949676Y-40240816D01*
X52911010Y-40256833D01*
X52883608Y-40262283D01*
X52853938Y-40271924D01*
X52761674Y-40286537D01*
X52718262Y-40295173D01*
X52707156Y-40295173D01*
X52698626Y-40296524D01*
X52541374Y-40296524D01*
X52532844Y-40295173D01*
X52521738Y-40295173D01*
X52478326Y-40286537D01*
X52386061Y-40271924D01*
X52356389Y-40262283D01*
X52328990Y-40256833D01*
X52290326Y-40240818D01*
X52236507Y-40223331D01*
X52186081Y-40197637D01*
X52147425Y-40181626D01*
X52124204Y-40166110D01*
X52096397Y-40151942D01*
X52020805Y-40097021D01*
X51984021Y-40072443D01*
X51976170Y-40064592D01*
X51969182Y-40059515D01*
X51857984Y-39948317D01*
X51852906Y-39941328D01*
X51845057Y-39933479D01*
X51820481Y-39896699D01*
X51765557Y-39821102D01*
X51751387Y-39793292D01*
X51735874Y-39770075D01*
X51719864Y-39731423D01*
X51694168Y-39680992D01*
X51676678Y-39627165D01*
X51660667Y-39588510D01*
X51655218Y-39561116D01*
X51645575Y-39531438D01*
X51630958Y-39439155D01*
X51622327Y-39395762D01*
X51621536Y-39379668D01*
X51620590Y-39373693D01*
X51617983Y-39307341D01*
X51617500Y-39297500D01*
X51617500Y-36702500D01*
X51617983Y-36692662D01*
X51620590Y-36626306D01*
X51621536Y-36620330D01*
X51622327Y-36604238D01*
X51630957Y-36560848D01*
X51645575Y-36468561D01*
X51655218Y-36438881D01*
X51660667Y-36411490D01*
X51676677Y-36372837D01*
X51694168Y-36319007D01*
X51719866Y-36268570D01*
X51735874Y-36229925D01*
X51751385Y-36206710D01*
X51765557Y-36178897D01*
X51820490Y-36103287D01*
X51845057Y-36066521D01*
X51852904Y-36058673D01*
X51857984Y-36051682D01*
X51969182Y-35940484D01*
X51976173Y-35935404D01*
X51984021Y-35927557D01*
X52020787Y-35902990D01*
X52096397Y-35848057D01*
X52124210Y-35833885D01*
X52147425Y-35818374D01*
X52186070Y-35802366D01*
X52236507Y-35776668D01*
X52290337Y-35759177D01*
X52328990Y-35743167D01*
X52356381Y-35737718D01*
X52386061Y-35728075D01*
X52478336Y-35713460D01*
X52521738Y-35704827D01*
X52532844Y-35704827D01*
X52541374Y-35703476D01*
X52698626Y-35703476D01*
X52707156Y-35704827D01*
G37*
G36*
X55247156Y-35704827D02*
G01*
X55258262Y-35704827D01*
X55301664Y-35713460D01*
X55393938Y-35728075D01*
X55423616Y-35737718D01*
X55451010Y-35743167D01*
X55489665Y-35759178D01*
X55543492Y-35776668D01*
X55593923Y-35802364D01*
X55632575Y-35818374D01*
X55655792Y-35833887D01*
X55683602Y-35848057D01*
X55759199Y-35902981D01*
X55795979Y-35927557D01*
X55803828Y-35935406D01*
X55810817Y-35940484D01*
X55922015Y-36051682D01*
X55927092Y-36058670D01*
X55934943Y-36066521D01*
X55959521Y-36103305D01*
X56014442Y-36178897D01*
X56028610Y-36206704D01*
X56044126Y-36229925D01*
X56060137Y-36268581D01*
X56085831Y-36319007D01*
X56103318Y-36372826D01*
X56119333Y-36411490D01*
X56124783Y-36438889D01*
X56134424Y-36468561D01*
X56149037Y-36560823D01*
X56157673Y-36604238D01*
X56158463Y-36620339D01*
X56159409Y-36626306D01*
X56162015Y-36692646D01*
X56162500Y-36702500D01*
X56162500Y-39297500D01*
X56162015Y-39307357D01*
X56159409Y-39373693D01*
X56158464Y-39379659D01*
X56157673Y-39395762D01*
X56149036Y-39439180D01*
X56134424Y-39531438D01*
X56124783Y-39561108D01*
X56119333Y-39588510D01*
X56103316Y-39627176D01*
X56085831Y-39680992D01*
X56060140Y-39731413D01*
X56044126Y-39770075D01*
X56028608Y-39793299D01*
X56014442Y-39821102D01*
X55959529Y-39896682D01*
X55934943Y-39933479D01*
X55927089Y-39941332D01*
X55922015Y-39948317D01*
X55810817Y-40059515D01*
X55803832Y-40064589D01*
X55795979Y-40072443D01*
X55759182Y-40097029D01*
X55683602Y-40151942D01*
X55655799Y-40166108D01*
X55632575Y-40181626D01*
X55593913Y-40197640D01*
X55543492Y-40223331D01*
X55489676Y-40240816D01*
X55451010Y-40256833D01*
X55423608Y-40262283D01*
X55393938Y-40271924D01*
X55301674Y-40286537D01*
X55258262Y-40295173D01*
X55247156Y-40295173D01*
X55238626Y-40296524D01*
X55081374Y-40296524D01*
X55072844Y-40295173D01*
X55061738Y-40295173D01*
X55018326Y-40286537D01*
X54926061Y-40271924D01*
X54896389Y-40262283D01*
X54868990Y-40256833D01*
X54830326Y-40240818D01*
X54776507Y-40223331D01*
X54726081Y-40197637D01*
X54687425Y-40181626D01*
X54664204Y-40166110D01*
X54636397Y-40151942D01*
X54560805Y-40097021D01*
X54524021Y-40072443D01*
X54516170Y-40064592D01*
X54509182Y-40059515D01*
X54397984Y-39948317D01*
X54392906Y-39941328D01*
X54385057Y-39933479D01*
X54360481Y-39896699D01*
X54305557Y-39821102D01*
X54291387Y-39793292D01*
X54275874Y-39770075D01*
X54259864Y-39731423D01*
X54234168Y-39680992D01*
X54216678Y-39627165D01*
X54200667Y-39588510D01*
X54195218Y-39561116D01*
X54185575Y-39531438D01*
X54170958Y-39439155D01*
X54162327Y-39395762D01*
X54161536Y-39379668D01*
X54160590Y-39373693D01*
X54157983Y-39307341D01*
X54157500Y-39297500D01*
X54157500Y-36702500D01*
X54157983Y-36692662D01*
X54160590Y-36626306D01*
X54161536Y-36620330D01*
X54162327Y-36604238D01*
X54170957Y-36560848D01*
X54185575Y-36468561D01*
X54195218Y-36438881D01*
X54200667Y-36411490D01*
X54216677Y-36372837D01*
X54234168Y-36319007D01*
X54259866Y-36268570D01*
X54275874Y-36229925D01*
X54291385Y-36206710D01*
X54305557Y-36178897D01*
X54360490Y-36103287D01*
X54385057Y-36066521D01*
X54392904Y-36058673D01*
X54397984Y-36051682D01*
X54509182Y-35940484D01*
X54516173Y-35935404D01*
X54524021Y-35927557D01*
X54560787Y-35902990D01*
X54636397Y-35848057D01*
X54664210Y-35833885D01*
X54687425Y-35818374D01*
X54726070Y-35802366D01*
X54776507Y-35776668D01*
X54830337Y-35759177D01*
X54868990Y-35743167D01*
X54896381Y-35737718D01*
X54926061Y-35728075D01*
X55018336Y-35713460D01*
X55061738Y-35704827D01*
X55072844Y-35704827D01*
X55081374Y-35703476D01*
X55238626Y-35703476D01*
X55247156Y-35704827D01*
G37*
G36*
X38086934Y-38004815D02*
G01*
X38098017Y-38004815D01*
X38141329Y-38013430D01*
X38233355Y-38028006D01*
X38262956Y-38037623D01*
X38290285Y-38043060D01*
X38328846Y-38059032D01*
X38382532Y-38076476D01*
X38432828Y-38102103D01*
X38471397Y-38118079D01*
X38494567Y-38133560D01*
X38522301Y-38147692D01*
X38597696Y-38202470D01*
X38634393Y-38226990D01*
X38642224Y-38234821D01*
X38649191Y-38239883D01*
X38760116Y-38350808D01*
X38765177Y-38357774D01*
X38773010Y-38365607D01*
X38797532Y-38402308D01*
X38852307Y-38477698D01*
X38866437Y-38505429D01*
X38881921Y-38528603D01*
X38897898Y-38567176D01*
X38923523Y-38617467D01*
X38940964Y-38671145D01*
X38956940Y-38709715D01*
X38962377Y-38737049D01*
X38971993Y-38766644D01*
X38986567Y-38858661D01*
X38995185Y-38901983D01*
X38995185Y-38913066D01*
X38996532Y-38921571D01*
X38996532Y-39078428D01*
X38995185Y-39086932D01*
X38995185Y-39098017D01*
X38986567Y-39141341D01*
X38971993Y-39233355D01*
X38962377Y-39262948D01*
X38956940Y-39290285D01*
X38940962Y-39328858D01*
X38923523Y-39382532D01*
X38897900Y-39432818D01*
X38881921Y-39471397D01*
X38866434Y-39494573D01*
X38852307Y-39522301D01*
X38797541Y-39597679D01*
X38773010Y-39634393D01*
X38765174Y-39642228D01*
X38760116Y-39649191D01*
X38649191Y-39760116D01*
X38642228Y-39765174D01*
X38634393Y-39773010D01*
X38597679Y-39797541D01*
X38522301Y-39852307D01*
X38494573Y-39866434D01*
X38471397Y-39881921D01*
X38432818Y-39897900D01*
X38382532Y-39923523D01*
X38328858Y-39940962D01*
X38290285Y-39956940D01*
X38262948Y-39962377D01*
X38233355Y-39971993D01*
X38141339Y-39986567D01*
X38098017Y-39995185D01*
X38086933Y-39995185D01*
X38078429Y-39996532D01*
X37921571Y-39996532D01*
X37913067Y-39995185D01*
X37901983Y-39995185D01*
X37858661Y-39986567D01*
X37766644Y-39971993D01*
X37737049Y-39962377D01*
X37709715Y-39956940D01*
X37671145Y-39940964D01*
X37617467Y-39923523D01*
X37567176Y-39897898D01*
X37528603Y-39881921D01*
X37505429Y-39866437D01*
X37477698Y-39852307D01*
X37402308Y-39797532D01*
X37365607Y-39773010D01*
X37357774Y-39765177D01*
X37350808Y-39760116D01*
X37239883Y-39649191D01*
X37234821Y-39642224D01*
X37226990Y-39634393D01*
X37202470Y-39597696D01*
X37147692Y-39522301D01*
X37133560Y-39494567D01*
X37118079Y-39471397D01*
X37102103Y-39432828D01*
X37076476Y-39382532D01*
X37059032Y-39328846D01*
X37043060Y-39290285D01*
X37037623Y-39262956D01*
X37028006Y-39233355D01*
X37013430Y-39141331D01*
X37004815Y-39098017D01*
X37004815Y-39086932D01*
X37003468Y-39078428D01*
X37003468Y-38921571D01*
X37004815Y-38913066D01*
X37004815Y-38901983D01*
X37013430Y-38858671D01*
X37028006Y-38766644D01*
X37037624Y-38737041D01*
X37043060Y-38709715D01*
X37059031Y-38671156D01*
X37076476Y-38617467D01*
X37102105Y-38567165D01*
X37118079Y-38528603D01*
X37133558Y-38505436D01*
X37147692Y-38477698D01*
X37202478Y-38402290D01*
X37226990Y-38365607D01*
X37234818Y-38357778D01*
X37239883Y-38350808D01*
X37350808Y-38239883D01*
X37357778Y-38234818D01*
X37365607Y-38226990D01*
X37402290Y-38202478D01*
X37477698Y-38147692D01*
X37505436Y-38133558D01*
X37528603Y-38118079D01*
X37567165Y-38102105D01*
X37617467Y-38076476D01*
X37671156Y-38059031D01*
X37709715Y-38043060D01*
X37737041Y-38037624D01*
X37766644Y-38028006D01*
X37858671Y-38013430D01*
X37901983Y-38004815D01*
X37913066Y-38004815D01*
X37921571Y-38003468D01*
X38078429Y-38003468D01*
X38086934Y-38004815D01*
G37*
G36*
X62303479Y-37135919D02*
G01*
X62497488Y-37198957D01*
X62679248Y-37291568D01*
X62844282Y-37411472D01*
X62988528Y-37555718D01*
X63108432Y-37720752D01*
X63201043Y-37902512D01*
X63264081Y-38096521D01*
X63295993Y-38298003D01*
X63295993Y-38501997D01*
X63264081Y-38703479D01*
X63201043Y-38897488D01*
X63108432Y-39079248D01*
X62988528Y-39244282D01*
X62844282Y-39388528D01*
X62679248Y-39508432D01*
X62497488Y-39601043D01*
X62303479Y-39664081D01*
X62101997Y-39695993D01*
X61898003Y-39695993D01*
X61696521Y-39664081D01*
X61502512Y-39601043D01*
X61320752Y-39508432D01*
X61155718Y-39388528D01*
X61011472Y-39244282D01*
X60891568Y-39079248D01*
X60798957Y-38897488D01*
X60735919Y-38703479D01*
X60704007Y-38501997D01*
X60704007Y-38298003D01*
X60735919Y-38096521D01*
X60798957Y-37902512D01*
X60891568Y-37720752D01*
X61011472Y-37555718D01*
X61155718Y-37411472D01*
X61320752Y-37291568D01*
X61502512Y-37198957D01*
X61696521Y-37135919D01*
X61898003Y-37104007D01*
X62101997Y-37104007D01*
X62303479Y-37135919D01*
G37*
G36*
X77831807Y-35044538D02*
G01*
X78018354Y-35105151D01*
X78193123Y-35194200D01*
X78351810Y-35309493D01*
X78490507Y-35448190D01*
X78605800Y-35606877D01*
X78694849Y-35781646D01*
X78755462Y-35968193D01*
X78786147Y-36161926D01*
X78786147Y-36358074D01*
X78755462Y-36551807D01*
X78694849Y-36738354D01*
X78605800Y-36913123D01*
X78490507Y-37071810D01*
X78351810Y-37210507D01*
X78193123Y-37325800D01*
X78018354Y-37414849D01*
X77831807Y-37475462D01*
X77638074Y-37506147D01*
X77441926Y-37506147D01*
X77248193Y-37475462D01*
X77061646Y-37414849D01*
X76886877Y-37325800D01*
X76728190Y-37210507D01*
X76589493Y-37071810D01*
X76474200Y-36913123D01*
X76385151Y-36738354D01*
X76324538Y-36551807D01*
X76293853Y-36358074D01*
X76293853Y-36161926D01*
X76324538Y-35968193D01*
X76385151Y-35781646D01*
X76474200Y-35606877D01*
X76589493Y-35448190D01*
X76728190Y-35309493D01*
X76886877Y-35194200D01*
X77061646Y-35105151D01*
X77248193Y-35044538D01*
X77441926Y-35013853D01*
X77638074Y-35013853D01*
X77831807Y-35044538D01*
G37*
G36*
X66291807Y-32434538D02*
G01*
X66478354Y-32495151D01*
X66653123Y-32584200D01*
X66811810Y-32699493D01*
X66950507Y-32838190D01*
X67065800Y-32996877D01*
X67154849Y-33171646D01*
X67215462Y-33358193D01*
X67246147Y-33551926D01*
X67246147Y-33748074D01*
X67215462Y-33941807D01*
X67154849Y-34128354D01*
X67065800Y-34303123D01*
X66950507Y-34461810D01*
X66811810Y-34600507D01*
X66653123Y-34715800D01*
X66478354Y-34804849D01*
X66291807Y-34865462D01*
X66098074Y-34896147D01*
X65901926Y-34896147D01*
X65708193Y-34865462D01*
X65521646Y-34804849D01*
X65346877Y-34715800D01*
X65188190Y-34600507D01*
X65049493Y-34461810D01*
X64934200Y-34303123D01*
X64845151Y-34128354D01*
X64784538Y-33941807D01*
X64753853Y-33748074D01*
X64753853Y-33551926D01*
X64784538Y-33358193D01*
X64845151Y-33171646D01*
X64934200Y-32996877D01*
X65049493Y-32838190D01*
X65188190Y-32699493D01*
X65346877Y-32584200D01*
X65521646Y-32495151D01*
X65708193Y-32434538D01*
X65901926Y-32403853D01*
X66098074Y-32403853D01*
X66291807Y-32434538D01*
G37*
G36*
X75971634Y-30953806D02*
G01*
X75987855Y-30964645D01*
X75998694Y-30980866D01*
X76002500Y-31000000D01*
X76002500Y-33000000D01*
X75998694Y-33019134D01*
X75987855Y-33035355D01*
X75971634Y-33046194D01*
X75952500Y-33050000D01*
X74047500Y-33050000D01*
X74028366Y-33046194D01*
X74012145Y-33035355D01*
X74001306Y-33019134D01*
X73997500Y-33000000D01*
X73997500Y-31000000D01*
X74001306Y-30980866D01*
X74012145Y-30964645D01*
X74028366Y-30953806D01*
X74047500Y-30950000D01*
X75952500Y-30950000D01*
X75971634Y-30953806D01*
G37*
G36*
X77627156Y-30954827D02*
G01*
X77638262Y-30954827D01*
X77681664Y-30963460D01*
X77773938Y-30978075D01*
X77803616Y-30987718D01*
X77831010Y-30993167D01*
X77869665Y-31009178D01*
X77923492Y-31026668D01*
X77973923Y-31052364D01*
X78012575Y-31068374D01*
X78035792Y-31083887D01*
X78063602Y-31098057D01*
X78139199Y-31152981D01*
X78175979Y-31177557D01*
X78183828Y-31185406D01*
X78190817Y-31190484D01*
X78302015Y-31301682D01*
X78307092Y-31308670D01*
X78314943Y-31316521D01*
X78339521Y-31353305D01*
X78394442Y-31428897D01*
X78408610Y-31456704D01*
X78424126Y-31479925D01*
X78440137Y-31518581D01*
X78465831Y-31569007D01*
X78483318Y-31622826D01*
X78499333Y-31661490D01*
X78504783Y-31688889D01*
X78514424Y-31718561D01*
X78529037Y-31810823D01*
X78537673Y-31854238D01*
X78538463Y-31870339D01*
X78539409Y-31876306D01*
X78542015Y-31942646D01*
X78542500Y-31952500D01*
X78542500Y-32047500D01*
X78542015Y-32057357D01*
X78539409Y-32123693D01*
X78538464Y-32129659D01*
X78537673Y-32145762D01*
X78529036Y-32189180D01*
X78514424Y-32281438D01*
X78504783Y-32311108D01*
X78499333Y-32338510D01*
X78483316Y-32377176D01*
X78465831Y-32430992D01*
X78440140Y-32481413D01*
X78424126Y-32520075D01*
X78408608Y-32543299D01*
X78394442Y-32571102D01*
X78339529Y-32646682D01*
X78314943Y-32683479D01*
X78307089Y-32691332D01*
X78302015Y-32698317D01*
X78190817Y-32809515D01*
X78183832Y-32814589D01*
X78175979Y-32822443D01*
X78139182Y-32847029D01*
X78063602Y-32901942D01*
X78035799Y-32916108D01*
X78012575Y-32931626D01*
X77973913Y-32947640D01*
X77923492Y-32973331D01*
X77869676Y-32990816D01*
X77831010Y-33006833D01*
X77803608Y-33012283D01*
X77773938Y-33021924D01*
X77681674Y-33036537D01*
X77638262Y-33045173D01*
X77627156Y-33045173D01*
X77618626Y-33046524D01*
X77461374Y-33046524D01*
X77452844Y-33045173D01*
X77441738Y-33045173D01*
X77398326Y-33036537D01*
X77306061Y-33021924D01*
X77276389Y-33012283D01*
X77248990Y-33006833D01*
X77210326Y-32990818D01*
X77156507Y-32973331D01*
X77106081Y-32947637D01*
X77067425Y-32931626D01*
X77044204Y-32916110D01*
X77016397Y-32901942D01*
X76940805Y-32847021D01*
X76904021Y-32822443D01*
X76896170Y-32814592D01*
X76889182Y-32809515D01*
X76777984Y-32698317D01*
X76772906Y-32691328D01*
X76765057Y-32683479D01*
X76740481Y-32646699D01*
X76685557Y-32571102D01*
X76671387Y-32543292D01*
X76655874Y-32520075D01*
X76639864Y-32481423D01*
X76614168Y-32430992D01*
X76596678Y-32377165D01*
X76580667Y-32338510D01*
X76575218Y-32311116D01*
X76565575Y-32281438D01*
X76550958Y-32189155D01*
X76542327Y-32145762D01*
X76541536Y-32129668D01*
X76540590Y-32123693D01*
X76537983Y-32057341D01*
X76537500Y-32047500D01*
X76537500Y-31952500D01*
X76537983Y-31942662D01*
X76540590Y-31876306D01*
X76541536Y-31870330D01*
X76542327Y-31854238D01*
X76550957Y-31810848D01*
X76565575Y-31718561D01*
X76575218Y-31688881D01*
X76580667Y-31661490D01*
X76596677Y-31622837D01*
X76614168Y-31569007D01*
X76639866Y-31518570D01*
X76655874Y-31479925D01*
X76671385Y-31456710D01*
X76685557Y-31428897D01*
X76740490Y-31353287D01*
X76765057Y-31316521D01*
X76772904Y-31308673D01*
X76777984Y-31301682D01*
X76889182Y-31190484D01*
X76896173Y-31185404D01*
X76904021Y-31177557D01*
X76940787Y-31152990D01*
X77016397Y-31098057D01*
X77044210Y-31083885D01*
X77067425Y-31068374D01*
X77106070Y-31052366D01*
X77156507Y-31026668D01*
X77210337Y-31009177D01*
X77248990Y-30993167D01*
X77276381Y-30987718D01*
X77306061Y-30978075D01*
X77398336Y-30963460D01*
X77441738Y-30954827D01*
X77452844Y-30954827D01*
X77461374Y-30953476D01*
X77618626Y-30953476D01*
X77627156Y-30954827D01*
G37*
G36*
X80167156Y-30954827D02*
G01*
X80178262Y-30954827D01*
X80221664Y-30963460D01*
X80313938Y-30978075D01*
X80343616Y-30987718D01*
X80371010Y-30993167D01*
X80409665Y-31009178D01*
X80463492Y-31026668D01*
X80513923Y-31052364D01*
X80552575Y-31068374D01*
X80575792Y-31083887D01*
X80603602Y-31098057D01*
X80679199Y-31152981D01*
X80715979Y-31177557D01*
X80723828Y-31185406D01*
X80730817Y-31190484D01*
X80842015Y-31301682D01*
X80847092Y-31308670D01*
X80854943Y-31316521D01*
X80879521Y-31353305D01*
X80934442Y-31428897D01*
X80948610Y-31456704D01*
X80964126Y-31479925D01*
X80980137Y-31518581D01*
X81005831Y-31569007D01*
X81023318Y-31622826D01*
X81039333Y-31661490D01*
X81044783Y-31688889D01*
X81054424Y-31718561D01*
X81069037Y-31810823D01*
X81077673Y-31854238D01*
X81078463Y-31870339D01*
X81079409Y-31876306D01*
X81082015Y-31942646D01*
X81082500Y-31952500D01*
X81082500Y-32047500D01*
X81082015Y-32057357D01*
X81079409Y-32123693D01*
X81078464Y-32129659D01*
X81077673Y-32145762D01*
X81069036Y-32189180D01*
X81054424Y-32281438D01*
X81044783Y-32311108D01*
X81039333Y-32338510D01*
X81023316Y-32377176D01*
X81005831Y-32430992D01*
X80980140Y-32481413D01*
X80964126Y-32520075D01*
X80948608Y-32543299D01*
X80934442Y-32571102D01*
X80879529Y-32646682D01*
X80854943Y-32683479D01*
X80847089Y-32691332D01*
X80842015Y-32698317D01*
X80730817Y-32809515D01*
X80723832Y-32814589D01*
X80715979Y-32822443D01*
X80679182Y-32847029D01*
X80603602Y-32901942D01*
X80575799Y-32916108D01*
X80552575Y-32931626D01*
X80513913Y-32947640D01*
X80463492Y-32973331D01*
X80409676Y-32990816D01*
X80371010Y-33006833D01*
X80343608Y-33012283D01*
X80313938Y-33021924D01*
X80221674Y-33036537D01*
X80178262Y-33045173D01*
X80167156Y-33045173D01*
X80158626Y-33046524D01*
X80001374Y-33046524D01*
X79992844Y-33045173D01*
X79981738Y-33045173D01*
X79938326Y-33036537D01*
X79846061Y-33021924D01*
X79816389Y-33012283D01*
X79788990Y-33006833D01*
X79750326Y-32990818D01*
X79696507Y-32973331D01*
X79646081Y-32947637D01*
X79607425Y-32931626D01*
X79584204Y-32916110D01*
X79556397Y-32901942D01*
X79480805Y-32847021D01*
X79444021Y-32822443D01*
X79436170Y-32814592D01*
X79429182Y-32809515D01*
X79317984Y-32698317D01*
X79312906Y-32691328D01*
X79305057Y-32683479D01*
X79280481Y-32646699D01*
X79225557Y-32571102D01*
X79211387Y-32543292D01*
X79195874Y-32520075D01*
X79179864Y-32481423D01*
X79154168Y-32430992D01*
X79136678Y-32377165D01*
X79120667Y-32338510D01*
X79115218Y-32311116D01*
X79105575Y-32281438D01*
X79090958Y-32189155D01*
X79082327Y-32145762D01*
X79081536Y-32129668D01*
X79080590Y-32123693D01*
X79077983Y-32057341D01*
X79077500Y-32047500D01*
X79077500Y-31952500D01*
X79077983Y-31942662D01*
X79080590Y-31876306D01*
X79081536Y-31870330D01*
X79082327Y-31854238D01*
X79090957Y-31810848D01*
X79105575Y-31718561D01*
X79115218Y-31688881D01*
X79120667Y-31661490D01*
X79136677Y-31622837D01*
X79154168Y-31569007D01*
X79179866Y-31518570D01*
X79195874Y-31479925D01*
X79211385Y-31456710D01*
X79225557Y-31428897D01*
X79280490Y-31353287D01*
X79305057Y-31316521D01*
X79312904Y-31308673D01*
X79317984Y-31301682D01*
X79429182Y-31190484D01*
X79436173Y-31185404D01*
X79444021Y-31177557D01*
X79480787Y-31152990D01*
X79556397Y-31098057D01*
X79584210Y-31083885D01*
X79607425Y-31068374D01*
X79646070Y-31052366D01*
X79696507Y-31026668D01*
X79750337Y-31009177D01*
X79788990Y-30993167D01*
X79816381Y-30987718D01*
X79846061Y-30978075D01*
X79938336Y-30963460D01*
X79981738Y-30954827D01*
X79992844Y-30954827D01*
X80001374Y-30953476D01*
X80158626Y-30953476D01*
X80167156Y-30954827D01*
G37*
G36*
X38086934Y-30004815D02*
G01*
X38098017Y-30004815D01*
X38141329Y-30013430D01*
X38233355Y-30028006D01*
X38262956Y-30037623D01*
X38290285Y-30043060D01*
X38328846Y-30059032D01*
X38382532Y-30076476D01*
X38432828Y-30102103D01*
X38471397Y-30118079D01*
X38494567Y-30133560D01*
X38522301Y-30147692D01*
X38597696Y-30202470D01*
X38634393Y-30226990D01*
X38642224Y-30234821D01*
X38649191Y-30239883D01*
X38760116Y-30350808D01*
X38765177Y-30357774D01*
X38773010Y-30365607D01*
X38797532Y-30402308D01*
X38852307Y-30477698D01*
X38866437Y-30505429D01*
X38881921Y-30528603D01*
X38897898Y-30567176D01*
X38923523Y-30617467D01*
X38940964Y-30671145D01*
X38956940Y-30709715D01*
X38962377Y-30737049D01*
X38971993Y-30766644D01*
X38986567Y-30858661D01*
X38995185Y-30901983D01*
X38995185Y-30913066D01*
X38996532Y-30921571D01*
X38996532Y-31078428D01*
X38995185Y-31086932D01*
X38995185Y-31098017D01*
X38986567Y-31141341D01*
X38971993Y-31233355D01*
X38962377Y-31262948D01*
X38956940Y-31290285D01*
X38940962Y-31328858D01*
X38923523Y-31382532D01*
X38897900Y-31432818D01*
X38881921Y-31471397D01*
X38866434Y-31494573D01*
X38852307Y-31522301D01*
X38797541Y-31597679D01*
X38773010Y-31634393D01*
X38765174Y-31642228D01*
X38760116Y-31649191D01*
X38649191Y-31760116D01*
X38642228Y-31765174D01*
X38634393Y-31773010D01*
X38597679Y-31797541D01*
X38522301Y-31852307D01*
X38494573Y-31866434D01*
X38471397Y-31881921D01*
X38432818Y-31897900D01*
X38382532Y-31923523D01*
X38328858Y-31940962D01*
X38290285Y-31956940D01*
X38262948Y-31962377D01*
X38233355Y-31971993D01*
X38141339Y-31986567D01*
X38098017Y-31995185D01*
X38086933Y-31995185D01*
X38078429Y-31996532D01*
X37921571Y-31996532D01*
X37913067Y-31995185D01*
X37901983Y-31995185D01*
X37858661Y-31986567D01*
X37766644Y-31971993D01*
X37737049Y-31962377D01*
X37709715Y-31956940D01*
X37671145Y-31940964D01*
X37617467Y-31923523D01*
X37567176Y-31897898D01*
X37528603Y-31881921D01*
X37505429Y-31866437D01*
X37477698Y-31852307D01*
X37402308Y-31797532D01*
X37365607Y-31773010D01*
X37357774Y-31765177D01*
X37350808Y-31760116D01*
X37239883Y-31649191D01*
X37234821Y-31642224D01*
X37226990Y-31634393D01*
X37202470Y-31597696D01*
X37147692Y-31522301D01*
X37133560Y-31494567D01*
X37118079Y-31471397D01*
X37102103Y-31432828D01*
X37076476Y-31382532D01*
X37059032Y-31328846D01*
X37043060Y-31290285D01*
X37037623Y-31262956D01*
X37028006Y-31233355D01*
X37013430Y-31141331D01*
X37004815Y-31098017D01*
X37004815Y-31086932D01*
X37003468Y-31078428D01*
X37003468Y-30921571D01*
X37004815Y-30913066D01*
X37004815Y-30901983D01*
X37013430Y-30858671D01*
X37028006Y-30766644D01*
X37037624Y-30737041D01*
X37043060Y-30709715D01*
X37059031Y-30671156D01*
X37076476Y-30617467D01*
X37102105Y-30567165D01*
X37118079Y-30528603D01*
X37133558Y-30505436D01*
X37147692Y-30477698D01*
X37202478Y-30402290D01*
X37226990Y-30365607D01*
X37234818Y-30357778D01*
X37239883Y-30350808D01*
X37350808Y-30239883D01*
X37357778Y-30234818D01*
X37365607Y-30226990D01*
X37402290Y-30202478D01*
X37477698Y-30147692D01*
X37505436Y-30133558D01*
X37528603Y-30118079D01*
X37567165Y-30102105D01*
X37617467Y-30076476D01*
X37671156Y-30059031D01*
X37709715Y-30043060D01*
X37737041Y-30037624D01*
X37766644Y-30028006D01*
X37858671Y-30013430D01*
X37901983Y-30004815D01*
X37913066Y-30004815D01*
X37921571Y-30003468D01*
X38078429Y-30003468D01*
X38086934Y-30004815D01*
G37*
G36*
X45232228Y-28234448D02*
G01*
X45377117Y-28294463D01*
X45507515Y-28381592D01*
X45618408Y-28492485D01*
X45705537Y-28622883D01*
X45765552Y-28767772D01*
X45796148Y-28921586D01*
X45796148Y-29078414D01*
X45765552Y-29232228D01*
X45705537Y-29377117D01*
X45618408Y-29507515D01*
X45507515Y-29618408D01*
X45377117Y-29705537D01*
X45232228Y-29765552D01*
X45078414Y-29796148D01*
X44921586Y-29796148D01*
X44767772Y-29765552D01*
X44622883Y-29705537D01*
X44492485Y-29618408D01*
X44381592Y-29507515D01*
X44294463Y-29377117D01*
X44234448Y-29232228D01*
X44203852Y-29078414D01*
X44203852Y-28921586D01*
X44234448Y-28767772D01*
X44294463Y-28622883D01*
X44381592Y-28492485D01*
X44492485Y-28381592D01*
X44622883Y-28294463D01*
X44767772Y-28234448D01*
X44921586Y-28203852D01*
X45078414Y-28203852D01*
X45232228Y-28234448D01*
G37*
G36*
X33232228Y-21234448D02*
G01*
X33377117Y-21294463D01*
X33507515Y-21381592D01*
X33618408Y-21492485D01*
X33705537Y-21622883D01*
X33765552Y-21767772D01*
X33796148Y-21921586D01*
X33796148Y-22078414D01*
X33765552Y-22232228D01*
X33705537Y-22377117D01*
X33618408Y-22507515D01*
X33507515Y-22618408D01*
X33377117Y-22705537D01*
X33232228Y-22765552D01*
X33078414Y-22796148D01*
X32921586Y-22796148D01*
X32767772Y-22765552D01*
X32622883Y-22705537D01*
X32492485Y-22618408D01*
X32381592Y-22507515D01*
X32294463Y-22377117D01*
X32234448Y-22232228D01*
X32203852Y-22078414D01*
X32203852Y-21921586D01*
X32234448Y-21767772D01*
X32294463Y-21622883D01*
X32381592Y-21492485D01*
X32492485Y-21381592D01*
X32622883Y-21294463D01*
X32767772Y-21234448D01*
X32921586Y-21203852D01*
X33078414Y-21203852D01*
X33232228Y-21234448D01*
G37*
G36*
X47232228Y-21234448D02*
G01*
X47377117Y-21294463D01*
X47507515Y-21381592D01*
X47618408Y-21492485D01*
X47705537Y-21622883D01*
X47765552Y-21767772D01*
X47796148Y-21921586D01*
X47796148Y-22078414D01*
X47765552Y-22232228D01*
X47705537Y-22377117D01*
X47618408Y-22507515D01*
X47507515Y-22618408D01*
X47377117Y-22705537D01*
X47232228Y-22765552D01*
X47078414Y-22796148D01*
X46921586Y-22796148D01*
X46767772Y-22765552D01*
X46622883Y-22705537D01*
X46492485Y-22618408D01*
X46381592Y-22507515D01*
X46294463Y-22377117D01*
X46234448Y-22232228D01*
X46203852Y-22078414D01*
X46203852Y-21921586D01*
X46234448Y-21767772D01*
X46294463Y-21622883D01*
X46381592Y-21492485D01*
X46492485Y-21381592D01*
X46622883Y-21294463D01*
X46767772Y-21234448D01*
X46921586Y-21203852D01*
X47078414Y-21203852D01*
X47232228Y-21234448D01*
G37*
G36*
X70232228Y-21234448D02*
G01*
X70377117Y-21294463D01*
X70507515Y-21381592D01*
X70618408Y-21492485D01*
X70705537Y-21622883D01*
X70765552Y-21767772D01*
X70796148Y-21921586D01*
X70796148Y-22078414D01*
X70765552Y-22232228D01*
X70705537Y-22377117D01*
X70618408Y-22507515D01*
X70507515Y-22618408D01*
X70377117Y-22705537D01*
X70232228Y-22765552D01*
X70078414Y-22796148D01*
X69921586Y-22796148D01*
X69767772Y-22765552D01*
X69622883Y-22705537D01*
X69492485Y-22618408D01*
X69381592Y-22507515D01*
X69294463Y-22377117D01*
X69234448Y-22232228D01*
X69203852Y-22078414D01*
X69203852Y-21921586D01*
X69234448Y-21767772D01*
X69294463Y-21622883D01*
X69381592Y-21492485D01*
X69492485Y-21381592D01*
X69622883Y-21294463D01*
X69767772Y-21234448D01*
X69921586Y-21203852D01*
X70078414Y-21203852D01*
X70232228Y-21234448D01*
G37*
G36*
X48269134Y-14703806D02*
G01*
X48285355Y-14714645D01*
X48296194Y-14730866D01*
X48300000Y-14750000D01*
X48300000Y-17250000D01*
X48296194Y-17269134D01*
X48285355Y-17285355D01*
X48269134Y-17296194D01*
X48250000Y-17300000D01*
X45750000Y-17300000D01*
X45730866Y-17296194D01*
X45714645Y-17285355D01*
X45703806Y-17269134D01*
X45700000Y-17250000D01*
X45700000Y-14750000D01*
X45703806Y-14730866D01*
X45714645Y-14714645D01*
X45730866Y-14703806D01*
X45750000Y-14700000D01*
X48250000Y-14700000D01*
X48269134Y-14703806D01*
G37*
G36*
X22246742Y-12806601D02*
G01*
X22400687Y-12870367D01*
X22539234Y-12962941D01*
X22657059Y-13080766D01*
X22749633Y-13219313D01*
X22813399Y-13373258D01*
X22845907Y-13536685D01*
X22845907Y-13703315D01*
X22813399Y-13866742D01*
X22749633Y-14020687D01*
X22657059Y-14159234D01*
X22539234Y-14277059D01*
X22400687Y-14369633D01*
X22246742Y-14433399D01*
X22083315Y-14465907D01*
X21916685Y-14465907D01*
X21753258Y-14433399D01*
X21599313Y-14369633D01*
X21460766Y-14277059D01*
X21342941Y-14159234D01*
X21250367Y-14020687D01*
X21186601Y-13866742D01*
X21154093Y-13703315D01*
X21154093Y-13536685D01*
X21186601Y-13373258D01*
X21250367Y-13219313D01*
X21342941Y-13080766D01*
X21460766Y-12962941D01*
X21599313Y-12870367D01*
X21753258Y-12806601D01*
X21916685Y-12774093D01*
X22083315Y-12774093D01*
X22246742Y-12806601D01*
G37*
G36*
X29866742Y-12806601D02*
G01*
X30020687Y-12870367D01*
X30159234Y-12962941D01*
X30277059Y-13080766D01*
X30369633Y-13219313D01*
X30433399Y-13373258D01*
X30465907Y-13536685D01*
X30465907Y-13703315D01*
X30433399Y-13866742D01*
X30369633Y-14020687D01*
X30277059Y-14159234D01*
X30159234Y-14277059D01*
X30020687Y-14369633D01*
X29866742Y-14433399D01*
X29703315Y-14465907D01*
X29536685Y-14465907D01*
X29373258Y-14433399D01*
X29219313Y-14369633D01*
X29080766Y-14277059D01*
X28962941Y-14159234D01*
X28870367Y-14020687D01*
X28806601Y-13866742D01*
X28774093Y-13703315D01*
X28774093Y-13536685D01*
X28806601Y-13373258D01*
X28870367Y-13219313D01*
X28962941Y-13080766D01*
X29080766Y-12962941D01*
X29219313Y-12870367D01*
X29373258Y-12806601D01*
X29536685Y-12774093D01*
X29703315Y-12774093D01*
X29866742Y-12806601D01*
G37*
G36*
X22246742Y-10266601D02*
G01*
X22400687Y-10330367D01*
X22539234Y-10422941D01*
X22657059Y-10540766D01*
X22749633Y-10679313D01*
X22813399Y-10833258D01*
X22845907Y-10996685D01*
X22845907Y-11163315D01*
X22813399Y-11326742D01*
X22749633Y-11480687D01*
X22657059Y-11619234D01*
X22539234Y-11737059D01*
X22400687Y-11829633D01*
X22246742Y-11893399D01*
X22083315Y-11925907D01*
X21916685Y-11925907D01*
X21753258Y-11893399D01*
X21599313Y-11829633D01*
X21460766Y-11737059D01*
X21342941Y-11619234D01*
X21250367Y-11480687D01*
X21186601Y-11326742D01*
X21154093Y-11163315D01*
X21154093Y-10996685D01*
X21186601Y-10833258D01*
X21250367Y-10679313D01*
X21342941Y-10540766D01*
X21460766Y-10422941D01*
X21599313Y-10330367D01*
X21753258Y-10266601D01*
X21916685Y-10234093D01*
X22083315Y-10234093D01*
X22246742Y-10266601D01*
G37*
G36*
X29866742Y-10266601D02*
G01*
X30020687Y-10330367D01*
X30159234Y-10422941D01*
X30277059Y-10540766D01*
X30369633Y-10679313D01*
X30433399Y-10833258D01*
X30465907Y-10996685D01*
X30465907Y-11163315D01*
X30433399Y-11326742D01*
X30369633Y-11480687D01*
X30277059Y-11619234D01*
X30159234Y-11737059D01*
X30020687Y-11829633D01*
X29866742Y-11893399D01*
X29703315Y-11925907D01*
X29536685Y-11925907D01*
X29373258Y-11893399D01*
X29219313Y-11829633D01*
X29080766Y-11737059D01*
X28962941Y-11619234D01*
X28870367Y-11480687D01*
X28806601Y-11326742D01*
X28774093Y-11163315D01*
X28774093Y-10996685D01*
X28806601Y-10833258D01*
X28870367Y-10679313D01*
X28962941Y-10540766D01*
X29080766Y-10422941D01*
X29219313Y-10330367D01*
X29373258Y-10266601D01*
X29536685Y-10234093D01*
X29703315Y-10234093D01*
X29866742Y-10266601D01*
G37*
G36*
X38618685Y-8967969D02*
G01*
X38634461Y-8974934D01*
X38642222Y-8976164D01*
X38674542Y-8992632D01*
X38719541Y-9012501D01*
X38797499Y-9090459D01*
X38817370Y-9135464D01*
X38833835Y-9167777D01*
X38835063Y-9175535D01*
X38842031Y-9191315D01*
X38850000Y-9260000D01*
X38850000Y-10360000D01*
X38842031Y-10428685D01*
X38835063Y-10444464D01*
X38833835Y-10452222D01*
X38817373Y-10484528D01*
X38797499Y-10529541D01*
X38719541Y-10607499D01*
X38674528Y-10627373D01*
X38642222Y-10643835D01*
X38634464Y-10645063D01*
X38618685Y-10652031D01*
X38550000Y-10660000D01*
X37450000Y-10660000D01*
X37381315Y-10652031D01*
X37365535Y-10645063D01*
X37357777Y-10643835D01*
X37325464Y-10627370D01*
X37280459Y-10607499D01*
X37202501Y-10529541D01*
X37182632Y-10484542D01*
X37166164Y-10452222D01*
X37164934Y-10444461D01*
X37157969Y-10428685D01*
X37150000Y-10360000D01*
X37150000Y-9260000D01*
X37157969Y-9191315D01*
X37164934Y-9175539D01*
X37166164Y-9167777D01*
X37182635Y-9135449D01*
X37202501Y-9090459D01*
X37280459Y-9012501D01*
X37325449Y-8992635D01*
X37357777Y-8976164D01*
X37365539Y-8974934D01*
X37381315Y-8967969D01*
X37450000Y-8960000D01*
X38550000Y-8960000D01*
X38618685Y-8967969D01*
G37*
G36*
X33246742Y-8996601D02*
G01*
X33400687Y-9060367D01*
X33539234Y-9152941D01*
X33657059Y-9270766D01*
X33749633Y-9409313D01*
X33813399Y-9563258D01*
X33845907Y-9726685D01*
X33845907Y-9893315D01*
X33813399Y-10056742D01*
X33749633Y-10210687D01*
X33657059Y-10349234D01*
X33539234Y-10467059D01*
X33400687Y-10559633D01*
X33246742Y-10623399D01*
X33083315Y-10655907D01*
X32916685Y-10655907D01*
X32753258Y-10623399D01*
X32599313Y-10559633D01*
X32460766Y-10467059D01*
X32342941Y-10349234D01*
X32250367Y-10210687D01*
X32186601Y-10056742D01*
X32154093Y-9893315D01*
X32154093Y-9726685D01*
X32186601Y-9563258D01*
X32250367Y-9409313D01*
X32342941Y-9270766D01*
X32460766Y-9152941D01*
X32599313Y-9060367D01*
X32753258Y-8996601D01*
X32916685Y-8964093D01*
X33083315Y-8964093D01*
X33246742Y-8996601D01*
G37*
G36*
X4269134Y-7703806D02*
G01*
X4285355Y-7714645D01*
X4296194Y-7730866D01*
X4300000Y-7750000D01*
X4300000Y-10250000D01*
X4296194Y-10269134D01*
X4285355Y-10285355D01*
X4269134Y-10296194D01*
X4250000Y-10300000D01*
X1750000Y-10300000D01*
X1730866Y-10296194D01*
X1714645Y-10285355D01*
X1703806Y-10269134D01*
X1700000Y-10250000D01*
X1700000Y-7750000D01*
X1703806Y-7730866D01*
X1714645Y-7714645D01*
X1730866Y-7703806D01*
X1750000Y-7700000D01*
X4250000Y-7700000D01*
X4269134Y-7703806D01*
G37*
G36*
X22246742Y-7726601D02*
G01*
X22400687Y-7790367D01*
X22539234Y-7882941D01*
X22657059Y-8000766D01*
X22749633Y-8139313D01*
X22813399Y-8293258D01*
X22845907Y-8456685D01*
X22845907Y-8623315D01*
X22813399Y-8786742D01*
X22749633Y-8940687D01*
X22657059Y-9079234D01*
X22539234Y-9197059D01*
X22400687Y-9289633D01*
X22246742Y-9353399D01*
X22083315Y-9385907D01*
X21916685Y-9385907D01*
X21753258Y-9353399D01*
X21599313Y-9289633D01*
X21460766Y-9197059D01*
X21342941Y-9079234D01*
X21250367Y-8940687D01*
X21186601Y-8786742D01*
X21154093Y-8623315D01*
X21154093Y-8456685D01*
X21186601Y-8293258D01*
X21250367Y-8139313D01*
X21342941Y-8000766D01*
X21460766Y-7882941D01*
X21599313Y-7790367D01*
X21753258Y-7726601D01*
X21916685Y-7694093D01*
X22083315Y-7694093D01*
X22246742Y-7726601D01*
G37*
G36*
X29866742Y-7726601D02*
G01*
X30020687Y-7790367D01*
X30159234Y-7882941D01*
X30277059Y-8000766D01*
X30369633Y-8139313D01*
X30433399Y-8293258D01*
X30465907Y-8456685D01*
X30465907Y-8623315D01*
X30433399Y-8786742D01*
X30369633Y-8940687D01*
X30277059Y-9079234D01*
X30159234Y-9197059D01*
X30020687Y-9289633D01*
X29866742Y-9353399D01*
X29703315Y-9385907D01*
X29536685Y-9385907D01*
X29373258Y-9353399D01*
X29219313Y-9289633D01*
X29080766Y-9197059D01*
X28962941Y-9079234D01*
X28870367Y-8940687D01*
X28806601Y-8786742D01*
X28774093Y-8623315D01*
X28774093Y-8456685D01*
X28806601Y-8293258D01*
X28870367Y-8139313D01*
X28962941Y-8000766D01*
X29080766Y-7882941D01*
X29219313Y-7790367D01*
X29373258Y-7726601D01*
X29536685Y-7694093D01*
X29703315Y-7694093D01*
X29866742Y-7726601D01*
G37*
G36*
X38246742Y-6496601D02*
G01*
X38400687Y-6560367D01*
X38539234Y-6652941D01*
X38657059Y-6770766D01*
X38749633Y-6909313D01*
X38813399Y-7063258D01*
X38845907Y-7226685D01*
X38845907Y-7393315D01*
X38813399Y-7556742D01*
X38749633Y-7710687D01*
X38657059Y-7849234D01*
X38539234Y-7967059D01*
X38400687Y-8059633D01*
X38246742Y-8123399D01*
X38083315Y-8155907D01*
X37916685Y-8155907D01*
X37753258Y-8123399D01*
X37599313Y-8059633D01*
X37460766Y-7967059D01*
X37342941Y-7849234D01*
X37250367Y-7710687D01*
X37186601Y-7556742D01*
X37154093Y-7393315D01*
X37154093Y-7226685D01*
X37186601Y-7063258D01*
X37250367Y-6909313D01*
X37342941Y-6770766D01*
X37460766Y-6652941D01*
X37599313Y-6560367D01*
X37753258Y-6496601D01*
X37916685Y-6464093D01*
X38083315Y-6464093D01*
X38246742Y-6496601D01*
G37*
G36*
X22618685Y-5157969D02*
G01*
X22634461Y-5164934D01*
X22642222Y-5166164D01*
X22674542Y-5182632D01*
X22719541Y-5202501D01*
X22797499Y-5280459D01*
X22817370Y-5325464D01*
X22833835Y-5357777D01*
X22835063Y-5365535D01*
X22842031Y-5381315D01*
X22850000Y-5450000D01*
X22850000Y-6550000D01*
X22842031Y-6618685D01*
X22835063Y-6634464D01*
X22833835Y-6642222D01*
X22817373Y-6674528D01*
X22797499Y-6719541D01*
X22719541Y-6797499D01*
X22674528Y-6817373D01*
X22642222Y-6833835D01*
X22634464Y-6835063D01*
X22618685Y-6842031D01*
X22550000Y-6850000D01*
X21450000Y-6850000D01*
X21381315Y-6842031D01*
X21365535Y-6835063D01*
X21357777Y-6833835D01*
X21325464Y-6817370D01*
X21280459Y-6797499D01*
X21202501Y-6719541D01*
X21182632Y-6674542D01*
X21166164Y-6642222D01*
X21164934Y-6634461D01*
X21157969Y-6618685D01*
X21150000Y-6550000D01*
X21150000Y-5450000D01*
X21157969Y-5381315D01*
X21164934Y-5365539D01*
X21166164Y-5357777D01*
X21182635Y-5325449D01*
X21202501Y-5280459D01*
X21280459Y-5202501D01*
X21325449Y-5182635D01*
X21357777Y-5166164D01*
X21365539Y-5164934D01*
X21381315Y-5157969D01*
X21450000Y-5150000D01*
X22550000Y-5150000D01*
X22618685Y-5157969D01*
G37*
G36*
X29866742Y-5186601D02*
G01*
X30020687Y-5250367D01*
X30159234Y-5342941D01*
X30277059Y-5460766D01*
X30369633Y-5599313D01*
X30433399Y-5753258D01*
X30465907Y-5916685D01*
X30465907Y-6083315D01*
X30433399Y-6246742D01*
X30369633Y-6400687D01*
X30277059Y-6539234D01*
X30159234Y-6657059D01*
X30020687Y-6749633D01*
X29866742Y-6813399D01*
X29703315Y-6845907D01*
X29536685Y-6845907D01*
X29373258Y-6813399D01*
X29219313Y-6749633D01*
X29080766Y-6657059D01*
X28962941Y-6539234D01*
X28870367Y-6400687D01*
X28806601Y-6246742D01*
X28774093Y-6083315D01*
X28774093Y-5916685D01*
X28806601Y-5753258D01*
X28870367Y-5599313D01*
X28962941Y-5460766D01*
X29080766Y-5342941D01*
X29219313Y-5250367D01*
X29373258Y-5186601D01*
X29536685Y-5154093D01*
X29703315Y-5154093D01*
X29866742Y-5186601D01*
G37*
G36*
X33246742Y-3996601D02*
G01*
X33400687Y-4060367D01*
X33539234Y-4152941D01*
X33657059Y-4270766D01*
X33749633Y-4409313D01*
X33813399Y-4563258D01*
X33845907Y-4726685D01*
X33845907Y-4893315D01*
X33813399Y-5056742D01*
X33749633Y-5210687D01*
X33657059Y-5349234D01*
X33539234Y-5467059D01*
X33400687Y-5559633D01*
X33246742Y-5623399D01*
X33083315Y-5655907D01*
X32916685Y-5655907D01*
X32753258Y-5623399D01*
X32599313Y-5559633D01*
X32460766Y-5467059D01*
X32342941Y-5349234D01*
X32250367Y-5210687D01*
X32186601Y-5056742D01*
X32154093Y-4893315D01*
X32154093Y-4726685D01*
X32186601Y-4563258D01*
X32250367Y-4409313D01*
X32342941Y-4270766D01*
X32460766Y-4152941D01*
X32599313Y-4060367D01*
X32753258Y-3996601D01*
X32916685Y-3964093D01*
X33083315Y-3964093D01*
X33246742Y-3996601D01*
G37*
G36*
X4269134Y-2623806D02*
G01*
X4285355Y-2634645D01*
X4296194Y-2650866D01*
X4300000Y-2670000D01*
X4300000Y-5170000D01*
X4296194Y-5189134D01*
X4285355Y-5205355D01*
X4269134Y-5216194D01*
X4250000Y-5220000D01*
X1750000Y-5220000D01*
X1730866Y-5216194D01*
X1714645Y-5205355D01*
X1703806Y-5189134D01*
X1700000Y-5170000D01*
X1700000Y-2670000D01*
X1703806Y-2650866D01*
X1714645Y-2634645D01*
X1730866Y-2623806D01*
X1750000Y-2620000D01*
X4250000Y-2620000D01*
X4269134Y-2623806D01*
G37*
G36*
X8246742Y-3186601D02*
G01*
X8400687Y-3250367D01*
X8539234Y-3342941D01*
X8657059Y-3460766D01*
X8749633Y-3599313D01*
X8813399Y-3753258D01*
X8845907Y-3916685D01*
X8845907Y-4083315D01*
X8813399Y-4246742D01*
X8749633Y-4400687D01*
X8657059Y-4539234D01*
X8539234Y-4657059D01*
X8400687Y-4749633D01*
X8246742Y-4813399D01*
X8083315Y-4845907D01*
X7916685Y-4845907D01*
X7753258Y-4813399D01*
X7599313Y-4749633D01*
X7460766Y-4657059D01*
X7342941Y-4539234D01*
X7250367Y-4400687D01*
X7186601Y-4246742D01*
X7154093Y-4083315D01*
X7154093Y-3916685D01*
X7186601Y-3753258D01*
X7250367Y-3599313D01*
X7342941Y-3460766D01*
X7460766Y-3342941D01*
X7599313Y-3250367D01*
X7753258Y-3186601D01*
X7916685Y-3154093D01*
X8083315Y-3154093D01*
X8246742Y-3186601D01*
G37*
G36*
X18406742Y-3186601D02*
G01*
X18560687Y-3250367D01*
X18699234Y-3342941D01*
X18817059Y-3460766D01*
X18909633Y-3599313D01*
X18973399Y-3753258D01*
X19005907Y-3916685D01*
X19005907Y-4083315D01*
X18973399Y-4246742D01*
X18909633Y-4400687D01*
X18817059Y-4539234D01*
X18699234Y-4657059D01*
X18560687Y-4749633D01*
X18406742Y-4813399D01*
X18243315Y-4845907D01*
X18076685Y-4845907D01*
X17913258Y-4813399D01*
X17759313Y-4749633D01*
X17620766Y-4657059D01*
X17502941Y-4539234D01*
X17410367Y-4400687D01*
X17346601Y-4246742D01*
X17314093Y-4083315D01*
X17314093Y-3916685D01*
X17346601Y-3753258D01*
X17410367Y-3599313D01*
X17502941Y-3460766D01*
X17620766Y-3342941D01*
X17759313Y-3250367D01*
X17913258Y-3186601D01*
X18076685Y-3154093D01*
X18243315Y-3154093D01*
X18406742Y-3186601D01*
G37*
G36*
X48269134Y-1703806D02*
G01*
X48285355Y-1714645D01*
X48296194Y-1730866D01*
X48300000Y-1750000D01*
X48300000Y-4250000D01*
X48296194Y-4269134D01*
X48285355Y-4285355D01*
X48269134Y-4296194D01*
X48250000Y-4300000D01*
X45750000Y-4300000D01*
X45730866Y-4296194D01*
X45714645Y-4285355D01*
X45703806Y-4269134D01*
X45700000Y-4250000D01*
X45700000Y-1750000D01*
X45703806Y-1730866D01*
X45714645Y-1714645D01*
X45730866Y-1703806D01*
X45750000Y-1700000D01*
X48250000Y-1700000D01*
X48269134Y-1703806D01*
G37*
G36*
X54232228Y-2234448D02*
G01*
X54377117Y-2294463D01*
X54507515Y-2381592D01*
X54618408Y-2492485D01*
X54705537Y-2622883D01*
X54765552Y-2767772D01*
X54796148Y-2921586D01*
X54796148Y-3078414D01*
X54765552Y-3232228D01*
X54705537Y-3377117D01*
X54618408Y-3507515D01*
X54507515Y-3618408D01*
X54377117Y-3705537D01*
X54232228Y-3765552D01*
X54078414Y-3796148D01*
X53921586Y-3796148D01*
X53767772Y-3765552D01*
X53622883Y-3705537D01*
X53492485Y-3618408D01*
X53381592Y-3507515D01*
X53294463Y-3377117D01*
X53234448Y-3232228D01*
X53203852Y-3078414D01*
X53203852Y-2921586D01*
X53234448Y-2767772D01*
X53294463Y-2622883D01*
X53381592Y-2492485D01*
X53492485Y-2381592D01*
X53622883Y-2294463D01*
X53767772Y-2234448D01*
X53921586Y-2203852D01*
X54078414Y-2203852D01*
X54232228Y-2234448D01*
G37*
M02*
