%TF.GenerationSoftware,KiCad,Pcbnew,10.0.3*%
%TF.CreationDate,2026-05-17T16:56:59-05:00*%
%TF.ProjectId,igbt_pcb,69676274-5f70-4636-922e-6b696361645f,rev?*%
%TF.SameCoordinates,Original*%
%TF.FileFunction,Copper,L2,Bot*%
%TF.FilePolarity,Positive*%
%FSLAX46Y46*%
G04 Gerber Fmt 4.6, Leading zero omitted, Abs format (unit mm)*
G04 Created by KiCad (PCBNEW 10.0.3) date 2026-05-17 16:56:59*
%MOMM*%
%LPD*%
G01*
G04 APERTURE LIST*
G04 Aperture macros list*
%AMRoundRect*
0 Rectangle with rounded corners*
0 $1 Rounding radius*
0 $2 $3 $4 $5 $6 $7 $8 $9 X,Y pos of 4 corners*
0 Add a 4 corners polygon primitive as box body*
4,1,4,$2,$3,$4,$5,$6,$7,$8,$9,$2,$3,0*
0 Add four circle primitives for the rounded corners*
1,1,$1+$1,$2,$3*
1,1,$1+$1,$4,$5*
1,1,$1+$1,$6,$7*
1,1,$1+$1,$8,$9*
0 Add four rect primitives between the rounded corners*
20,1,$1+$1,$2,$3,$4,$5,0*
20,1,$1+$1,$4,$5,$6,$7,0*
20,1,$1+$1,$6,$7,$8,$9,0*
20,1,$1+$1,$8,$9,$2,$3,0*%
G04 Aperture macros list end*
%TA.AperFunction,ComponentPad*%
%ADD10C,2.400000*%
%TD*%
%TA.AperFunction,ComponentPad*%
%ADD11R,4.500000X4.500000*%
%TD*%
%TA.AperFunction,ComponentPad*%
%ADD12R,1.905000X2.000000*%
%TD*%
%TA.AperFunction,ComponentPad*%
%ADD13O,1.905000X2.000000*%
%TD*%
%TA.AperFunction,ComponentPad*%
%ADD14RoundRect,0.250001X-0.949999X-0.949999X0.949999X-0.949999X0.949999X0.949999X-0.949999X0.949999X0*%
%TD*%
%TA.AperFunction,ComponentPad*%
%ADD15RoundRect,0.250000X0.550000X-0.550000X0.550000X0.550000X-0.550000X0.550000X-0.550000X-0.550000X0*%
%TD*%
%TA.AperFunction,ComponentPad*%
%ADD16C,1.600000*%
%TD*%
%TA.AperFunction,ComponentPad*%
%ADD17C,2.500000*%
%TD*%
%TA.AperFunction,ComponentPad*%
%ADD18R,2.500000X2.500000*%
%TD*%
%TA.AperFunction,ComponentPad*%
%ADD19C,1.900000*%
%TD*%
%TA.AperFunction,ComponentPad*%
%ADD20R,1.905000X4.500000*%
%TD*%
%TA.AperFunction,ComponentPad*%
%ADD21O,1.905000X4.500000*%
%TD*%
%TA.AperFunction,ComponentPad*%
%ADD22RoundRect,0.250000X-0.550000X-0.550000X0.550000X-0.550000X0.550000X0.550000X-0.550000X0.550000X0*%
%TD*%
%TA.AperFunction,ViaPad*%
%ADD23C,0.800000*%
%TD*%
%TA.AperFunction,Conductor*%
%ADD24C,1.000000*%
%TD*%
G04 APERTURE END LIST*
D10*
%TO.P,R4,1*%
%TO.N,SNUB_INTERMEDIATE*%
X66000000Y-46350000D03*
%TO.P,R4,2*%
%TO.N,COLLECTOR*%
X66000000Y-33650000D03*
%TD*%
D11*
%TO.P,J5,1*%
%TO.N,COLLECTOR*%
X95000000Y-64000000D03*
%TD*%
D12*
%TO.P,D1,1*%
%TO.N,COLLECTOR*%
X75000000Y-32000000D03*
D13*
%TO.P,D1,2*%
%TO.N,FLYBACK_HIGH*%
X77540000Y-32000000D03*
%TO.P,D1,3*%
%TO.N,COLLECTOR*%
X80080000Y-32000000D03*
%TD*%
D11*
%TO.P,,1*%
%TO.N,POWER_GROUND*%
X75000000Y-64000000D03*
%TD*%
D14*
%TO.P,D2,1*%
%TO.N,GATE*%
X43000000Y-45000000D03*
D10*
%TO.P,D2,2*%
%TO.N,KELVIN_RETURN*%
X53160000Y-45000000D03*
%TD*%
D15*
%TO.P,C3,1*%
%TO.N,KELVIN_RETURN*%
X38000000Y-9810000D03*
D16*
%TO.P,C3,2*%
%TO.N,VCC*%
X38000000Y-7310000D03*
%TD*%
%TO.P,C2,1*%
%TO.N,KELVIN_RETURN*%
X33000000Y-9810000D03*
%TO.P,C2,2*%
%TO.N,VCC*%
X33000000Y-4810000D03*
%TD*%
D17*
%TO.P,C1,1*%
%TO.N,SNUB_INTERMEDIATE*%
X62000000Y-53600000D03*
%TO.P,C1,2*%
%TO.N,POWER_GROUND*%
X62000000Y-38400000D03*
%TD*%
D18*
%TO.P,J2,1*%
%TO.N,VCC*%
X47000000Y-3000000D03*
%TD*%
D11*
%TO.P,J4,1*%
%TO.N,POWER_GROUND*%
X50000000Y-64000000D03*
%TD*%
D18*
%TO.P,J1,1*%
%TO.N,INPUT_VPLUS*%
X3000000Y-3920000D03*
%TO.P,J1,2*%
%TO.N,INPUT_GND*%
X3000000Y-9000000D03*
%TD*%
D10*
%TO.P,R5,1*%
%TO.N,POWER_GROUND*%
X77540000Y-51500000D03*
%TO.P,R5,2*%
%TO.N,FLYBACK_HIGH*%
X77540000Y-36260000D03*
%TD*%
D19*
%TO.P,R2,1*%
%TO.N,GATE_DRIVE_HOT*%
X38000000Y-31000000D03*
%TO.P,R2,2*%
%TO.N,GATE*%
X38000000Y-39000000D03*
%TD*%
D20*
%TO.P,Q1,1*%
%TO.N,GATE*%
X45000000Y-38000000D03*
D21*
%TO.P,Q1,2*%
%TO.N,KELVIN_RETURN*%
X50080000Y-38000000D03*
%TO.P,Q1,3*%
%TO.N,POWER_GROUND*%
X52620000Y-38000000D03*
%TO.P,Q1,4*%
%TO.N,COLLECTOR*%
X55160000Y-38000000D03*
%TD*%
D16*
%TO.P,R3,1*%
%TO.N,GATE*%
X43000000Y-49000000D03*
%TO.P,R3,2*%
%TO.N,KELVIN_RETURN*%
X53160000Y-49000000D03*
%TD*%
D22*
%TO.P,U1,1*%
%TO.N,N/C*%
X22000000Y-6000000D03*
D16*
%TO.P,U1,2*%
%TO.N,LED_ANODE*%
X22000000Y-8540000D03*
%TO.P,U1,3*%
%TO.N,INPUT_GND*%
X22000000Y-11080000D03*
%TO.P,U1,4*%
%TO.N,N/C*%
X22000000Y-13620000D03*
%TO.P,U1,5*%
%TO.N,KELVIN_RETURN*%
X29620000Y-13620000D03*
%TO.P,U1,6*%
%TO.N,GATE_DRIVE_HOT*%
X29620000Y-11080000D03*
%TO.P,U1,7*%
X29620000Y-8540000D03*
%TO.P,U1,8*%
%TO.N,VCC*%
X29620000Y-6000000D03*
%TD*%
%TO.P,R1,1*%
%TO.N,INPUT_VPLUS*%
X8000000Y-4000000D03*
%TO.P,R1,2*%
%TO.N,LED_ANODE*%
X18160000Y-4000000D03*
%TD*%
D18*
%TO.P,J3,1*%
%TO.N,KELVIN_RETURN*%
X47000000Y-16000000D03*
%TD*%
D23*
%TO.N,POWER_GROUND*%
X40000000Y-60000000D03*
X35000000Y-55000000D03*
X70000000Y-60000000D03*
X70000000Y-55000000D03*
X35000000Y-50000000D03*
X55000000Y-55000000D03*
X45000000Y-50000000D03*
X55000000Y-50000000D03*
X70000000Y-50000000D03*
X45000000Y-60000000D03*
X45000000Y-55000000D03*
X55000000Y-60000000D03*
%TD*%
%TO.N,GATE_DRIVE_HOT*%
D24*
X29620000Y-8540000D02*
X29620000Y-11080000D01*
X29620000Y-11080000D02*
X33500000Y-12500000D01*
X33500000Y-12500000D02*
X38000000Y-31000000D01*
%TD*%
%TA.AperFunction,Conductor*%
%TO.N,POWER_GROUND*%
G36*
X99442539Y-520185D02*
G01*
X99488294Y-572989D01*
X99499500Y-624500D01*
X99499500Y-69375500D01*
X99479815Y-69442539D01*
X99427011Y-69488294D01*
X99375500Y-69499500D01*
X624500Y-69499500D01*
X557461Y-69479815D01*
X511706Y-69427011D01*
X500500Y-69375500D01*
X500500Y-61718513D01*
X47350000Y-61718513D01*
X47350000Y-63750000D01*
X48419652Y-63750000D01*
X48400000Y-63874077D01*
X48400000Y-64125923D01*
X48419652Y-64250000D01*
X47350001Y-64250000D01*
X47350001Y-66281479D01*
X47364835Y-66375149D01*
X47364837Y-66375155D01*
X47422356Y-66488041D01*
X47422363Y-66488050D01*
X47511949Y-66577636D01*
X47511953Y-66577639D01*
X47624855Y-66635166D01*
X47718514Y-66649999D01*
X49749999Y-66649999D01*
X49750000Y-66649998D01*
X49750000Y-65580348D01*
X49874077Y-65600000D01*
X50125923Y-65600000D01*
X50250000Y-65580348D01*
X50250000Y-66649999D01*
X52281479Y-66649999D01*
X52375149Y-66635164D01*
X52375155Y-66635162D01*
X52488041Y-66577643D01*
X52488050Y-66577636D01*
X52577636Y-66488050D01*
X52577639Y-66488046D01*
X52635166Y-66375144D01*
X52650000Y-66281486D01*
X52650000Y-64250000D01*
X51580348Y-64250000D01*
X51600000Y-64125923D01*
X51600000Y-63874077D01*
X51580348Y-63750000D01*
X52649999Y-63750000D01*
X52649999Y-61718520D01*
X52649998Y-61718513D01*
X72350000Y-61718513D01*
X72350000Y-63750000D01*
X73419652Y-63750000D01*
X73400000Y-63874077D01*
X73400000Y-64125923D01*
X73419652Y-64250000D01*
X72350001Y-64250000D01*
X72350001Y-66281479D01*
X72364835Y-66375149D01*
X72364837Y-66375155D01*
X72422356Y-66488041D01*
X72422363Y-66488050D01*
X72511949Y-66577636D01*
X72511953Y-66577639D01*
X72624855Y-66635166D01*
X72718514Y-66649999D01*
X74749999Y-66649999D01*
X74750000Y-66649998D01*
X74750000Y-65580348D01*
X74874077Y-65600000D01*
X75125923Y-65600000D01*
X75250000Y-65580348D01*
X75250000Y-66649999D01*
X77281479Y-66649999D01*
X77375149Y-66635164D01*
X77375155Y-66635162D01*
X77488041Y-66577643D01*
X77488050Y-66577636D01*
X77577636Y-66488050D01*
X77577639Y-66488046D01*
X77635166Y-66375144D01*
X77650000Y-66281486D01*
X77650000Y-64250000D01*
X76580348Y-64250000D01*
X76600000Y-64125923D01*
X76600000Y-63874077D01*
X76580348Y-63750000D01*
X77649999Y-63750000D01*
X77649999Y-61718515D01*
X77649998Y-61718512D01*
X77649950Y-61718208D01*
X77649949Y-61718203D01*
X77647404Y-61702135D01*
X92249500Y-61702135D01*
X92249500Y-66297870D01*
X92249501Y-66297876D01*
X92255908Y-66357483D01*
X92306202Y-66492328D01*
X92306206Y-66492335D01*
X92392452Y-66607544D01*
X92392455Y-66607547D01*
X92507664Y-66693793D01*
X92507671Y-66693797D01*
X92642517Y-66744091D01*
X92642516Y-66744091D01*
X92649444Y-66744835D01*
X92702127Y-66750500D01*
X97297872Y-66750499D01*
X97357483Y-66744091D01*
X97492331Y-66693796D01*
X97607546Y-66607546D01*
X97693796Y-66492331D01*
X97744091Y-66357483D01*
X97750500Y-66297873D01*
X97750499Y-61702128D01*
X97744091Y-61642517D01*
X97737501Y-61624849D01*
X97693797Y-61507671D01*
X97693793Y-61507664D01*
X97607547Y-61392455D01*
X97607544Y-61392452D01*
X97492335Y-61306206D01*
X97492328Y-61306202D01*
X97357482Y-61255908D01*
X97357483Y-61255908D01*
X97297883Y-61249501D01*
X97297881Y-61249500D01*
X97297873Y-61249500D01*
X97297864Y-61249500D01*
X92702129Y-61249500D01*
X92702123Y-61249501D01*
X92642516Y-61255908D01*
X92507671Y-61306202D01*
X92507664Y-61306206D01*
X92392455Y-61392452D01*
X92392452Y-61392455D01*
X92306206Y-61507664D01*
X92306202Y-61507671D01*
X92255908Y-61642517D01*
X92249501Y-61702116D01*
X92249501Y-61702123D01*
X92249500Y-61702135D01*
X77647404Y-61702135D01*
X77635164Y-61624849D01*
X77635162Y-61624844D01*
X77577643Y-61511958D01*
X77577636Y-61511949D01*
X77488050Y-61422363D01*
X77488046Y-61422360D01*
X77375144Y-61364833D01*
X77281486Y-61350000D01*
X75250000Y-61350000D01*
X75250000Y-62419651D01*
X75125923Y-62400000D01*
X74874077Y-62400000D01*
X74750000Y-62419651D01*
X74750000Y-61350000D01*
X72718520Y-61350000D01*
X72624850Y-61364835D01*
X72624844Y-61364837D01*
X72511958Y-61422356D01*
X72511949Y-61422363D01*
X72422363Y-61511949D01*
X72422360Y-61511953D01*
X72364833Y-61624855D01*
X72350000Y-61718513D01*
X52649998Y-61718513D01*
X52635164Y-61624850D01*
X52635162Y-61624844D01*
X52577643Y-61511958D01*
X52577636Y-61511949D01*
X52488050Y-61422363D01*
X52488046Y-61422360D01*
X52375144Y-61364833D01*
X52281486Y-61350000D01*
X50250000Y-61350000D01*
X50250000Y-62419651D01*
X50125923Y-62400000D01*
X49874077Y-62400000D01*
X49750000Y-62419651D01*
X49750000Y-61350000D01*
X47718520Y-61350000D01*
X47624850Y-61364835D01*
X47624844Y-61364837D01*
X47511958Y-61422356D01*
X47511949Y-61422363D01*
X47422363Y-61511949D01*
X47422360Y-61511953D01*
X47364833Y-61624855D01*
X47350000Y-61718513D01*
X500500Y-61718513D01*
X500500Y-53485258D01*
X60249500Y-53485258D01*
X60249500Y-53714741D01*
X60274446Y-53904215D01*
X60279452Y-53942238D01*
X60279453Y-53942240D01*
X60338842Y-54163887D01*
X60426650Y-54375876D01*
X60426657Y-54375890D01*
X60541392Y-54574617D01*
X60681081Y-54756661D01*
X60681089Y-54756670D01*
X60843330Y-54918911D01*
X60843338Y-54918918D01*
X61025382Y-55058607D01*
X61025385Y-55058608D01*
X61025388Y-55058611D01*
X61224112Y-55173344D01*
X61224117Y-55173346D01*
X61224123Y-55173349D01*
X61315480Y-55211190D01*
X61436113Y-55261158D01*
X61657762Y-55320548D01*
X61885266Y-55350500D01*
X61885273Y-55350500D01*
X62114727Y-55350500D01*
X62114734Y-55350500D01*
X62342238Y-55320548D01*
X62563887Y-55261158D01*
X62775888Y-55173344D01*
X62974612Y-55058611D01*
X63156661Y-54918919D01*
X63156665Y-54918914D01*
X63156670Y-54918911D01*
X63318911Y-54756670D01*
X63318914Y-54756665D01*
X63318919Y-54756661D01*
X63458611Y-54574612D01*
X63573344Y-54375888D01*
X63661158Y-54163887D01*
X63720548Y-53942238D01*
X63750500Y-53714734D01*
X63750500Y-53485266D01*
X63720548Y-53257762D01*
X63661158Y-53036113D01*
X63573344Y-52824112D01*
X63458611Y-52625388D01*
X63458608Y-52625385D01*
X63458607Y-52625382D01*
X63318918Y-52443338D01*
X63318911Y-52443330D01*
X63156670Y-52281089D01*
X63156661Y-52281081D01*
X62974617Y-52141392D01*
X62775890Y-52026657D01*
X62775876Y-52026650D01*
X62563887Y-51938842D01*
X62342238Y-51879452D01*
X62304215Y-51874446D01*
X62114741Y-51849500D01*
X62114734Y-51849500D01*
X61885266Y-51849500D01*
X61885258Y-51849500D01*
X61668715Y-51878009D01*
X61657762Y-51879452D01*
X61564076Y-51904554D01*
X61436112Y-51938842D01*
X61224123Y-52026650D01*
X61224109Y-52026657D01*
X61025382Y-52141392D01*
X60843338Y-52281081D01*
X60681081Y-52443338D01*
X60541392Y-52625382D01*
X60426657Y-52824109D01*
X60426650Y-52824123D01*
X60338842Y-53036112D01*
X60279453Y-53257759D01*
X60279451Y-53257770D01*
X60249500Y-53485258D01*
X500500Y-53485258D01*
X500500Y-51374071D01*
X75940000Y-51374071D01*
X75940000Y-51625928D01*
X75979397Y-51874669D01*
X76057219Y-52114184D01*
X76171557Y-52338583D01*
X76245748Y-52440697D01*
X76245748Y-52440698D01*
X76975387Y-51711059D01*
X76980889Y-51731591D01*
X77059881Y-51868408D01*
X77171592Y-51980119D01*
X77308409Y-52059111D01*
X77328940Y-52064612D01*
X76599300Y-52794250D01*
X76701416Y-52868442D01*
X76925815Y-52982780D01*
X77165330Y-53060602D01*
X77414072Y-53100000D01*
X77665928Y-53100000D01*
X77914669Y-53060602D01*
X78154184Y-52982780D01*
X78378575Y-52868446D01*
X78378581Y-52868442D01*
X78480697Y-52794250D01*
X78480698Y-52794250D01*
X77751059Y-52064612D01*
X77771591Y-52059111D01*
X77908408Y-51980119D01*
X78020119Y-51868408D01*
X78099111Y-51731591D01*
X78104612Y-51711060D01*
X78834250Y-52440698D01*
X78834250Y-52440697D01*
X78908442Y-52338581D01*
X78908446Y-52338575D01*
X79022780Y-52114184D01*
X79100602Y-51874669D01*
X79140000Y-51625928D01*
X79140000Y-51374071D01*
X79100602Y-51125330D01*
X79022780Y-50885815D01*
X78908442Y-50661416D01*
X78834250Y-50559301D01*
X78834250Y-50559300D01*
X78104612Y-51288939D01*
X78099111Y-51268409D01*
X78020119Y-51131592D01*
X77908408Y-51019881D01*
X77771591Y-50940889D01*
X77751058Y-50935387D01*
X78480698Y-50205748D01*
X78378583Y-50131557D01*
X78154184Y-50017219D01*
X77914669Y-49939397D01*
X77665928Y-49900000D01*
X77414072Y-49900000D01*
X77165330Y-49939397D01*
X76925815Y-50017219D01*
X76701413Y-50131559D01*
X76599301Y-50205747D01*
X76599300Y-50205748D01*
X77328940Y-50935387D01*
X77308409Y-50940889D01*
X77171592Y-51019881D01*
X77059881Y-51131592D01*
X76980889Y-51268409D01*
X76975387Y-51288940D01*
X76245748Y-50559300D01*
X76245747Y-50559301D01*
X76171559Y-50661413D01*
X76057219Y-50885815D01*
X75979397Y-51125330D01*
X75940000Y-51374071D01*
X500500Y-51374071D01*
X500500Y-48897648D01*
X41699500Y-48897648D01*
X41699500Y-49102351D01*
X41731522Y-49304534D01*
X41794781Y-49499223D01*
X41887715Y-49681613D01*
X42008028Y-49847213D01*
X42152786Y-49991971D01*
X42307749Y-50104556D01*
X42318390Y-50112287D01*
X42434607Y-50171503D01*
X42500776Y-50205218D01*
X42500778Y-50205218D01*
X42500781Y-50205220D01*
X42605137Y-50239127D01*
X42695465Y-50268477D01*
X42796557Y-50284488D01*
X42897648Y-50300500D01*
X42897649Y-50300500D01*
X43102351Y-50300500D01*
X43102352Y-50300500D01*
X43304534Y-50268477D01*
X43499219Y-50205220D01*
X43681610Y-50112287D01*
X43812461Y-50017219D01*
X43847213Y-49991971D01*
X43847215Y-49991968D01*
X43847219Y-49991966D01*
X43991966Y-49847219D01*
X43991968Y-49847215D01*
X43991971Y-49847213D01*
X44044732Y-49774590D01*
X44112287Y-49681610D01*
X44205220Y-49499219D01*
X44268477Y-49304534D01*
X44300500Y-49102352D01*
X44300500Y-48897648D01*
X51859500Y-48897648D01*
X51859500Y-49102351D01*
X51891522Y-49304534D01*
X51954781Y-49499223D01*
X52047715Y-49681613D01*
X52168028Y-49847213D01*
X52312786Y-49991971D01*
X52467749Y-50104556D01*
X52478390Y-50112287D01*
X52594607Y-50171503D01*
X52660776Y-50205218D01*
X52660778Y-50205218D01*
X52660781Y-50205220D01*
X52765137Y-50239127D01*
X52855465Y-50268477D01*
X52956557Y-50284488D01*
X53057648Y-50300500D01*
X53057649Y-50300500D01*
X53262351Y-50300500D01*
X53262352Y-50300500D01*
X53464534Y-50268477D01*
X53659219Y-50205220D01*
X53841610Y-50112287D01*
X53972461Y-50017219D01*
X54007213Y-49991971D01*
X54007215Y-49991968D01*
X54007219Y-49991966D01*
X54151966Y-49847219D01*
X54151968Y-49847215D01*
X54151971Y-49847213D01*
X54204732Y-49774590D01*
X54272287Y-49681610D01*
X54365220Y-49499219D01*
X54428477Y-49304534D01*
X54460500Y-49102352D01*
X54460500Y-48897648D01*
X54428477Y-48695466D01*
X54365220Y-48500781D01*
X54365218Y-48500778D01*
X54365218Y-48500776D01*
X54331503Y-48434607D01*
X54272287Y-48318390D01*
X54264556Y-48307749D01*
X54151971Y-48152786D01*
X54007213Y-48008028D01*
X53841613Y-47887715D01*
X53841612Y-47887714D01*
X53841610Y-47887713D01*
X53784653Y-47858691D01*
X53659223Y-47794781D01*
X53464534Y-47731522D01*
X53289995Y-47703878D01*
X53262352Y-47699500D01*
X53057648Y-47699500D01*
X53033329Y-47703351D01*
X52855465Y-47731522D01*
X52660776Y-47794781D01*
X52478386Y-47887715D01*
X52312786Y-48008028D01*
X52168028Y-48152786D01*
X52047715Y-48318386D01*
X51954781Y-48500776D01*
X51891522Y-48695465D01*
X51859500Y-48897648D01*
X44300500Y-48897648D01*
X44268477Y-48695466D01*
X44205220Y-48500781D01*
X44205218Y-48500778D01*
X44205218Y-48500776D01*
X44171503Y-48434607D01*
X44112287Y-48318390D01*
X44104556Y-48307749D01*
X43991971Y-48152786D01*
X43847213Y-48008028D01*
X43681613Y-47887715D01*
X43681612Y-47887714D01*
X43681610Y-47887713D01*
X43624653Y-47858691D01*
X43499223Y-47794781D01*
X43304534Y-47731522D01*
X43129995Y-47703878D01*
X43102352Y-47699500D01*
X42897648Y-47699500D01*
X42873329Y-47703351D01*
X42695465Y-47731522D01*
X42500776Y-47794781D01*
X42318386Y-47887715D01*
X42152786Y-48008028D01*
X42008028Y-48152786D01*
X41887715Y-48318386D01*
X41794781Y-48500776D01*
X41731522Y-48695465D01*
X41699500Y-48897648D01*
X500500Y-48897648D01*
X500500Y-43999984D01*
X41299500Y-43999984D01*
X41299500Y-46000015D01*
X41310000Y-46102795D01*
X41310001Y-46102797D01*
X41316904Y-46123629D01*
X41365186Y-46269335D01*
X41365187Y-46269337D01*
X41457286Y-46418651D01*
X41457289Y-46418655D01*
X41581344Y-46542710D01*
X41581348Y-46542713D01*
X41730662Y-46634812D01*
X41730664Y-46634813D01*
X41730666Y-46634814D01*
X41897203Y-46689999D01*
X41999992Y-46700500D01*
X41999997Y-46700500D01*
X44000003Y-46700500D01*
X44000008Y-46700500D01*
X44102797Y-46689999D01*
X44269334Y-46634814D01*
X44418655Y-46542711D01*
X44542711Y-46418655D01*
X44634814Y-46269334D01*
X44689999Y-46102797D01*
X44700500Y-46000008D01*
X44700500Y-44888549D01*
X51459500Y-44888549D01*
X51459500Y-45111450D01*
X51459501Y-45111466D01*
X51488594Y-45332452D01*
X51488595Y-45332457D01*
X51488596Y-45332463D01*
X51507557Y-45403226D01*
X51546290Y-45547780D01*
X51546293Y-45547790D01*
X51631593Y-45753722D01*
X51631595Y-45753726D01*
X51743052Y-45946774D01*
X51743057Y-45946780D01*
X51743058Y-45946782D01*
X51878751Y-46123622D01*
X51878757Y-46123629D01*
X52036370Y-46281242D01*
X52036376Y-46281247D01*
X52213226Y-46416948D01*
X52406274Y-46528405D01*
X52612219Y-46613710D01*
X52827537Y-46671404D01*
X53048543Y-46700500D01*
X53048550Y-46700500D01*
X53271450Y-46700500D01*
X53271457Y-46700500D01*
X53492463Y-46671404D01*
X53707781Y-46613710D01*
X53913726Y-46528405D01*
X54106774Y-46416948D01*
X54283624Y-46281247D01*
X54326322Y-46238549D01*
X64299500Y-46238549D01*
X64299500Y-46461450D01*
X64299501Y-46461466D01*
X64328594Y-46682452D01*
X64328595Y-46682457D01*
X64328596Y-46682463D01*
X64333429Y-46700499D01*
X64386290Y-46897780D01*
X64386293Y-46897790D01*
X64471593Y-47103722D01*
X64471595Y-47103726D01*
X64583052Y-47296774D01*
X64583057Y-47296780D01*
X64583058Y-47296782D01*
X64718751Y-47473622D01*
X64718757Y-47473629D01*
X64876370Y-47631242D01*
X64876377Y-47631248D01*
X65002294Y-47727867D01*
X65053226Y-47766948D01*
X65246274Y-47878405D01*
X65452219Y-47963710D01*
X65667537Y-48021404D01*
X65888543Y-48050500D01*
X65888550Y-48050500D01*
X66111450Y-48050500D01*
X66111457Y-48050500D01*
X66332463Y-48021404D01*
X66547781Y-47963710D01*
X66753726Y-47878405D01*
X66946774Y-47766948D01*
X67123624Y-47631247D01*
X67281247Y-47473624D01*
X67416948Y-47296774D01*
X67528405Y-47103726D01*
X67613710Y-46897781D01*
X67671404Y-46682463D01*
X67700500Y-46461457D01*
X67700500Y-46238543D01*
X67671404Y-46017537D01*
X67613710Y-45802219D01*
X67528405Y-45596274D01*
X67416948Y-45403226D01*
X67377867Y-45352294D01*
X67281248Y-45226377D01*
X67281242Y-45226370D01*
X67123629Y-45068757D01*
X67123622Y-45068751D01*
X66946782Y-44933058D01*
X66946780Y-44933057D01*
X66946774Y-44933052D01*
X66753726Y-44821595D01*
X66753722Y-44821593D01*
X66547790Y-44736293D01*
X66547783Y-44736291D01*
X66547781Y-44736290D01*
X66332463Y-44678596D01*
X66332457Y-44678595D01*
X66332452Y-44678594D01*
X66111466Y-44649501D01*
X66111463Y-44649500D01*
X66111457Y-44649500D01*
X65888543Y-44649500D01*
X65888537Y-44649500D01*
X65888533Y-44649501D01*
X65667547Y-44678594D01*
X65667540Y-44678595D01*
X65667537Y-44678596D01*
X65452219Y-44736290D01*
X65452209Y-44736293D01*
X65246277Y-44821593D01*
X65246273Y-44821595D01*
X65053226Y-44933052D01*
X65053217Y-44933058D01*
X64876377Y-45068751D01*
X64876370Y-45068757D01*
X64718757Y-45226370D01*
X64718751Y-45226377D01*
X64583058Y-45403217D01*
X64583052Y-45403226D01*
X64471595Y-45596273D01*
X64471593Y-45596277D01*
X64386293Y-45802209D01*
X64386290Y-45802219D01*
X64333295Y-46000002D01*
X64328597Y-46017534D01*
X64328594Y-46017547D01*
X64299501Y-46238533D01*
X64299500Y-46238549D01*
X54326322Y-46238549D01*
X54326338Y-46238533D01*
X54418069Y-46146803D01*
X54441242Y-46123629D01*
X54441247Y-46123624D01*
X54576948Y-45946774D01*
X54688405Y-45753726D01*
X54773710Y-45547781D01*
X54831404Y-45332463D01*
X54860500Y-45111457D01*
X54860500Y-44888543D01*
X54831404Y-44667537D01*
X54773710Y-44452219D01*
X54688405Y-44246274D01*
X54576948Y-44053226D01*
X54441247Y-43876376D01*
X54441242Y-43876370D01*
X54283629Y-43718757D01*
X54283622Y-43718751D01*
X54106782Y-43583058D01*
X54106780Y-43583057D01*
X54106774Y-43583052D01*
X53913726Y-43471595D01*
X53913722Y-43471593D01*
X53707790Y-43386293D01*
X53707783Y-43386291D01*
X53707781Y-43386290D01*
X53492463Y-43328596D01*
X53492457Y-43328595D01*
X53492452Y-43328594D01*
X53271466Y-43299501D01*
X53271463Y-43299500D01*
X53271457Y-43299500D01*
X53048543Y-43299500D01*
X53048537Y-43299500D01*
X53048533Y-43299501D01*
X52827547Y-43328594D01*
X52827540Y-43328595D01*
X52827537Y-43328596D01*
X52690981Y-43365186D01*
X52612219Y-43386290D01*
X52612209Y-43386293D01*
X52406277Y-43471593D01*
X52406273Y-43471595D01*
X52213226Y-43583052D01*
X52213217Y-43583058D01*
X52036377Y-43718751D01*
X52036370Y-43718757D01*
X51878757Y-43876370D01*
X51878751Y-43876377D01*
X51743058Y-44053217D01*
X51743052Y-44053226D01*
X51631595Y-44246273D01*
X51631593Y-44246277D01*
X51546293Y-44452209D01*
X51546290Y-44452219D01*
X51488597Y-44667534D01*
X51488594Y-44667547D01*
X51459501Y-44888533D01*
X51459500Y-44888549D01*
X44700500Y-44888549D01*
X44700500Y-43999992D01*
X44689999Y-43897203D01*
X44634814Y-43730666D01*
X44627468Y-43718757D01*
X44542713Y-43581348D01*
X44542710Y-43581344D01*
X44418655Y-43457289D01*
X44418651Y-43457286D01*
X44269337Y-43365187D01*
X44269335Y-43365186D01*
X44158907Y-43328594D01*
X44102797Y-43310001D01*
X44102795Y-43310000D01*
X44000015Y-43299500D01*
X44000008Y-43299500D01*
X41999992Y-43299500D01*
X41999984Y-43299500D01*
X41897204Y-43310000D01*
X41897203Y-43310001D01*
X41730664Y-43365186D01*
X41730662Y-43365187D01*
X41581348Y-43457286D01*
X41581344Y-43457289D01*
X41457289Y-43581344D01*
X41457286Y-43581348D01*
X41365187Y-43730662D01*
X41365186Y-43730664D01*
X41310001Y-43897203D01*
X41310000Y-43897204D01*
X41299500Y-43999984D01*
X500500Y-43999984D01*
X500500Y-38885837D01*
X36549500Y-38885837D01*
X36549500Y-39114162D01*
X36585215Y-39339660D01*
X36655770Y-39556803D01*
X36759421Y-39760228D01*
X36893621Y-39944937D01*
X37055063Y-40106379D01*
X37239772Y-40240579D01*
X37246618Y-40244067D01*
X37443196Y-40344229D01*
X37443198Y-40344229D01*
X37443201Y-40344231D01*
X37559592Y-40382049D01*
X37660339Y-40414784D01*
X37885838Y-40450500D01*
X37885843Y-40450500D01*
X38114162Y-40450500D01*
X38339660Y-40414784D01*
X38367362Y-40405783D01*
X38556799Y-40344231D01*
X38760228Y-40240579D01*
X38944937Y-40106379D01*
X39106379Y-39944937D01*
X39240579Y-39760228D01*
X39344231Y-39556799D01*
X39414784Y-39339660D01*
X39426643Y-39264788D01*
X39450500Y-39114162D01*
X39450500Y-38885837D01*
X39414784Y-38660339D01*
X39355569Y-38478097D01*
X39344231Y-38443201D01*
X39344229Y-38443198D01*
X39344229Y-38443196D01*
X39240578Y-38239771D01*
X39225318Y-38218767D01*
X39106379Y-38055063D01*
X38944937Y-37893621D01*
X38760228Y-37759421D01*
X38713004Y-37735359D01*
X38556803Y-37655770D01*
X38339660Y-37585215D01*
X38114162Y-37549500D01*
X38114157Y-37549500D01*
X37885843Y-37549500D01*
X37885838Y-37549500D01*
X37660339Y-37585215D01*
X37443196Y-37655770D01*
X37239771Y-37759421D01*
X37055061Y-37893622D01*
X36893622Y-38055061D01*
X36759421Y-38239771D01*
X36655770Y-38443196D01*
X36585215Y-38660339D01*
X36549500Y-38885837D01*
X500500Y-38885837D01*
X500500Y-35702135D01*
X43547000Y-35702135D01*
X43547000Y-40297870D01*
X43547001Y-40297876D01*
X43553408Y-40357483D01*
X43603702Y-40492328D01*
X43603706Y-40492335D01*
X43689952Y-40607544D01*
X43689955Y-40607547D01*
X43805164Y-40693793D01*
X43805171Y-40693797D01*
X43940017Y-40744091D01*
X43940016Y-40744091D01*
X43946944Y-40744835D01*
X43999627Y-40750500D01*
X46000372Y-40750499D01*
X46059983Y-40744091D01*
X46194831Y-40693796D01*
X46310046Y-40607546D01*
X46396296Y-40492331D01*
X46446591Y-40357483D01*
X46453000Y-40297873D01*
X46452999Y-36588146D01*
X48627000Y-36588146D01*
X48627000Y-39411853D01*
X48662778Y-39637746D01*
X48662778Y-39637749D01*
X48733450Y-39855255D01*
X48779146Y-39944938D01*
X48837283Y-40059038D01*
X48971714Y-40244066D01*
X49133434Y-40405786D01*
X49318462Y-40540217D01*
X49450599Y-40607544D01*
X49522244Y-40644049D01*
X49739751Y-40714721D01*
X49739752Y-40714721D01*
X49739755Y-40714722D01*
X49965646Y-40750500D01*
X49965647Y-40750500D01*
X50194353Y-40750500D01*
X50194354Y-40750500D01*
X50420245Y-40714722D01*
X50420248Y-40714721D01*
X50420249Y-40714721D01*
X50637755Y-40644049D01*
X50637755Y-40644048D01*
X50637758Y-40644048D01*
X50841538Y-40540217D01*
X51026566Y-40405786D01*
X51188286Y-40244066D01*
X51311794Y-40074071D01*
X51367124Y-40031406D01*
X51436737Y-40025427D01*
X51498532Y-40058033D01*
X51512430Y-40074071D01*
X51588372Y-40178595D01*
X51738903Y-40329126D01*
X51911135Y-40454261D01*
X52100822Y-40550912D01*
X52303282Y-40616695D01*
X52370000Y-40627261D01*
X52370000Y-38708240D01*
X52401233Y-38721178D01*
X52546131Y-38750000D01*
X52693869Y-38750000D01*
X52838767Y-38721178D01*
X52870000Y-38708240D01*
X52870000Y-40627260D01*
X52936717Y-40616695D01*
X53139177Y-40550912D01*
X53328864Y-40454261D01*
X53501095Y-40329126D01*
X53501096Y-40329126D01*
X53651626Y-40178596D01*
X53727569Y-40074071D01*
X53782899Y-40031406D01*
X53852512Y-40025427D01*
X53914307Y-40058033D01*
X53928205Y-40074071D01*
X54051714Y-40244066D01*
X54213434Y-40405786D01*
X54398462Y-40540217D01*
X54530599Y-40607544D01*
X54602244Y-40644049D01*
X54819751Y-40714721D01*
X54819752Y-40714721D01*
X54819755Y-40714722D01*
X55045646Y-40750500D01*
X55045647Y-40750500D01*
X55274353Y-40750500D01*
X55274354Y-40750500D01*
X55500245Y-40714722D01*
X55500248Y-40714721D01*
X55500249Y-40714721D01*
X55717755Y-40644049D01*
X55717755Y-40644048D01*
X55717758Y-40644048D01*
X55921538Y-40540217D01*
X56106566Y-40405786D01*
X56268286Y-40244066D01*
X56402717Y-40059038D01*
X56506548Y-39855258D01*
X56537425Y-39760228D01*
X56575038Y-39644469D01*
X56575038Y-39644468D01*
X56577220Y-39637753D01*
X56577220Y-39637749D01*
X56577222Y-39637745D01*
X56613000Y-39411854D01*
X56613000Y-38270142D01*
X60350000Y-38270142D01*
X60350000Y-38529857D01*
X60390629Y-38786377D01*
X60470883Y-39033377D01*
X60588796Y-39264791D01*
X60669951Y-39376492D01*
X60669952Y-39376493D01*
X61322421Y-38724024D01*
X61335359Y-38755258D01*
X61417437Y-38878097D01*
X61521903Y-38982563D01*
X61644742Y-39064641D01*
X61675974Y-39077578D01*
X61023505Y-39730046D01*
X61023506Y-39730048D01*
X61135208Y-39811203D01*
X61366622Y-39929116D01*
X61613622Y-40009370D01*
X61870143Y-40050000D01*
X62129857Y-40050000D01*
X62386377Y-40009370D01*
X62633377Y-39929116D01*
X62864788Y-39811205D01*
X62976492Y-39730046D01*
X62976493Y-39730046D01*
X62324024Y-39077578D01*
X62355258Y-39064641D01*
X62478097Y-38982563D01*
X62582563Y-38878097D01*
X62664641Y-38755258D01*
X62677578Y-38724024D01*
X63330046Y-39376493D01*
X63330046Y-39376492D01*
X63411205Y-39264788D01*
X63529116Y-39033377D01*
X63609370Y-38786377D01*
X63650000Y-38529857D01*
X63650000Y-38270142D01*
X63609370Y-38013622D01*
X63529116Y-37766622D01*
X63411203Y-37535208D01*
X63330048Y-37423506D01*
X63330046Y-37423505D01*
X62677577Y-38075974D01*
X62664641Y-38044742D01*
X62582563Y-37921903D01*
X62478097Y-37817437D01*
X62355258Y-37735359D01*
X62324024Y-37722421D01*
X62976493Y-37069952D01*
X62976492Y-37069951D01*
X62864791Y-36988796D01*
X62633377Y-36870883D01*
X62386377Y-36790629D01*
X62129857Y-36750000D01*
X61870143Y-36750000D01*
X61613622Y-36790629D01*
X61366622Y-36870883D01*
X61135215Y-36988792D01*
X61023506Y-37069952D01*
X61675975Y-37722421D01*
X61644742Y-37735359D01*
X61521903Y-37817437D01*
X61417437Y-37921903D01*
X61335359Y-38044742D01*
X61322421Y-38075975D01*
X60669952Y-37423506D01*
X60588792Y-37535215D01*
X60470883Y-37766622D01*
X60390629Y-38013622D01*
X60350000Y-38270142D01*
X56613000Y-38270142D01*
X56613000Y-36588146D01*
X56577222Y-36362255D01*
X56577221Y-36362251D01*
X56577221Y-36362250D01*
X56518915Y-36182802D01*
X56507785Y-36148549D01*
X75839500Y-36148549D01*
X75839500Y-36371450D01*
X75839501Y-36371466D01*
X75868594Y-36592452D01*
X75868595Y-36592457D01*
X75868596Y-36592463D01*
X75868597Y-36592465D01*
X75926290Y-36807780D01*
X75926293Y-36807790D01*
X76011593Y-37013722D01*
X76011595Y-37013726D01*
X76123052Y-37206774D01*
X76123057Y-37206780D01*
X76123058Y-37206782D01*
X76258751Y-37383622D01*
X76258757Y-37383629D01*
X76416370Y-37541242D01*
X76416377Y-37541248D01*
X76473678Y-37585216D01*
X76593226Y-37676948D01*
X76786274Y-37788405D01*
X76992219Y-37873710D01*
X77207537Y-37931404D01*
X77428543Y-37960500D01*
X77428550Y-37960500D01*
X77651450Y-37960500D01*
X77651457Y-37960500D01*
X77872463Y-37931404D01*
X78087781Y-37873710D01*
X78293726Y-37788405D01*
X78486774Y-37676948D01*
X78663624Y-37541247D01*
X78821247Y-37383624D01*
X78956948Y-37206774D01*
X79068405Y-37013726D01*
X79153710Y-36807781D01*
X79211404Y-36592463D01*
X79240500Y-36371457D01*
X79240500Y-36148543D01*
X79211404Y-35927537D01*
X79153710Y-35712219D01*
X79068405Y-35506274D01*
X78956948Y-35313226D01*
X78821247Y-35136376D01*
X78821242Y-35136370D01*
X78663629Y-34978757D01*
X78663622Y-34978751D01*
X78486782Y-34843058D01*
X78486780Y-34843057D01*
X78486774Y-34843052D01*
X78293726Y-34731595D01*
X78293722Y-34731593D01*
X78087790Y-34646293D01*
X78087783Y-34646291D01*
X78087781Y-34646290D01*
X77872463Y-34588596D01*
X77872457Y-34588595D01*
X77872452Y-34588594D01*
X77651466Y-34559501D01*
X77651463Y-34559500D01*
X77651457Y-34559500D01*
X77428543Y-34559500D01*
X77428537Y-34559500D01*
X77428533Y-34559501D01*
X77207547Y-34588594D01*
X77207540Y-34588595D01*
X77207537Y-34588596D01*
X76992219Y-34646290D01*
X76992209Y-34646293D01*
X76786277Y-34731593D01*
X76786273Y-34731595D01*
X76593226Y-34843052D01*
X76593217Y-34843058D01*
X76416377Y-34978751D01*
X76416370Y-34978757D01*
X76258757Y-35136370D01*
X76258751Y-35136377D01*
X76123058Y-35313217D01*
X76123052Y-35313226D01*
X76011595Y-35506273D01*
X76011593Y-35506277D01*
X75926293Y-35712209D01*
X75926290Y-35712219D01*
X75914578Y-35755931D01*
X75868597Y-35927534D01*
X75868594Y-35927547D01*
X75839501Y-36148533D01*
X75839500Y-36148549D01*
X56507785Y-36148549D01*
X56506549Y-36144744D01*
X56506548Y-36144742D01*
X56402717Y-35940962D01*
X56268286Y-35755934D01*
X56106566Y-35594214D01*
X55921538Y-35459783D01*
X55900546Y-35449087D01*
X55717755Y-35355950D01*
X55500248Y-35285278D01*
X55314812Y-35255908D01*
X55274354Y-35249500D01*
X55045646Y-35249500D01*
X55005188Y-35255908D01*
X54819753Y-35285278D01*
X54819750Y-35285278D01*
X54602244Y-35355950D01*
X54398461Y-35459783D01*
X54332550Y-35507671D01*
X54213434Y-35594214D01*
X54213432Y-35594216D01*
X54213431Y-35594216D01*
X54051715Y-35755932D01*
X53928205Y-35925928D01*
X53872874Y-35968593D01*
X53803261Y-35974572D01*
X53741466Y-35941966D01*
X53727569Y-35925928D01*
X53651627Y-35821404D01*
X53501096Y-35670873D01*
X53328864Y-35545738D01*
X53139177Y-35449087D01*
X52936713Y-35383303D01*
X52870000Y-35372736D01*
X52870000Y-37291759D01*
X52838767Y-37278822D01*
X52693869Y-37250000D01*
X52546131Y-37250000D01*
X52401233Y-37278822D01*
X52370000Y-37291759D01*
X52370000Y-35372736D01*
X52303287Y-35383303D01*
X52303284Y-35383303D01*
X52100822Y-35449087D01*
X51911135Y-35545738D01*
X51738904Y-35670873D01*
X51738903Y-35670873D01*
X51588372Y-35821404D01*
X51512430Y-35925929D01*
X51457099Y-35968594D01*
X51387486Y-35974573D01*
X51325691Y-35941967D01*
X51311794Y-35925928D01*
X51188288Y-35755937D01*
X51188283Y-35755931D01*
X51026568Y-35594216D01*
X51026566Y-35594214D01*
X50841538Y-35459783D01*
X50820546Y-35449087D01*
X50637755Y-35355950D01*
X50420248Y-35285278D01*
X50234812Y-35255908D01*
X50194354Y-35249500D01*
X49965646Y-35249500D01*
X49925188Y-35255908D01*
X49739753Y-35285278D01*
X49739750Y-35285278D01*
X49522244Y-35355950D01*
X49318461Y-35459783D01*
X49252550Y-35507671D01*
X49133434Y-35594214D01*
X49133432Y-35594216D01*
X49133431Y-35594216D01*
X48971716Y-35755931D01*
X48971716Y-35755932D01*
X48971714Y-35755934D01*
X48971712Y-35755937D01*
X48837283Y-35940961D01*
X48733450Y-36144744D01*
X48662778Y-36362250D01*
X48662778Y-36362253D01*
X48627000Y-36588146D01*
X46452999Y-36588146D01*
X46452999Y-35702128D01*
X46446591Y-35642517D01*
X46396296Y-35507669D01*
X46396295Y-35507668D01*
X46396293Y-35507664D01*
X46310047Y-35392455D01*
X46310044Y-35392452D01*
X46194835Y-35306206D01*
X46194828Y-35306202D01*
X46059982Y-35255908D01*
X46059983Y-35255908D01*
X46000383Y-35249501D01*
X46000381Y-35249500D01*
X46000373Y-35249500D01*
X46000364Y-35249500D01*
X43999629Y-35249500D01*
X43999623Y-35249501D01*
X43940016Y-35255908D01*
X43805171Y-35306202D01*
X43805164Y-35306206D01*
X43689955Y-35392452D01*
X43689952Y-35392455D01*
X43603706Y-35507664D01*
X43603702Y-35507671D01*
X43553408Y-35642517D01*
X43550360Y-35670873D01*
X43547001Y-35702123D01*
X43547000Y-35702135D01*
X500500Y-35702135D01*
X500500Y-33538549D01*
X64299500Y-33538549D01*
X64299500Y-33761450D01*
X64299501Y-33761466D01*
X64328594Y-33982452D01*
X64328595Y-33982457D01*
X64328596Y-33982463D01*
X64328597Y-33982465D01*
X64386290Y-34197780D01*
X64386293Y-34197790D01*
X64471593Y-34403722D01*
X64471595Y-34403726D01*
X64583052Y-34596774D01*
X64583057Y-34596780D01*
X64583058Y-34596782D01*
X64718751Y-34773622D01*
X64718757Y-34773629D01*
X64876370Y-34931242D01*
X64876377Y-34931248D01*
X65002294Y-35027867D01*
X65053226Y-35066948D01*
X65246274Y-35178405D01*
X65376140Y-35232197D01*
X65433385Y-35255909D01*
X65452219Y-35263710D01*
X65667537Y-35321404D01*
X65888543Y-35350500D01*
X65888550Y-35350500D01*
X66111450Y-35350500D01*
X66111457Y-35350500D01*
X66332463Y-35321404D01*
X66547781Y-35263710D01*
X66753726Y-35178405D01*
X66946774Y-35066948D01*
X67123624Y-34931247D01*
X67281247Y-34773624D01*
X67416948Y-34596774D01*
X67528405Y-34403726D01*
X67613710Y-34197781D01*
X67671404Y-33982463D01*
X67700500Y-33761457D01*
X67700500Y-33538543D01*
X67671404Y-33317537D01*
X67613710Y-33102219D01*
X67528405Y-32896274D01*
X67416948Y-32703226D01*
X67281247Y-32526376D01*
X67281242Y-32526370D01*
X67123629Y-32368757D01*
X67123622Y-32368751D01*
X66946782Y-32233058D01*
X66946780Y-32233057D01*
X66946774Y-32233052D01*
X66753726Y-32121595D01*
X66753722Y-32121593D01*
X66547790Y-32036293D01*
X66547783Y-32036291D01*
X66547781Y-32036290D01*
X66332463Y-31978596D01*
X66332457Y-31978595D01*
X66332452Y-31978594D01*
X66111466Y-31949501D01*
X66111463Y-31949500D01*
X66111457Y-31949500D01*
X65888543Y-31949500D01*
X65888537Y-31949500D01*
X65888533Y-31949501D01*
X65667547Y-31978594D01*
X65667540Y-31978595D01*
X65667537Y-31978596D01*
X65452219Y-32036290D01*
X65452209Y-32036293D01*
X65246277Y-32121593D01*
X65246273Y-32121595D01*
X65053226Y-32233052D01*
X65053217Y-32233058D01*
X64876377Y-32368751D01*
X64876370Y-32368757D01*
X64718757Y-32526370D01*
X64718751Y-32526377D01*
X64583058Y-32703217D01*
X64583052Y-32703226D01*
X64471595Y-32896273D01*
X64471593Y-32896277D01*
X64386293Y-33102209D01*
X64386290Y-33102219D01*
X64335917Y-33290217D01*
X64328597Y-33317534D01*
X64328594Y-33317547D01*
X64299501Y-33538533D01*
X64299500Y-33538549D01*
X500500Y-33538549D01*
X500500Y-7702135D01*
X1249500Y-7702135D01*
X1249500Y-10297870D01*
X1249501Y-10297876D01*
X1255908Y-10357483D01*
X1306202Y-10492328D01*
X1306206Y-10492335D01*
X1392452Y-10607544D01*
X1392455Y-10607547D01*
X1507664Y-10693793D01*
X1507671Y-10693797D01*
X1642517Y-10744091D01*
X1642516Y-10744091D01*
X1649444Y-10744835D01*
X1702127Y-10750500D01*
X4297872Y-10750499D01*
X4357483Y-10744091D01*
X4492331Y-10693796D01*
X4607546Y-10607546D01*
X4693796Y-10492331D01*
X4744091Y-10357483D01*
X4750500Y-10297873D01*
X4750499Y-7702128D01*
X4744091Y-7642517D01*
X4708850Y-7548032D01*
X4693797Y-7507671D01*
X4693793Y-7507664D01*
X4607547Y-7392455D01*
X4607544Y-7392452D01*
X4492335Y-7306206D01*
X4492328Y-7306202D01*
X4357482Y-7255908D01*
X4357483Y-7255908D01*
X4297883Y-7249501D01*
X4297881Y-7249500D01*
X4297873Y-7249500D01*
X4297864Y-7249500D01*
X1702129Y-7249500D01*
X1702123Y-7249501D01*
X1642516Y-7255908D01*
X1507671Y-7306202D01*
X1507664Y-7306206D01*
X1392455Y-7392452D01*
X1392452Y-7392455D01*
X1306206Y-7507664D01*
X1306202Y-7507671D01*
X1255908Y-7642517D01*
X1250505Y-7692781D01*
X1249501Y-7702123D01*
X1249500Y-7702135D01*
X500500Y-7702135D01*
X500500Y-2622135D01*
X1249500Y-2622135D01*
X1249500Y-5217870D01*
X1249501Y-5217876D01*
X1255908Y-5277483D01*
X1306202Y-5412328D01*
X1306206Y-5412335D01*
X1392452Y-5527544D01*
X1392455Y-5527547D01*
X1507664Y-5613793D01*
X1507671Y-5613797D01*
X1642517Y-5664091D01*
X1642516Y-5664091D01*
X1649444Y-5664835D01*
X1702127Y-5670500D01*
X4297872Y-5670499D01*
X4357483Y-5664091D01*
X4492331Y-5613796D01*
X4607546Y-5527546D01*
X4693796Y-5412331D01*
X4698402Y-5399983D01*
X20699500Y-5399983D01*
X20699500Y-6600001D01*
X20699501Y-6600018D01*
X20710000Y-6702796D01*
X20710001Y-6702799D01*
X20745782Y-6810776D01*
X20765186Y-6869334D01*
X20857288Y-7018656D01*
X20981344Y-7142712D01*
X21130666Y-7234814D01*
X21212570Y-7261954D01*
X21270015Y-7301727D01*
X21296838Y-7366243D01*
X21284523Y-7435018D01*
X21246451Y-7479978D01*
X21152787Y-7548028D01*
X21152782Y-7548032D01*
X21008028Y-7692786D01*
X20887715Y-7858386D01*
X20794781Y-8040776D01*
X20731522Y-8235465D01*
X20699500Y-8437648D01*
X20699500Y-8642351D01*
X20731522Y-8844534D01*
X20794781Y-9039223D01*
X20829420Y-9107204D01*
X20881796Y-9209998D01*
X20887715Y-9221613D01*
X21008028Y-9387213D01*
X21152786Y-9531971D01*
X21307749Y-9644556D01*
X21318390Y-9652287D01*
X21409840Y-9698883D01*
X21411080Y-9699515D01*
X21461876Y-9747490D01*
X21478671Y-9815311D01*
X21456134Y-9881446D01*
X21411080Y-9920485D01*
X21318386Y-9967715D01*
X21152786Y-10088028D01*
X21008028Y-10232786D01*
X20887715Y-10398386D01*
X20794781Y-10580776D01*
X20731522Y-10775465D01*
X20699500Y-10977648D01*
X20699500Y-11182351D01*
X20731522Y-11384534D01*
X20794781Y-11579223D01*
X20887715Y-11761613D01*
X21008028Y-11927213D01*
X21152786Y-12071971D01*
X21307749Y-12184556D01*
X21318390Y-12192287D01*
X21409840Y-12238883D01*
X21411080Y-12239515D01*
X21461876Y-12287490D01*
X21478671Y-12355311D01*
X21456134Y-12421446D01*
X21411080Y-12460485D01*
X21318386Y-12507715D01*
X21152786Y-12628028D01*
X21008028Y-12772786D01*
X20887715Y-12938386D01*
X20794781Y-13120776D01*
X20731522Y-13315465D01*
X20699500Y-13517648D01*
X20699500Y-13722351D01*
X20731522Y-13924534D01*
X20794781Y-14119223D01*
X20887715Y-14301613D01*
X21008028Y-14467213D01*
X21152786Y-14611971D01*
X21276889Y-14702135D01*
X21318390Y-14732287D01*
X21434607Y-14791503D01*
X21500776Y-14825218D01*
X21500778Y-14825218D01*
X21500781Y-14825220D01*
X21605137Y-14859127D01*
X21695465Y-14888477D01*
X21796557Y-14904488D01*
X21897648Y-14920500D01*
X21897649Y-14920500D01*
X22102351Y-14920500D01*
X22102352Y-14920500D01*
X22304534Y-14888477D01*
X22499219Y-14825220D01*
X22681610Y-14732287D01*
X22805169Y-14642517D01*
X22847213Y-14611971D01*
X22847215Y-14611968D01*
X22847219Y-14611966D01*
X22991966Y-14467219D01*
X22991968Y-14467215D01*
X22991971Y-14467213D01*
X23046285Y-14392455D01*
X23112287Y-14301610D01*
X23205220Y-14119219D01*
X23268477Y-13924534D01*
X23300500Y-13722352D01*
X23300500Y-13517648D01*
X23268477Y-13315466D01*
X23205220Y-13120781D01*
X23205218Y-13120778D01*
X23205218Y-13120776D01*
X23171503Y-13054607D01*
X23112287Y-12938390D01*
X23104556Y-12927749D01*
X22991971Y-12772786D01*
X22847213Y-12628028D01*
X22681614Y-12507715D01*
X22675006Y-12504348D01*
X22588917Y-12460483D01*
X22538123Y-12412511D01*
X22521328Y-12344690D01*
X22543865Y-12278555D01*
X22588917Y-12239516D01*
X22681610Y-12192287D01*
X22715340Y-12167781D01*
X22847213Y-12071971D01*
X22847215Y-12071968D01*
X22847219Y-12071966D01*
X22991966Y-11927219D01*
X22991968Y-11927215D01*
X22991971Y-11927213D01*
X23062415Y-11830253D01*
X23112287Y-11761610D01*
X23205220Y-11579219D01*
X23268477Y-11384534D01*
X23300500Y-11182352D01*
X23300500Y-10977648D01*
X23268477Y-10775466D01*
X23260364Y-10750498D01*
X23205218Y-10580776D01*
X23160151Y-10492328D01*
X23112287Y-10398390D01*
X23082566Y-10357482D01*
X22991971Y-10232786D01*
X22847213Y-10088028D01*
X22681614Y-9967715D01*
X22675006Y-9964348D01*
X22588917Y-9920483D01*
X22538123Y-9872511D01*
X22521328Y-9804690D01*
X22543865Y-9738555D01*
X22588917Y-9699516D01*
X22681610Y-9652287D01*
X22702770Y-9636913D01*
X22847213Y-9531971D01*
X22847215Y-9531968D01*
X22847219Y-9531966D01*
X22991966Y-9387219D01*
X22991968Y-9387215D01*
X22991971Y-9387213D01*
X23047505Y-9310776D01*
X23112287Y-9221610D01*
X23205220Y-9039219D01*
X23268477Y-8844534D01*
X23300500Y-8642352D01*
X23300500Y-8437648D01*
X23268477Y-8235466D01*
X23205220Y-8040781D01*
X23205218Y-8040778D01*
X23205218Y-8040776D01*
X23171503Y-7974607D01*
X23112287Y-7858390D01*
X23104556Y-7847749D01*
X22991971Y-7692786D01*
X22847219Y-7548034D01*
X22847211Y-7548028D01*
X22753547Y-7479978D01*
X22710882Y-7424649D01*
X22704903Y-7355036D01*
X22737508Y-7293240D01*
X22787426Y-7261955D01*
X22869334Y-7234814D01*
X23018656Y-7142712D01*
X23142712Y-7018656D01*
X23234814Y-6869334D01*
X23289999Y-6702797D01*
X23300500Y-6600009D01*
X23300499Y-5897648D01*
X28319500Y-5897648D01*
X28319500Y-6102351D01*
X28351522Y-6304534D01*
X28414781Y-6499223D01*
X28507715Y-6681613D01*
X28628028Y-6847213D01*
X28772786Y-6991971D01*
X28918454Y-7097803D01*
X28938390Y-7112287D01*
X29029840Y-7158883D01*
X29031080Y-7159515D01*
X29081876Y-7207490D01*
X29098671Y-7275311D01*
X29076134Y-7341446D01*
X29031080Y-7380485D01*
X28938386Y-7427715D01*
X28772786Y-7548028D01*
X28628028Y-7692786D01*
X28507715Y-7858386D01*
X28414781Y-8040776D01*
X28351522Y-8235465D01*
X28319500Y-8437648D01*
X28319500Y-8642351D01*
X28351522Y-8844534D01*
X28414781Y-9039223D01*
X28501788Y-9209981D01*
X28507713Y-9221610D01*
X28595819Y-9342877D01*
X28619298Y-9408681D01*
X28619500Y-9415761D01*
X28619500Y-10204237D01*
X28599815Y-10271276D01*
X28595818Y-10277122D01*
X28507715Y-10398386D01*
X28414781Y-10580776D01*
X28351522Y-10775465D01*
X28319500Y-10977648D01*
X28319500Y-11182351D01*
X28351522Y-11384534D01*
X28414781Y-11579223D01*
X28507715Y-11761613D01*
X28628028Y-11927213D01*
X28772786Y-12071971D01*
X28927749Y-12184556D01*
X28938390Y-12192287D01*
X29029840Y-12238883D01*
X29031080Y-12239515D01*
X29081876Y-12287490D01*
X29098671Y-12355311D01*
X29076134Y-12421446D01*
X29031080Y-12460485D01*
X28938386Y-12507715D01*
X28772786Y-12628028D01*
X28628028Y-12772786D01*
X28507715Y-12938386D01*
X28414781Y-13120776D01*
X28351522Y-13315465D01*
X28319500Y-13517648D01*
X28319500Y-13722351D01*
X28351522Y-13924534D01*
X28414781Y-14119223D01*
X28507715Y-14301613D01*
X28628028Y-14467213D01*
X28772786Y-14611971D01*
X28896889Y-14702135D01*
X28938390Y-14732287D01*
X29054607Y-14791503D01*
X29120776Y-14825218D01*
X29120778Y-14825218D01*
X29120781Y-14825220D01*
X29225137Y-14859127D01*
X29315465Y-14888477D01*
X29416557Y-14904488D01*
X29517648Y-14920500D01*
X29517649Y-14920500D01*
X29722351Y-14920500D01*
X29722352Y-14920500D01*
X29924534Y-14888477D01*
X30119219Y-14825220D01*
X30301610Y-14732287D01*
X30425169Y-14642517D01*
X30467213Y-14611971D01*
X30467215Y-14611968D01*
X30467219Y-14611966D01*
X30611966Y-14467219D01*
X30611968Y-14467215D01*
X30611971Y-14467213D01*
X30666285Y-14392455D01*
X30732287Y-14301610D01*
X30825220Y-14119219D01*
X30888477Y-13924534D01*
X30920500Y-13722352D01*
X30920500Y-13517648D01*
X30888477Y-13315466D01*
X30825220Y-13120781D01*
X30825218Y-13120778D01*
X30825218Y-13120776D01*
X30791503Y-13054607D01*
X30732287Y-12938390D01*
X30724556Y-12927749D01*
X30611971Y-12772786D01*
X30592205Y-12753020D01*
X30558720Y-12691697D01*
X30563704Y-12622005D01*
X30605576Y-12566072D01*
X30671040Y-12541655D01*
X30722501Y-12548891D01*
X32591968Y-13233077D01*
X32648158Y-13274603D01*
X32669838Y-13320216D01*
X36766147Y-30160597D01*
X36762865Y-30230390D01*
X36756145Y-30246199D01*
X36655771Y-30443193D01*
X36585215Y-30660339D01*
X36549500Y-30885837D01*
X36549500Y-31114162D01*
X36585215Y-31339660D01*
X36655770Y-31556803D01*
X36759421Y-31760228D01*
X36893621Y-31944937D01*
X37055063Y-32106379D01*
X37239772Y-32240579D01*
X37335884Y-32289550D01*
X37443196Y-32344229D01*
X37443198Y-32344229D01*
X37443201Y-32344231D01*
X37518666Y-32368751D01*
X37660339Y-32414784D01*
X37885838Y-32450500D01*
X37885843Y-32450500D01*
X38114162Y-32450500D01*
X38339660Y-32414784D01*
X38556799Y-32344231D01*
X38760228Y-32240579D01*
X38944937Y-32106379D01*
X39106379Y-31944937D01*
X39240579Y-31760228D01*
X39344231Y-31556799D01*
X39414784Y-31339660D01*
X39429855Y-31244507D01*
X39450500Y-31114162D01*
X39450500Y-30952135D01*
X73547000Y-30952135D01*
X73547000Y-33047870D01*
X73547001Y-33047876D01*
X73553408Y-33107483D01*
X73603702Y-33242328D01*
X73603706Y-33242335D01*
X73689952Y-33357544D01*
X73689955Y-33357547D01*
X73805164Y-33443793D01*
X73805171Y-33443797D01*
X73940017Y-33494091D01*
X73940016Y-33494091D01*
X73946944Y-33494835D01*
X73999627Y-33500500D01*
X76000372Y-33500499D01*
X76059983Y-33494091D01*
X76194831Y-33443796D01*
X76310046Y-33357546D01*
X76396296Y-33242331D01*
X76406690Y-33214460D01*
X76448560Y-33158527D01*
X76514023Y-33134108D01*
X76582297Y-33148958D01*
X76595746Y-33157465D01*
X76778462Y-33290217D01*
X76910599Y-33357544D01*
X76982244Y-33394049D01*
X77199751Y-33464721D01*
X77199752Y-33464721D01*
X77199755Y-33464722D01*
X77425646Y-33500500D01*
X77425647Y-33500500D01*
X77654353Y-33500500D01*
X77654354Y-33500500D01*
X77880245Y-33464722D01*
X77880248Y-33464721D01*
X77880249Y-33464721D01*
X78097755Y-33394049D01*
X78097755Y-33394048D01*
X78097758Y-33394048D01*
X78301538Y-33290217D01*
X78486566Y-33155786D01*
X78648286Y-32994066D01*
X78709683Y-32909559D01*
X78765012Y-32866896D01*
X78834625Y-32860917D01*
X78896420Y-32893523D01*
X78910314Y-32909556D01*
X78971714Y-32994066D01*
X79133434Y-33155786D01*
X79318462Y-33290217D01*
X79450599Y-33357544D01*
X79522244Y-33394049D01*
X79739751Y-33464721D01*
X79739752Y-33464721D01*
X79739755Y-33464722D01*
X79965646Y-33500500D01*
X79965647Y-33500500D01*
X80194353Y-33500500D01*
X80194354Y-33500500D01*
X80420245Y-33464722D01*
X80420248Y-33464721D01*
X80420249Y-33464721D01*
X80637755Y-33394049D01*
X80637755Y-33394048D01*
X80637758Y-33394048D01*
X80841538Y-33290217D01*
X81026566Y-33155786D01*
X81188286Y-32994066D01*
X81322717Y-32809038D01*
X81426548Y-32605258D01*
X81497222Y-32387745D01*
X81533000Y-32161854D01*
X81533000Y-31838146D01*
X81497222Y-31612255D01*
X81497221Y-31612251D01*
X81497221Y-31612250D01*
X81426549Y-31394744D01*
X81398482Y-31339660D01*
X81322717Y-31190962D01*
X81188286Y-31005934D01*
X81026566Y-30844214D01*
X80841538Y-30709783D01*
X80744499Y-30660339D01*
X80637755Y-30605950D01*
X80420248Y-30535278D01*
X80234812Y-30505908D01*
X80194354Y-30499500D01*
X79965646Y-30499500D01*
X79925188Y-30505908D01*
X79739753Y-30535278D01*
X79739750Y-30535278D01*
X79522244Y-30605950D01*
X79318461Y-30709783D01*
X79252550Y-30757671D01*
X79133434Y-30844214D01*
X79133432Y-30844216D01*
X79133431Y-30844216D01*
X78971715Y-31005932D01*
X78910318Y-31090438D01*
X78854987Y-31133103D01*
X78785374Y-31139082D01*
X78723579Y-31106476D01*
X78709682Y-31090438D01*
X78698773Y-31075423D01*
X78648286Y-31005934D01*
X78486566Y-30844214D01*
X78301538Y-30709783D01*
X78204499Y-30660339D01*
X78097755Y-30605950D01*
X77880248Y-30535278D01*
X77694812Y-30505908D01*
X77654354Y-30499500D01*
X77425646Y-30499500D01*
X77385188Y-30505908D01*
X77199753Y-30535278D01*
X77199750Y-30535278D01*
X76982244Y-30605950D01*
X76778461Y-30709783D01*
X76595759Y-30842525D01*
X76529952Y-30866005D01*
X76461898Y-30850180D01*
X76413203Y-30800074D01*
X76406690Y-30785538D01*
X76396296Y-30757669D01*
X76396293Y-30757664D01*
X76310047Y-30642455D01*
X76310044Y-30642452D01*
X76194835Y-30556206D01*
X76194828Y-30556202D01*
X76059982Y-30505908D01*
X76059983Y-30505908D01*
X76000383Y-30499501D01*
X76000381Y-30499500D01*
X76000373Y-30499500D01*
X76000364Y-30499500D01*
X73999629Y-30499500D01*
X73999623Y-30499501D01*
X73940016Y-30505908D01*
X73805171Y-30556202D01*
X73805164Y-30556206D01*
X73689955Y-30642452D01*
X73689952Y-30642455D01*
X73603706Y-30757664D01*
X73603702Y-30757671D01*
X73553408Y-30892517D01*
X73547001Y-30952116D01*
X73547000Y-30952135D01*
X39450500Y-30952135D01*
X39450500Y-30885837D01*
X39414784Y-30660339D01*
X39344229Y-30443196D01*
X39289550Y-30335884D01*
X39240579Y-30239772D01*
X39106379Y-30055063D01*
X38944937Y-29893621D01*
X38760228Y-29759421D01*
X38760227Y-29759420D01*
X38757811Y-29757665D01*
X38715146Y-29702334D01*
X38710210Y-29686655D01*
X35806821Y-17750499D01*
X35065327Y-14702135D01*
X45249500Y-14702135D01*
X45249500Y-17297870D01*
X45249501Y-17297876D01*
X45255908Y-17357483D01*
X45306202Y-17492328D01*
X45306206Y-17492335D01*
X45392452Y-17607544D01*
X45392455Y-17607547D01*
X45507664Y-17693793D01*
X45507671Y-17693797D01*
X45642517Y-17744091D01*
X45642516Y-17744091D01*
X45649444Y-17744835D01*
X45702127Y-17750500D01*
X48297872Y-17750499D01*
X48357483Y-17744091D01*
X48492331Y-17693796D01*
X48607546Y-17607546D01*
X48693796Y-17492331D01*
X48744091Y-17357483D01*
X48750500Y-17297873D01*
X48750499Y-14702128D01*
X48744091Y-14642517D01*
X48732696Y-14611966D01*
X48693797Y-14507671D01*
X48693793Y-14507664D01*
X48607547Y-14392455D01*
X48607544Y-14392452D01*
X48492335Y-14306206D01*
X48492328Y-14306202D01*
X48357482Y-14255908D01*
X48357483Y-14255908D01*
X48297883Y-14249501D01*
X48297881Y-14249500D01*
X48297873Y-14249500D01*
X48297864Y-14249500D01*
X45702129Y-14249500D01*
X45702123Y-14249501D01*
X45642516Y-14255908D01*
X45507671Y-14306202D01*
X45507664Y-14306206D01*
X45392455Y-14392452D01*
X45392452Y-14392455D01*
X45306206Y-14507664D01*
X45306202Y-14507671D01*
X45255908Y-14642517D01*
X45249501Y-14702116D01*
X45249501Y-14702123D01*
X45249500Y-14702135D01*
X35065327Y-14702135D01*
X34472074Y-12263206D01*
X34448995Y-12168160D01*
X34448921Y-12168001D01*
X34448877Y-12167819D01*
X34448866Y-12167789D01*
X34448863Y-12167784D01*
X34448863Y-12167781D01*
X34407098Y-12077894D01*
X34366022Y-11989397D01*
X34365903Y-11989234D01*
X34365818Y-11989051D01*
X34307554Y-11909359D01*
X34249768Y-11830255D01*
X34249767Y-11830253D01*
X34249502Y-11829957D01*
X34176116Y-11762525D01*
X34176116Y-11762524D01*
X34176112Y-11762522D01*
X34104700Y-11696852D01*
X34104555Y-11696764D01*
X34104424Y-11696643D01*
X34104373Y-11696605D01*
X34018285Y-11644203D01*
X34018281Y-11644201D01*
X33936395Y-11594313D01*
X33936210Y-11594245D01*
X33936034Y-11594138D01*
X33936020Y-11594132D01*
X33936017Y-11594131D01*
X33841862Y-11559715D01*
X33841821Y-11559685D01*
X33841817Y-11559699D01*
X33210429Y-11328624D01*
X33154239Y-11287098D01*
X33129419Y-11221785D01*
X33143850Y-11153422D01*
X33192950Y-11103713D01*
X33233647Y-11089704D01*
X33304534Y-11078477D01*
X33499219Y-11015220D01*
X33681610Y-10922287D01*
X33810482Y-10828657D01*
X33847213Y-10801971D01*
X33847215Y-10801968D01*
X33847219Y-10801966D01*
X33991966Y-10657219D01*
X33991968Y-10657215D01*
X33991971Y-10657213D01*
X34096892Y-10512799D01*
X34112287Y-10491610D01*
X34205220Y-10309219D01*
X34268477Y-10114534D01*
X34300500Y-9912352D01*
X34300500Y-9707648D01*
X34268477Y-9505466D01*
X34205220Y-9310781D01*
X34205218Y-9310778D01*
X34205218Y-9310776D01*
X34171503Y-9244607D01*
X34112287Y-9128390D01*
X34096892Y-9107200D01*
X33991971Y-8962786D01*
X33847213Y-8818028D01*
X33681613Y-8697715D01*
X33681612Y-8697714D01*
X33681610Y-8697713D01*
X33621898Y-8667288D01*
X33499223Y-8604781D01*
X33304534Y-8541522D01*
X33129995Y-8513878D01*
X33102352Y-8509500D01*
X32897648Y-8509500D01*
X32873329Y-8513351D01*
X32695465Y-8541522D01*
X32500776Y-8604781D01*
X32318386Y-8697715D01*
X32152786Y-8818028D01*
X32008028Y-8962786D01*
X31887715Y-9128386D01*
X31794781Y-9310776D01*
X31731522Y-9505465D01*
X31699500Y-9707648D01*
X31699500Y-9912351D01*
X31731522Y-10114534D01*
X31794781Y-10309223D01*
X31887712Y-10491609D01*
X31997849Y-10643201D01*
X32021328Y-10709008D01*
X32005502Y-10777062D01*
X31955396Y-10825756D01*
X31886918Y-10839631D01*
X31854913Y-10832533D01*
X30790820Y-10443097D01*
X30775483Y-10431762D01*
X30757716Y-10424845D01*
X30736286Y-10402795D01*
X30734630Y-10401571D01*
X30733118Y-10399535D01*
X30732289Y-10398394D01*
X30732287Y-10398390D01*
X30644180Y-10277120D01*
X30620702Y-10211315D01*
X30620500Y-10204237D01*
X30620500Y-9415761D01*
X30640185Y-9348722D01*
X30644165Y-9342899D01*
X30732287Y-9221610D01*
X30825220Y-9039219D01*
X30888477Y-8844534D01*
X30920500Y-8642352D01*
X30920500Y-8437648D01*
X30888477Y-8235466D01*
X30825220Y-8040781D01*
X30825218Y-8040778D01*
X30825218Y-8040776D01*
X30791503Y-7974607D01*
X30732287Y-7858390D01*
X30724556Y-7847749D01*
X30611971Y-7692786D01*
X30467213Y-7548028D01*
X30301614Y-7427715D01*
X30232406Y-7392452D01*
X30208917Y-7380483D01*
X30201094Y-7373094D01*
X30191006Y-7369344D01*
X30176138Y-7349525D01*
X30158123Y-7332511D01*
X30155535Y-7322062D01*
X30149077Y-7313453D01*
X30147284Y-7288741D01*
X30141328Y-7264690D01*
X30144799Y-7254501D01*
X30144021Y-7243767D01*
X30155872Y-7222009D01*
X30160766Y-7207648D01*
X36699500Y-7207648D01*
X36699500Y-7412351D01*
X36731522Y-7614534D01*
X36794781Y-7809223D01*
X36887715Y-7991613D01*
X37008028Y-8157213D01*
X37152782Y-8301967D01*
X37152787Y-8301971D01*
X37208640Y-8342551D01*
X37251306Y-8397881D01*
X37257285Y-8467494D01*
X37224679Y-8529289D01*
X37174761Y-8560574D01*
X37130669Y-8575185D01*
X37130666Y-8575186D01*
X37130663Y-8575187D01*
X36981342Y-8667289D01*
X36857289Y-8791342D01*
X36765187Y-8940663D01*
X36765186Y-8940666D01*
X36710001Y-9107203D01*
X36710001Y-9107204D01*
X36710000Y-9107204D01*
X36699500Y-9209983D01*
X36699500Y-10410001D01*
X36699501Y-10410018D01*
X36710000Y-10512796D01*
X36710001Y-10512799D01*
X36741398Y-10607547D01*
X36765186Y-10679334D01*
X36857288Y-10828656D01*
X36981344Y-10952712D01*
X37130666Y-11044814D01*
X37297203Y-11099999D01*
X37399991Y-11110500D01*
X38600008Y-11110499D01*
X38702797Y-11099999D01*
X38869334Y-11044814D01*
X39018656Y-10952712D01*
X39142712Y-10828656D01*
X39234814Y-10679334D01*
X39289999Y-10512797D01*
X39300500Y-10410009D01*
X39300499Y-9209992D01*
X39289999Y-9107203D01*
X39234814Y-8940666D01*
X39142712Y-8791344D01*
X39018656Y-8667288D01*
X38869334Y-8575186D01*
X38825239Y-8560574D01*
X38767795Y-8520802D01*
X38740972Y-8456286D01*
X38753287Y-8387510D01*
X38791359Y-8342550D01*
X38847219Y-8301966D01*
X38991966Y-8157219D01*
X38991968Y-8157215D01*
X38991971Y-8157213D01*
X39076566Y-8040776D01*
X39112287Y-7991610D01*
X39205220Y-7809219D01*
X39268477Y-7614534D01*
X39300500Y-7412352D01*
X39300500Y-7207648D01*
X39268477Y-7005466D01*
X39205220Y-6810781D01*
X39205218Y-6810778D01*
X39205218Y-6810776D01*
X39150199Y-6702797D01*
X39112287Y-6628390D01*
X39091667Y-6600009D01*
X38991971Y-6462786D01*
X38847213Y-6318028D01*
X38681613Y-6197715D01*
X38681612Y-6197714D01*
X38681610Y-6197713D01*
X38624653Y-6168691D01*
X38499223Y-6104781D01*
X38304534Y-6041522D01*
X38129995Y-6013878D01*
X38102352Y-6009500D01*
X37897648Y-6009500D01*
X37873329Y-6013351D01*
X37695465Y-6041522D01*
X37500776Y-6104781D01*
X37318386Y-6197715D01*
X37152786Y-6318028D01*
X37008028Y-6462786D01*
X36887715Y-6628386D01*
X36794781Y-6810776D01*
X36731522Y-7005465D01*
X36699500Y-7207648D01*
X30160766Y-7207648D01*
X30163865Y-7198555D01*
X30173176Y-7190242D01*
X30177443Y-7182409D01*
X30201772Y-7164713D01*
X30205675Y-7161229D01*
X30207275Y-7160352D01*
X30301610Y-7112287D01*
X30467219Y-6991966D01*
X30611966Y-6847219D01*
X30611968Y-6847215D01*
X30611971Y-6847213D01*
X30716892Y-6702799D01*
X30732287Y-6681610D01*
X30825220Y-6499219D01*
X30888477Y-6304534D01*
X30920500Y-6102352D01*
X30920500Y-5897648D01*
X30888477Y-5695466D01*
X30880364Y-5670498D01*
X30825218Y-5500776D01*
X30773865Y-5399991D01*
X30732287Y-5318390D01*
X30702566Y-5277482D01*
X30611971Y-5152786D01*
X30467213Y-5008028D01*
X30301613Y-4887715D01*
X30301612Y-4887714D01*
X30301610Y-4887713D01*
X30155490Y-4813261D01*
X30119223Y-4794781D01*
X29924534Y-4731522D01*
X29773798Y-4707648D01*
X31699500Y-4707648D01*
X31699500Y-4912351D01*
X31731522Y-5114534D01*
X31794781Y-5309223D01*
X31887715Y-5491613D01*
X32008028Y-5657213D01*
X32152786Y-5801971D01*
X32284477Y-5897648D01*
X32318390Y-5922287D01*
X32434607Y-5981503D01*
X32500776Y-6015218D01*
X32500778Y-6015218D01*
X32500781Y-6015220D01*
X32605137Y-6049127D01*
X32695465Y-6078477D01*
X32796557Y-6094488D01*
X32897648Y-6110500D01*
X32897649Y-6110500D01*
X33102351Y-6110500D01*
X33102352Y-6110500D01*
X33304534Y-6078477D01*
X33499219Y-6015220D01*
X33681610Y-5922287D01*
X33774590Y-5854732D01*
X33847213Y-5801971D01*
X33847215Y-5801968D01*
X33847219Y-5801966D01*
X33991966Y-5657219D01*
X33991968Y-5657215D01*
X33991971Y-5657213D01*
X34086178Y-5527546D01*
X34112287Y-5491610D01*
X34205220Y-5309219D01*
X34268477Y-5114534D01*
X34300500Y-4912352D01*
X34300500Y-4707648D01*
X34268477Y-4505466D01*
X34266447Y-4499219D01*
X34205218Y-4310776D01*
X34171503Y-4244607D01*
X34112287Y-4128390D01*
X34104556Y-4117749D01*
X33991971Y-3962786D01*
X33847213Y-3818028D01*
X33681613Y-3697715D01*
X33681612Y-3697714D01*
X33681610Y-3697713D01*
X33624653Y-3668691D01*
X33499223Y-3604781D01*
X33304534Y-3541522D01*
X33129995Y-3513878D01*
X33102352Y-3509500D01*
X32897648Y-3509500D01*
X32873329Y-3513351D01*
X32695465Y-3541522D01*
X32500776Y-3604781D01*
X32318386Y-3697715D01*
X32152786Y-3818028D01*
X32008028Y-3962786D01*
X31887715Y-4128386D01*
X31794781Y-4310776D01*
X31731522Y-4505465D01*
X31699500Y-4707648D01*
X29773798Y-4707648D01*
X29749995Y-4703878D01*
X29722352Y-4699500D01*
X29517648Y-4699500D01*
X29493329Y-4703351D01*
X29315465Y-4731522D01*
X29120776Y-4794781D01*
X28938386Y-4887715D01*
X28772786Y-5008028D01*
X28628028Y-5152786D01*
X28507715Y-5318386D01*
X28414781Y-5500776D01*
X28351522Y-5695465D01*
X28319500Y-5897648D01*
X23300499Y-5897648D01*
X23300499Y-5399992D01*
X23289999Y-5297203D01*
X23234814Y-5130666D01*
X23142712Y-4981344D01*
X23018656Y-4857288D01*
X22869334Y-4765186D01*
X22702797Y-4710001D01*
X22702795Y-4710000D01*
X22600010Y-4699500D01*
X21399998Y-4699500D01*
X21399981Y-4699501D01*
X21297203Y-4710000D01*
X21297200Y-4710001D01*
X21130668Y-4765185D01*
X21130663Y-4765187D01*
X20981342Y-4857289D01*
X20857289Y-4981342D01*
X20765187Y-5130663D01*
X20765186Y-5130666D01*
X20710001Y-5297203D01*
X20710001Y-5297204D01*
X20710000Y-5297204D01*
X20699500Y-5399983D01*
X4698402Y-5399983D01*
X4744091Y-5277483D01*
X4750500Y-5217873D01*
X4750499Y-3897648D01*
X6699500Y-3897648D01*
X6699500Y-4102351D01*
X6731522Y-4304534D01*
X6794781Y-4499223D01*
X6887715Y-4681613D01*
X7008028Y-4847213D01*
X7152786Y-4991971D01*
X7307749Y-5104556D01*
X7318390Y-5112287D01*
X7397864Y-5152781D01*
X7500776Y-5205218D01*
X7500778Y-5205218D01*
X7500781Y-5205220D01*
X7539754Y-5217883D01*
X7695465Y-5268477D01*
X7796557Y-5284488D01*
X7897648Y-5300500D01*
X7897649Y-5300500D01*
X8102351Y-5300500D01*
X8102352Y-5300500D01*
X8304534Y-5268477D01*
X8499219Y-5205220D01*
X8681610Y-5112287D01*
X8774590Y-5044732D01*
X8847213Y-4991971D01*
X8847215Y-4991968D01*
X8847219Y-4991966D01*
X8991966Y-4847219D01*
X8991968Y-4847215D01*
X8991971Y-4847213D01*
X9062236Y-4750500D01*
X9112287Y-4681610D01*
X9205220Y-4499219D01*
X9268477Y-4304534D01*
X9300500Y-4102352D01*
X9300500Y-3897648D01*
X16859500Y-3897648D01*
X16859500Y-4102351D01*
X16891522Y-4304534D01*
X16954781Y-4499223D01*
X17047715Y-4681613D01*
X17168028Y-4847213D01*
X17312786Y-4991971D01*
X17467749Y-5104556D01*
X17478390Y-5112287D01*
X17557864Y-5152781D01*
X17660776Y-5205218D01*
X17660778Y-5205218D01*
X17660781Y-5205220D01*
X17699754Y-5217883D01*
X17855465Y-5268477D01*
X17956557Y-5284488D01*
X18057648Y-5300500D01*
X18057649Y-5300500D01*
X18262351Y-5300500D01*
X18262352Y-5300500D01*
X18371353Y-5283235D01*
X18427385Y-5274361D01*
X18464534Y-5268477D01*
X18659219Y-5205220D01*
X18841610Y-5112287D01*
X18934590Y-5044732D01*
X19007213Y-4991971D01*
X19007215Y-4991968D01*
X19007219Y-4991966D01*
X19151966Y-4847219D01*
X19151968Y-4847215D01*
X19151971Y-4847213D01*
X19222236Y-4750500D01*
X19272287Y-4681610D01*
X19365220Y-4499219D01*
X19428477Y-4304534D01*
X19460500Y-4102352D01*
X19460500Y-3897648D01*
X19428477Y-3695466D01*
X19365220Y-3500781D01*
X19365218Y-3500778D01*
X19365218Y-3500776D01*
X19331503Y-3434607D01*
X19272287Y-3318390D01*
X19264556Y-3307749D01*
X19151971Y-3152786D01*
X19007213Y-3008028D01*
X18841613Y-2887715D01*
X18841612Y-2887714D01*
X18841610Y-2887713D01*
X18784653Y-2858691D01*
X18659223Y-2794781D01*
X18464534Y-2731522D01*
X18289995Y-2703878D01*
X18262352Y-2699500D01*
X18057648Y-2699500D01*
X18033329Y-2703351D01*
X17855465Y-2731522D01*
X17660776Y-2794781D01*
X17478386Y-2887715D01*
X17312786Y-3008028D01*
X17168028Y-3152786D01*
X17047715Y-3318386D01*
X16954781Y-3500776D01*
X16891522Y-3695465D01*
X16859500Y-3897648D01*
X9300500Y-3897648D01*
X9268477Y-3695466D01*
X9205220Y-3500781D01*
X9205218Y-3500778D01*
X9205218Y-3500776D01*
X9171503Y-3434607D01*
X9112287Y-3318390D01*
X9104556Y-3307749D01*
X8991971Y-3152786D01*
X8847213Y-3008028D01*
X8681613Y-2887715D01*
X8681612Y-2887714D01*
X8681610Y-2887713D01*
X8624653Y-2858691D01*
X8499223Y-2794781D01*
X8304534Y-2731522D01*
X8129995Y-2703878D01*
X8102352Y-2699500D01*
X7897648Y-2699500D01*
X7873329Y-2703351D01*
X7695465Y-2731522D01*
X7500776Y-2794781D01*
X7318386Y-2887715D01*
X7152786Y-3008028D01*
X7008028Y-3152786D01*
X6887715Y-3318386D01*
X6794781Y-3500776D01*
X6731522Y-3695465D01*
X6699500Y-3897648D01*
X4750499Y-3897648D01*
X4750499Y-2622128D01*
X4744091Y-2562517D01*
X4693796Y-2427669D01*
X4693795Y-2427668D01*
X4693793Y-2427664D01*
X4607547Y-2312455D01*
X4607544Y-2312452D01*
X4492335Y-2226206D01*
X4492328Y-2226202D01*
X4357482Y-2175908D01*
X4357483Y-2175908D01*
X4297883Y-2169501D01*
X4297881Y-2169500D01*
X4297873Y-2169500D01*
X4297864Y-2169500D01*
X1702129Y-2169500D01*
X1702123Y-2169501D01*
X1642516Y-2175908D01*
X1507671Y-2226202D01*
X1507664Y-2226206D01*
X1392455Y-2312452D01*
X1392452Y-2312455D01*
X1306206Y-2427664D01*
X1306202Y-2427671D01*
X1255908Y-2562517D01*
X1249501Y-2622116D01*
X1249501Y-2622123D01*
X1249500Y-2622135D01*
X500500Y-2622135D01*
X500500Y-1702135D01*
X45249500Y-1702135D01*
X45249500Y-4297870D01*
X45249501Y-4297876D01*
X45255908Y-4357483D01*
X45306202Y-4492328D01*
X45306206Y-4492335D01*
X45392452Y-4607544D01*
X45392455Y-4607547D01*
X45507664Y-4693793D01*
X45507671Y-4693797D01*
X45642517Y-4744091D01*
X45642516Y-4744091D01*
X45649444Y-4744835D01*
X45702127Y-4750500D01*
X48297872Y-4750499D01*
X48357483Y-4744091D01*
X48492331Y-4693796D01*
X48607546Y-4607546D01*
X48693796Y-4492331D01*
X48744091Y-4357483D01*
X48750500Y-4297873D01*
X48750499Y-1702128D01*
X48744091Y-1642517D01*
X48693796Y-1507669D01*
X48693795Y-1507668D01*
X48693793Y-1507664D01*
X48607547Y-1392455D01*
X48607544Y-1392452D01*
X48492335Y-1306206D01*
X48492328Y-1306202D01*
X48357482Y-1255908D01*
X48357483Y-1255908D01*
X48297883Y-1249501D01*
X48297881Y-1249500D01*
X48297873Y-1249500D01*
X48297864Y-1249500D01*
X45702129Y-1249500D01*
X45702123Y-1249501D01*
X45642516Y-1255908D01*
X45507671Y-1306202D01*
X45507664Y-1306206D01*
X45392455Y-1392452D01*
X45392452Y-1392455D01*
X45306206Y-1507664D01*
X45306202Y-1507671D01*
X45255908Y-1642517D01*
X45249501Y-1702116D01*
X45249501Y-1702123D01*
X45249500Y-1702135D01*
X500500Y-1702135D01*
X500500Y-624500D01*
X520185Y-557461D01*
X572989Y-511706D01*
X624500Y-500500D01*
X99375500Y-500500D01*
X99442539Y-520185D01*
G37*
%TD.AperFunction*%
%TD*%
M02*
