M48
;FILE_FORMAT=4:4
;TYPE=PLATED
METRIC,LZ,000.000
;IGBT PCB drills
T01C0.800
T02C0.900
T03C1.000
T04C1.200
T05C1.400
T06C1.500
T07C1.600
T08C3.200
%
G90
G05
T01
X30.000Y9.000
X30.000Y14.000
X33.500Y9.000
X33.500Y14.000
T02
X8.000Y7.500
X15.000Y7.500
X18.730Y7.190
X18.730Y9.730
X18.730Y12.270
X18.730Y14.810
X26.350Y14.810
X26.350Y12.270
X26.350Y9.730
X26.350Y7.190
X38.000Y17.000
X38.000Y25.000
X35.500Y34.500
X40.500Y34.500
X54.350Y30.000
X60.150Y30.000
X33.000Y4.000
X47.000Y18.000
X32.000Y29.000
X47.000Y25.000
X60.000Y33.000
X72.000Y32.000
X28.000Y50.000
X60.000Y50.000
X85.000Y55.000
T03
X38.000Y31.500
X43.450Y31.500
T04
X67.000Y38.000
X78.500Y38.000
T05
X84.000Y38.000
X86.540Y34.000
X89.080Y38.000
T06
X5.000Y7.500
X5.000Y12.580
X32.000Y7.190
X32.000Y17.000
X48.900Y24.000
X64.100Y24.000
T07
X38.000Y38.000
X43.450Y38.000
X48.900Y38.000
X54.350Y38.000
T08
X20.000Y60.000
X95.000Y60.000
T00
M30
