%TF.GenerationSoftware,KiCad,Pcbnew,10.0.3*%
%TF.CreationDate,2026-05-16T17:39:07-05:00*%
%TF.ProjectId,igbt_pcb,69676274-5f70-4636-922e-6b696361645f,rev?*%
%TF.SameCoordinates,Original*%
%TF.FileFunction,Soldermask,Top*%
%TF.FilePolarity,Negative*%
%FSLAX46Y46*%
G04 Gerber Fmt 4.6, Leading zero omitted, Abs format (unit mm)*
G04 Created by KiCad (PCBNEW 10.0.3) date 2026-05-16 17:39:07*
%MOMM*%
%LPD*%
G01*
G04 APERTURE LIST*
G04 APERTURE END LIST*
G36*
X87769134Y-63203806D02*
G01*
X87785355Y-63214645D01*
X87796194Y-63230866D01*
X87800000Y-63250000D01*
X87800000Y-67750000D01*
X87796194Y-67769134D01*
X87785355Y-67785355D01*
X87769134Y-67796194D01*
X87750000Y-67800000D01*
X83250000Y-67800000D01*
X83230866Y-67796194D01*
X83214645Y-67785355D01*
X83203806Y-67769134D01*
X83200000Y-67750000D01*
X83200000Y-63250000D01*
X83203806Y-63230866D01*
X83214645Y-63214645D01*
X83230866Y-63203806D01*
X83250000Y-63200000D01*
X87750000Y-63200000D01*
X87769134Y-63203806D01*
G37*
G36*
X98769134Y-58703806D02*
G01*
X98785355Y-58714645D01*
X98796194Y-58730866D01*
X98800000Y-58750000D01*
X98800000Y-63250000D01*
X98796194Y-63269134D01*
X98785355Y-63285355D01*
X98769134Y-63296194D01*
X98750000Y-63300000D01*
X94250000Y-63300000D01*
X94230866Y-63296194D01*
X94214645Y-63285355D01*
X94203806Y-63269134D01*
X94200000Y-63250000D01*
X94200000Y-58750000D01*
X94203806Y-58730866D01*
X94214645Y-58714645D01*
X94230866Y-58703806D01*
X94250000Y-58700000D01*
X98750000Y-58700000D01*
X98769134Y-58703806D01*
G37*
G36*
X22269134Y-57703806D02*
G01*
X22285355Y-57714645D01*
X22296194Y-57730866D01*
X22300000Y-57750000D01*
X22300000Y-62250000D01*
X22296194Y-62269134D01*
X22285355Y-62285355D01*
X22269134Y-62296194D01*
X22250000Y-62300000D01*
X17750000Y-62300000D01*
X17730866Y-62296194D01*
X17714645Y-62285355D01*
X17703806Y-62269134D01*
X17700000Y-62250000D01*
X17700000Y-57750000D01*
X17703806Y-57730866D01*
X17714645Y-57714645D01*
X17730866Y-57703806D01*
X17750000Y-57700000D01*
X22250000Y-57700000D01*
X22269134Y-57703806D01*
G37*
G36*
X46971634Y-52703806D02*
G01*
X46987855Y-52714645D01*
X46998694Y-52730866D01*
X47002500Y-52750000D01*
X47002500Y-57250000D01*
X46998694Y-57269134D01*
X46987855Y-57285355D01*
X46971634Y-57296194D01*
X46952500Y-57300000D01*
X45047500Y-57300000D01*
X45028366Y-57296194D01*
X45012145Y-57285355D01*
X45001306Y-57269134D01*
X44997500Y-57250000D01*
X44997500Y-52750000D01*
X45001306Y-52730866D01*
X45012145Y-52714645D01*
X45028366Y-52703806D01*
X45047500Y-52700000D01*
X46952500Y-52700000D01*
X46971634Y-52703806D01*
G37*
G36*
X51167156Y-52704827D02*
G01*
X51178262Y-52704827D01*
X51221664Y-52713460D01*
X51313938Y-52728075D01*
X51343616Y-52737718D01*
X51371010Y-52743167D01*
X51409665Y-52759178D01*
X51463492Y-52776668D01*
X51513923Y-52802364D01*
X51552575Y-52818374D01*
X51575792Y-52833887D01*
X51603602Y-52848057D01*
X51679199Y-52902981D01*
X51715979Y-52927557D01*
X51723828Y-52935406D01*
X51730817Y-52940484D01*
X51842015Y-53051682D01*
X51847092Y-53058670D01*
X51854943Y-53066521D01*
X51879521Y-53103305D01*
X51934442Y-53178897D01*
X51948610Y-53206704D01*
X51964126Y-53229925D01*
X51980137Y-53268581D01*
X52005831Y-53319007D01*
X52023318Y-53372826D01*
X52039333Y-53411490D01*
X52044783Y-53438889D01*
X52054424Y-53468561D01*
X52069037Y-53560823D01*
X52077673Y-53604238D01*
X52078463Y-53620339D01*
X52079409Y-53626306D01*
X52082015Y-53692646D01*
X52082500Y-53702500D01*
X52082500Y-56297500D01*
X52082015Y-56307357D01*
X52079409Y-56373693D01*
X52078464Y-56379659D01*
X52077673Y-56395762D01*
X52069036Y-56439180D01*
X52054424Y-56531438D01*
X52044783Y-56561108D01*
X52039333Y-56588510D01*
X52023316Y-56627176D01*
X52005831Y-56680992D01*
X51980140Y-56731413D01*
X51964126Y-56770075D01*
X51948608Y-56793299D01*
X51934442Y-56821102D01*
X51879529Y-56896682D01*
X51854943Y-56933479D01*
X51847089Y-56941332D01*
X51842015Y-56948317D01*
X51730817Y-57059515D01*
X51723832Y-57064589D01*
X51715979Y-57072443D01*
X51679182Y-57097029D01*
X51603602Y-57151942D01*
X51575799Y-57166108D01*
X51552575Y-57181626D01*
X51513913Y-57197640D01*
X51463492Y-57223331D01*
X51409676Y-57240816D01*
X51371010Y-57256833D01*
X51343608Y-57262283D01*
X51313938Y-57271924D01*
X51221674Y-57286537D01*
X51178262Y-57295173D01*
X51167156Y-57295173D01*
X51158626Y-57296524D01*
X51001374Y-57296524D01*
X50992844Y-57295173D01*
X50981738Y-57295173D01*
X50938326Y-57286537D01*
X50846061Y-57271924D01*
X50816389Y-57262283D01*
X50788990Y-57256833D01*
X50750326Y-57240818D01*
X50696507Y-57223331D01*
X50646081Y-57197637D01*
X50607425Y-57181626D01*
X50584204Y-57166110D01*
X50556397Y-57151942D01*
X50480805Y-57097021D01*
X50444021Y-57072443D01*
X50436170Y-57064592D01*
X50429182Y-57059515D01*
X50317984Y-56948317D01*
X50312906Y-56941328D01*
X50305057Y-56933479D01*
X50280481Y-56896699D01*
X50225557Y-56821102D01*
X50211387Y-56793292D01*
X50195874Y-56770075D01*
X50179864Y-56731423D01*
X50154168Y-56680992D01*
X50136678Y-56627165D01*
X50120667Y-56588510D01*
X50115218Y-56561116D01*
X50105575Y-56531438D01*
X50090958Y-56439155D01*
X50082327Y-56395762D01*
X50081536Y-56379668D01*
X50080590Y-56373693D01*
X50077983Y-56307341D01*
X50077500Y-56297500D01*
X50077500Y-53702500D01*
X50077983Y-53692662D01*
X50080590Y-53626306D01*
X50081536Y-53620330D01*
X50082327Y-53604238D01*
X50090957Y-53560848D01*
X50105575Y-53468561D01*
X50115218Y-53438881D01*
X50120667Y-53411490D01*
X50136677Y-53372837D01*
X50154168Y-53319007D01*
X50179866Y-53268570D01*
X50195874Y-53229925D01*
X50211385Y-53206710D01*
X50225557Y-53178897D01*
X50280490Y-53103287D01*
X50305057Y-53066521D01*
X50312904Y-53058673D01*
X50317984Y-53051682D01*
X50429182Y-52940484D01*
X50436173Y-52935404D01*
X50444021Y-52927557D01*
X50480787Y-52902990D01*
X50556397Y-52848057D01*
X50584210Y-52833885D01*
X50607425Y-52818374D01*
X50646070Y-52802366D01*
X50696507Y-52776668D01*
X50750337Y-52759177D01*
X50788990Y-52743167D01*
X50816381Y-52737718D01*
X50846061Y-52728075D01*
X50938336Y-52713460D01*
X50981738Y-52704827D01*
X50992844Y-52704827D01*
X51001374Y-52703476D01*
X51158626Y-52703476D01*
X51167156Y-52704827D01*
G37*
G36*
X53707156Y-52704827D02*
G01*
X53718262Y-52704827D01*
X53761664Y-52713460D01*
X53853938Y-52728075D01*
X53883616Y-52737718D01*
X53911010Y-52743167D01*
X53949665Y-52759178D01*
X54003492Y-52776668D01*
X54053923Y-52802364D01*
X54092575Y-52818374D01*
X54115792Y-52833887D01*
X54143602Y-52848057D01*
X54219199Y-52902981D01*
X54255979Y-52927557D01*
X54263828Y-52935406D01*
X54270817Y-52940484D01*
X54382015Y-53051682D01*
X54387092Y-53058670D01*
X54394943Y-53066521D01*
X54419521Y-53103305D01*
X54474442Y-53178897D01*
X54488610Y-53206704D01*
X54504126Y-53229925D01*
X54520137Y-53268581D01*
X54545831Y-53319007D01*
X54563318Y-53372826D01*
X54579333Y-53411490D01*
X54584783Y-53438889D01*
X54594424Y-53468561D01*
X54609037Y-53560823D01*
X54617673Y-53604238D01*
X54618463Y-53620339D01*
X54619409Y-53626306D01*
X54622015Y-53692646D01*
X54622500Y-53702500D01*
X54622500Y-56297500D01*
X54622015Y-56307357D01*
X54619409Y-56373693D01*
X54618464Y-56379659D01*
X54617673Y-56395762D01*
X54609036Y-56439180D01*
X54594424Y-56531438D01*
X54584783Y-56561108D01*
X54579333Y-56588510D01*
X54563316Y-56627176D01*
X54545831Y-56680992D01*
X54520140Y-56731413D01*
X54504126Y-56770075D01*
X54488608Y-56793299D01*
X54474442Y-56821102D01*
X54419529Y-56896682D01*
X54394943Y-56933479D01*
X54387089Y-56941332D01*
X54382015Y-56948317D01*
X54270817Y-57059515D01*
X54263832Y-57064589D01*
X54255979Y-57072443D01*
X54219182Y-57097029D01*
X54143602Y-57151942D01*
X54115799Y-57166108D01*
X54092575Y-57181626D01*
X54053913Y-57197640D01*
X54003492Y-57223331D01*
X53949676Y-57240816D01*
X53911010Y-57256833D01*
X53883608Y-57262283D01*
X53853938Y-57271924D01*
X53761674Y-57286537D01*
X53718262Y-57295173D01*
X53707156Y-57295173D01*
X53698626Y-57296524D01*
X53541374Y-57296524D01*
X53532844Y-57295173D01*
X53521738Y-57295173D01*
X53478326Y-57286537D01*
X53386061Y-57271924D01*
X53356389Y-57262283D01*
X53328990Y-57256833D01*
X53290326Y-57240818D01*
X53236507Y-57223331D01*
X53186081Y-57197637D01*
X53147425Y-57181626D01*
X53124204Y-57166110D01*
X53096397Y-57151942D01*
X53020805Y-57097021D01*
X52984021Y-57072443D01*
X52976170Y-57064592D01*
X52969182Y-57059515D01*
X52857984Y-56948317D01*
X52852906Y-56941328D01*
X52845057Y-56933479D01*
X52820481Y-56896699D01*
X52765557Y-56821102D01*
X52751387Y-56793292D01*
X52735874Y-56770075D01*
X52719864Y-56731423D01*
X52694168Y-56680992D01*
X52676678Y-56627165D01*
X52660667Y-56588510D01*
X52655218Y-56561116D01*
X52645575Y-56531438D01*
X52630958Y-56439155D01*
X52622327Y-56395762D01*
X52621536Y-56379668D01*
X52620590Y-56373693D01*
X52617983Y-56307341D01*
X52617500Y-56297500D01*
X52617500Y-53702500D01*
X52617983Y-53692662D01*
X52620590Y-53626306D01*
X52621536Y-53620330D01*
X52622327Y-53604238D01*
X52630957Y-53560848D01*
X52645575Y-53468561D01*
X52655218Y-53438881D01*
X52660667Y-53411490D01*
X52676677Y-53372837D01*
X52694168Y-53319007D01*
X52719866Y-53268570D01*
X52735874Y-53229925D01*
X52751385Y-53206710D01*
X52765557Y-53178897D01*
X52820490Y-53103287D01*
X52845057Y-53066521D01*
X52852904Y-53058673D01*
X52857984Y-53051682D01*
X52969182Y-52940484D01*
X52976173Y-52935404D01*
X52984021Y-52927557D01*
X53020787Y-52902990D01*
X53096397Y-52848057D01*
X53124210Y-52833885D01*
X53147425Y-52818374D01*
X53186070Y-52802366D01*
X53236507Y-52776668D01*
X53290337Y-52759177D01*
X53328990Y-52743167D01*
X53356381Y-52737718D01*
X53386061Y-52728075D01*
X53478336Y-52713460D01*
X53521738Y-52704827D01*
X53532844Y-52704827D01*
X53541374Y-52703476D01*
X53698626Y-52703476D01*
X53707156Y-52704827D01*
G37*
G36*
X56247156Y-52704827D02*
G01*
X56258262Y-52704827D01*
X56301664Y-52713460D01*
X56393938Y-52728075D01*
X56423616Y-52737718D01*
X56451010Y-52743167D01*
X56489665Y-52759178D01*
X56543492Y-52776668D01*
X56593923Y-52802364D01*
X56632575Y-52818374D01*
X56655792Y-52833887D01*
X56683602Y-52848057D01*
X56759199Y-52902981D01*
X56795979Y-52927557D01*
X56803828Y-52935406D01*
X56810817Y-52940484D01*
X56922015Y-53051682D01*
X56927092Y-53058670D01*
X56934943Y-53066521D01*
X56959521Y-53103305D01*
X57014442Y-53178897D01*
X57028610Y-53206704D01*
X57044126Y-53229925D01*
X57060137Y-53268581D01*
X57085831Y-53319007D01*
X57103318Y-53372826D01*
X57119333Y-53411490D01*
X57124783Y-53438889D01*
X57134424Y-53468561D01*
X57149037Y-53560823D01*
X57157673Y-53604238D01*
X57158463Y-53620339D01*
X57159409Y-53626306D01*
X57162015Y-53692646D01*
X57162500Y-53702500D01*
X57162500Y-56297500D01*
X57162015Y-56307357D01*
X57159409Y-56373693D01*
X57158464Y-56379659D01*
X57157673Y-56395762D01*
X57149036Y-56439180D01*
X57134424Y-56531438D01*
X57124783Y-56561108D01*
X57119333Y-56588510D01*
X57103316Y-56627176D01*
X57085831Y-56680992D01*
X57060140Y-56731413D01*
X57044126Y-56770075D01*
X57028608Y-56793299D01*
X57014442Y-56821102D01*
X56959529Y-56896682D01*
X56934943Y-56933479D01*
X56927089Y-56941332D01*
X56922015Y-56948317D01*
X56810817Y-57059515D01*
X56803832Y-57064589D01*
X56795979Y-57072443D01*
X56759182Y-57097029D01*
X56683602Y-57151942D01*
X56655799Y-57166108D01*
X56632575Y-57181626D01*
X56593913Y-57197640D01*
X56543492Y-57223331D01*
X56489676Y-57240816D01*
X56451010Y-57256833D01*
X56423608Y-57262283D01*
X56393938Y-57271924D01*
X56301674Y-57286537D01*
X56258262Y-57295173D01*
X56247156Y-57295173D01*
X56238626Y-57296524D01*
X56081374Y-57296524D01*
X56072844Y-57295173D01*
X56061738Y-57295173D01*
X56018326Y-57286537D01*
X55926061Y-57271924D01*
X55896389Y-57262283D01*
X55868990Y-57256833D01*
X55830326Y-57240818D01*
X55776507Y-57223331D01*
X55726081Y-57197637D01*
X55687425Y-57181626D01*
X55664204Y-57166110D01*
X55636397Y-57151942D01*
X55560805Y-57097021D01*
X55524021Y-57072443D01*
X55516170Y-57064592D01*
X55509182Y-57059515D01*
X55397984Y-56948317D01*
X55392906Y-56941328D01*
X55385057Y-56933479D01*
X55360481Y-56896699D01*
X55305557Y-56821102D01*
X55291387Y-56793292D01*
X55275874Y-56770075D01*
X55259864Y-56731423D01*
X55234168Y-56680992D01*
X55216678Y-56627165D01*
X55200667Y-56588510D01*
X55195218Y-56561116D01*
X55185575Y-56531438D01*
X55170958Y-56439155D01*
X55162327Y-56395762D01*
X55161536Y-56379668D01*
X55160590Y-56373693D01*
X55157983Y-56307341D01*
X55157500Y-56297500D01*
X55157500Y-53702500D01*
X55157983Y-53692662D01*
X55160590Y-53626306D01*
X55161536Y-53620330D01*
X55162327Y-53604238D01*
X55170957Y-53560848D01*
X55185575Y-53468561D01*
X55195218Y-53438881D01*
X55200667Y-53411490D01*
X55216677Y-53372837D01*
X55234168Y-53319007D01*
X55259866Y-53268570D01*
X55275874Y-53229925D01*
X55291385Y-53206710D01*
X55305557Y-53178897D01*
X55360490Y-53103287D01*
X55385057Y-53066521D01*
X55392904Y-53058673D01*
X55397984Y-53051682D01*
X55509182Y-52940484D01*
X55516173Y-52935404D01*
X55524021Y-52927557D01*
X55560787Y-52902990D01*
X55636397Y-52848057D01*
X55664210Y-52833885D01*
X55687425Y-52818374D01*
X55726070Y-52802366D01*
X55776507Y-52776668D01*
X55830337Y-52759177D01*
X55868990Y-52743167D01*
X55896381Y-52737718D01*
X55926061Y-52728075D01*
X56018336Y-52713460D01*
X56061738Y-52704827D01*
X56072844Y-52704827D01*
X56081374Y-52703476D01*
X56238626Y-52703476D01*
X56247156Y-52704827D01*
G37*
G36*
X85232228Y-54234448D02*
G01*
X85377117Y-54294463D01*
X85507515Y-54381592D01*
X85618408Y-54492485D01*
X85705537Y-54622883D01*
X85765552Y-54767772D01*
X85796148Y-54921586D01*
X85796148Y-55078414D01*
X85765552Y-55232228D01*
X85705537Y-55377117D01*
X85618408Y-55507515D01*
X85507515Y-55618408D01*
X85377117Y-55705537D01*
X85232228Y-55765552D01*
X85078414Y-55796148D01*
X84921586Y-55796148D01*
X84767772Y-55765552D01*
X84622883Y-55705537D01*
X84492485Y-55618408D01*
X84381592Y-55507515D01*
X84294463Y-55377117D01*
X84234448Y-55232228D01*
X84203852Y-55078414D01*
X84203852Y-54921586D01*
X84234448Y-54767772D01*
X84294463Y-54622883D01*
X84381592Y-54492485D01*
X84492485Y-54381592D01*
X84622883Y-54294463D01*
X84767772Y-54234448D01*
X84921586Y-54203852D01*
X85078414Y-54203852D01*
X85232228Y-54234448D01*
G37*
G36*
X86971634Y-48953806D02*
G01*
X86987855Y-48964645D01*
X86998694Y-48980866D01*
X87002500Y-49000000D01*
X87002500Y-51000000D01*
X86998694Y-51019134D01*
X86987855Y-51035355D01*
X86971634Y-51046194D01*
X86952500Y-51050000D01*
X85047500Y-51050000D01*
X85028366Y-51046194D01*
X85012145Y-51035355D01*
X85001306Y-51019134D01*
X84997500Y-51000000D01*
X84997500Y-49000000D01*
X85001306Y-48980866D01*
X85012145Y-48964645D01*
X85028366Y-48953806D01*
X85047500Y-48950000D01*
X86952500Y-48950000D01*
X86971634Y-48953806D01*
G37*
G36*
X88627156Y-48954827D02*
G01*
X88638262Y-48954827D01*
X88681664Y-48963460D01*
X88773938Y-48978075D01*
X88803616Y-48987718D01*
X88831010Y-48993167D01*
X88869665Y-49009178D01*
X88923492Y-49026668D01*
X88973923Y-49052364D01*
X89012575Y-49068374D01*
X89035792Y-49083887D01*
X89063602Y-49098057D01*
X89139199Y-49152981D01*
X89175979Y-49177557D01*
X89183828Y-49185406D01*
X89190817Y-49190484D01*
X89302015Y-49301682D01*
X89307092Y-49308670D01*
X89314943Y-49316521D01*
X89339521Y-49353305D01*
X89394442Y-49428897D01*
X89408610Y-49456704D01*
X89424126Y-49479925D01*
X89440137Y-49518581D01*
X89465831Y-49569007D01*
X89483318Y-49622826D01*
X89499333Y-49661490D01*
X89504783Y-49688889D01*
X89514424Y-49718561D01*
X89529037Y-49810823D01*
X89537673Y-49854238D01*
X89538463Y-49870339D01*
X89539409Y-49876306D01*
X89542015Y-49942646D01*
X89542500Y-49952500D01*
X89542500Y-50047500D01*
X89542015Y-50057357D01*
X89539409Y-50123693D01*
X89538464Y-50129659D01*
X89537673Y-50145762D01*
X89529036Y-50189180D01*
X89514424Y-50281438D01*
X89504783Y-50311108D01*
X89499333Y-50338510D01*
X89483316Y-50377176D01*
X89465831Y-50430992D01*
X89440140Y-50481413D01*
X89424126Y-50520075D01*
X89408608Y-50543299D01*
X89394442Y-50571102D01*
X89339529Y-50646682D01*
X89314943Y-50683479D01*
X89307089Y-50691332D01*
X89302015Y-50698317D01*
X89190817Y-50809515D01*
X89183832Y-50814589D01*
X89175979Y-50822443D01*
X89139182Y-50847029D01*
X89063602Y-50901942D01*
X89035799Y-50916108D01*
X89012575Y-50931626D01*
X88973913Y-50947640D01*
X88923492Y-50973331D01*
X88869676Y-50990816D01*
X88831010Y-51006833D01*
X88803608Y-51012283D01*
X88773938Y-51021924D01*
X88681674Y-51036537D01*
X88638262Y-51045173D01*
X88627156Y-51045173D01*
X88618626Y-51046524D01*
X88461374Y-51046524D01*
X88452844Y-51045173D01*
X88441738Y-51045173D01*
X88398326Y-51036537D01*
X88306061Y-51021924D01*
X88276389Y-51012283D01*
X88248990Y-51006833D01*
X88210326Y-50990818D01*
X88156507Y-50973331D01*
X88106081Y-50947637D01*
X88067425Y-50931626D01*
X88044204Y-50916110D01*
X88016397Y-50901942D01*
X87940805Y-50847021D01*
X87904021Y-50822443D01*
X87896170Y-50814592D01*
X87889182Y-50809515D01*
X87777984Y-50698317D01*
X87772906Y-50691328D01*
X87765057Y-50683479D01*
X87740481Y-50646699D01*
X87685557Y-50571102D01*
X87671387Y-50543292D01*
X87655874Y-50520075D01*
X87639864Y-50481423D01*
X87614168Y-50430992D01*
X87596678Y-50377165D01*
X87580667Y-50338510D01*
X87575218Y-50311116D01*
X87565575Y-50281438D01*
X87550958Y-50189155D01*
X87542327Y-50145762D01*
X87541536Y-50129668D01*
X87540590Y-50123693D01*
X87537983Y-50057341D01*
X87537500Y-50047500D01*
X87537500Y-49952500D01*
X87537983Y-49942662D01*
X87540590Y-49876306D01*
X87541536Y-49870330D01*
X87542327Y-49854238D01*
X87550957Y-49810848D01*
X87565575Y-49718561D01*
X87575218Y-49688881D01*
X87580667Y-49661490D01*
X87596677Y-49622837D01*
X87614168Y-49569007D01*
X87639866Y-49518570D01*
X87655874Y-49479925D01*
X87671385Y-49456710D01*
X87685557Y-49428897D01*
X87740490Y-49353287D01*
X87765057Y-49316521D01*
X87772904Y-49308673D01*
X87777984Y-49301682D01*
X87889182Y-49190484D01*
X87896173Y-49185404D01*
X87904021Y-49177557D01*
X87940787Y-49152990D01*
X88016397Y-49098057D01*
X88044210Y-49083885D01*
X88067425Y-49068374D01*
X88106070Y-49052366D01*
X88156507Y-49026668D01*
X88210337Y-49009177D01*
X88248990Y-48993167D01*
X88276381Y-48987718D01*
X88306061Y-48978075D01*
X88398336Y-48963460D01*
X88441738Y-48954827D01*
X88452844Y-48954827D01*
X88461374Y-48953476D01*
X88618626Y-48953476D01*
X88627156Y-48954827D01*
G37*
G36*
X91167156Y-48954827D02*
G01*
X91178262Y-48954827D01*
X91221664Y-48963460D01*
X91313938Y-48978075D01*
X91343616Y-48987718D01*
X91371010Y-48993167D01*
X91409665Y-49009178D01*
X91463492Y-49026668D01*
X91513923Y-49052364D01*
X91552575Y-49068374D01*
X91575792Y-49083887D01*
X91603602Y-49098057D01*
X91679199Y-49152981D01*
X91715979Y-49177557D01*
X91723828Y-49185406D01*
X91730817Y-49190484D01*
X91842015Y-49301682D01*
X91847092Y-49308670D01*
X91854943Y-49316521D01*
X91879521Y-49353305D01*
X91934442Y-49428897D01*
X91948610Y-49456704D01*
X91964126Y-49479925D01*
X91980137Y-49518581D01*
X92005831Y-49569007D01*
X92023318Y-49622826D01*
X92039333Y-49661490D01*
X92044783Y-49688889D01*
X92054424Y-49718561D01*
X92069037Y-49810823D01*
X92077673Y-49854238D01*
X92078463Y-49870339D01*
X92079409Y-49876306D01*
X92082015Y-49942646D01*
X92082500Y-49952500D01*
X92082500Y-50047500D01*
X92082015Y-50057357D01*
X92079409Y-50123693D01*
X92078464Y-50129659D01*
X92077673Y-50145762D01*
X92069036Y-50189180D01*
X92054424Y-50281438D01*
X92044783Y-50311108D01*
X92039333Y-50338510D01*
X92023316Y-50377176D01*
X92005831Y-50430992D01*
X91980140Y-50481413D01*
X91964126Y-50520075D01*
X91948608Y-50543299D01*
X91934442Y-50571102D01*
X91879529Y-50646682D01*
X91854943Y-50683479D01*
X91847089Y-50691332D01*
X91842015Y-50698317D01*
X91730817Y-50809515D01*
X91723832Y-50814589D01*
X91715979Y-50822443D01*
X91679182Y-50847029D01*
X91603602Y-50901942D01*
X91575799Y-50916108D01*
X91552575Y-50931626D01*
X91513913Y-50947640D01*
X91463492Y-50973331D01*
X91409676Y-50990816D01*
X91371010Y-51006833D01*
X91343608Y-51012283D01*
X91313938Y-51021924D01*
X91221674Y-51036537D01*
X91178262Y-51045173D01*
X91167156Y-51045173D01*
X91158626Y-51046524D01*
X91001374Y-51046524D01*
X90992844Y-51045173D01*
X90981738Y-51045173D01*
X90938326Y-51036537D01*
X90846061Y-51021924D01*
X90816389Y-51012283D01*
X90788990Y-51006833D01*
X90750326Y-50990818D01*
X90696507Y-50973331D01*
X90646081Y-50947637D01*
X90607425Y-50931626D01*
X90584204Y-50916110D01*
X90556397Y-50901942D01*
X90480805Y-50847021D01*
X90444021Y-50822443D01*
X90436170Y-50814592D01*
X90429182Y-50809515D01*
X90317984Y-50698317D01*
X90312906Y-50691328D01*
X90305057Y-50683479D01*
X90280481Y-50646699D01*
X90225557Y-50571102D01*
X90211387Y-50543292D01*
X90195874Y-50520075D01*
X90179864Y-50481423D01*
X90154168Y-50430992D01*
X90136678Y-50377165D01*
X90120667Y-50338510D01*
X90115218Y-50311116D01*
X90105575Y-50281438D01*
X90090958Y-50189155D01*
X90082327Y-50145762D01*
X90081536Y-50129668D01*
X90080590Y-50123693D01*
X90077983Y-50057341D01*
X90077500Y-50047500D01*
X90077500Y-49952500D01*
X90077983Y-49942662D01*
X90080590Y-49876306D01*
X90081536Y-49870330D01*
X90082327Y-49854238D01*
X90090957Y-49810848D01*
X90105575Y-49718561D01*
X90115218Y-49688881D01*
X90120667Y-49661490D01*
X90136677Y-49622837D01*
X90154168Y-49569007D01*
X90179866Y-49518570D01*
X90195874Y-49479925D01*
X90211385Y-49456710D01*
X90225557Y-49428897D01*
X90280490Y-49353287D01*
X90305057Y-49316521D01*
X90312904Y-49308673D01*
X90317984Y-49301682D01*
X90429182Y-49190484D01*
X90436173Y-49185404D01*
X90444021Y-49177557D01*
X90480787Y-49152990D01*
X90556397Y-49098057D01*
X90584210Y-49083885D01*
X90607425Y-49068374D01*
X90646070Y-49052366D01*
X90696507Y-49026668D01*
X90750337Y-49009177D01*
X90788990Y-48993167D01*
X90816381Y-48987718D01*
X90846061Y-48978075D01*
X90938336Y-48963460D01*
X90981738Y-48954827D01*
X90992844Y-48954827D01*
X91001374Y-48953476D01*
X91158626Y-48953476D01*
X91167156Y-48954827D01*
G37*
G36*
X28232228Y-49234448D02*
G01*
X28377117Y-49294463D01*
X28507515Y-49381592D01*
X28618408Y-49492485D01*
X28705537Y-49622883D01*
X28765552Y-49767772D01*
X28796148Y-49921586D01*
X28796148Y-50078414D01*
X28765552Y-50232228D01*
X28705537Y-50377117D01*
X28618408Y-50507515D01*
X28507515Y-50618408D01*
X28377117Y-50705537D01*
X28232228Y-50765552D01*
X28078414Y-50796148D01*
X27921586Y-50796148D01*
X27767772Y-50765552D01*
X27622883Y-50705537D01*
X27492485Y-50618408D01*
X27381592Y-50507515D01*
X27294463Y-50377117D01*
X27234448Y-50232228D01*
X27203852Y-50078414D01*
X27203852Y-49921586D01*
X27234448Y-49767772D01*
X27294463Y-49622883D01*
X27381592Y-49492485D01*
X27492485Y-49381592D01*
X27622883Y-49294463D01*
X27767772Y-49234448D01*
X27921586Y-49203852D01*
X28078414Y-49203852D01*
X28232228Y-49234448D01*
G37*
G36*
X60232228Y-49234448D02*
G01*
X60377117Y-49294463D01*
X60507515Y-49381592D01*
X60618408Y-49492485D01*
X60705537Y-49622883D01*
X60765552Y-49767772D01*
X60796148Y-49921586D01*
X60796148Y-50078414D01*
X60765552Y-50232228D01*
X60705537Y-50377117D01*
X60618408Y-50507515D01*
X60507515Y-50618408D01*
X60377117Y-50705537D01*
X60232228Y-50765552D01*
X60078414Y-50796148D01*
X59921586Y-50796148D01*
X59767772Y-50765552D01*
X59622883Y-50705537D01*
X59492485Y-50618408D01*
X59381592Y-50507515D01*
X59294463Y-50377117D01*
X59234448Y-50232228D01*
X59203852Y-50078414D01*
X59203852Y-49921586D01*
X59234448Y-49767772D01*
X59294463Y-49622883D01*
X59381592Y-49492485D01*
X59492485Y-49381592D01*
X59622883Y-49294463D01*
X59767772Y-49234448D01*
X59921586Y-49203852D01*
X60078414Y-49203852D01*
X60232228Y-49234448D01*
G37*
G36*
X78732228Y-47234448D02*
G01*
X78877117Y-47294463D01*
X79007515Y-47381592D01*
X79118408Y-47492485D01*
X79205537Y-47622883D01*
X79265552Y-47767772D01*
X79296148Y-47921586D01*
X79296148Y-48078414D01*
X79265552Y-48232228D01*
X79205537Y-48377117D01*
X79118408Y-48507515D01*
X79007515Y-48618408D01*
X78877117Y-48705537D01*
X78732228Y-48765552D01*
X78578414Y-48796148D01*
X78421586Y-48796148D01*
X78267772Y-48765552D01*
X78122883Y-48705537D01*
X77992485Y-48618408D01*
X77881592Y-48507515D01*
X77794463Y-48377117D01*
X77734448Y-48232228D01*
X77703852Y-48078414D01*
X77703852Y-47921586D01*
X77734448Y-47767772D01*
X77794463Y-47622883D01*
X77881592Y-47492485D01*
X77992485Y-47381592D01*
X78122883Y-47294463D01*
X78267772Y-47234448D01*
X78421586Y-47203852D01*
X78578414Y-47203852D01*
X78732228Y-47234448D01*
G37*
G36*
X73041807Y-36784538D02*
G01*
X73228354Y-36845151D01*
X73403123Y-36934200D01*
X73561810Y-37049493D01*
X73700507Y-37188190D01*
X73815800Y-37346877D01*
X73904849Y-37521646D01*
X73965462Y-37708193D01*
X73996147Y-37901926D01*
X73996147Y-38098074D01*
X73965462Y-38291807D01*
X73904849Y-38478354D01*
X73815800Y-38653123D01*
X73700507Y-38811810D01*
X73561810Y-38950507D01*
X73403123Y-39065800D01*
X73228354Y-39154849D01*
X73041807Y-39215462D01*
X72848074Y-39246147D01*
X72651926Y-39246147D01*
X72458193Y-39215462D01*
X72271646Y-39154849D01*
X72096877Y-39065800D01*
X71938190Y-38950507D01*
X71799493Y-38811810D01*
X71684200Y-38653123D01*
X71595151Y-38478354D01*
X71534538Y-38291807D01*
X71503853Y-38098074D01*
X71503853Y-37901926D01*
X71534538Y-37708193D01*
X71595151Y-37521646D01*
X71684200Y-37346877D01*
X71799493Y-37188190D01*
X71938190Y-37049493D01*
X72096877Y-36934200D01*
X72271646Y-36845151D01*
X72458193Y-36784538D01*
X72651926Y-36753853D01*
X72848074Y-36753853D01*
X73041807Y-36784538D01*
G37*
G36*
X88281807Y-36784538D02*
G01*
X88468354Y-36845151D01*
X88643123Y-36934200D01*
X88801810Y-37049493D01*
X88940507Y-37188190D01*
X89055800Y-37346877D01*
X89144849Y-37521646D01*
X89205462Y-37708193D01*
X89236147Y-37901926D01*
X89236147Y-38098074D01*
X89205462Y-38291807D01*
X89144849Y-38478354D01*
X89055800Y-38653123D01*
X88940507Y-38811810D01*
X88801810Y-38950507D01*
X88643123Y-39065800D01*
X88468354Y-39154849D01*
X88281807Y-39215462D01*
X88088074Y-39246147D01*
X87891926Y-39246147D01*
X87698193Y-39215462D01*
X87511646Y-39154849D01*
X87336877Y-39065800D01*
X87178190Y-38950507D01*
X87039493Y-38811810D01*
X86924200Y-38653123D01*
X86835151Y-38478354D01*
X86774538Y-38291807D01*
X86743853Y-38098074D01*
X86743853Y-37901926D01*
X86774538Y-37708193D01*
X86835151Y-37521646D01*
X86924200Y-37346877D01*
X87039493Y-37188190D01*
X87178190Y-37049493D01*
X87336877Y-36934200D01*
X87511646Y-36845151D01*
X87698193Y-36784538D01*
X87891926Y-36753853D01*
X88088074Y-36753853D01*
X88281807Y-36784538D01*
G37*
G36*
X36918685Y-33307969D02*
G01*
X36934461Y-33314934D01*
X36942222Y-33316164D01*
X36974542Y-33332632D01*
X37019541Y-33352501D01*
X37097499Y-33430459D01*
X37117370Y-33475464D01*
X37133835Y-33507777D01*
X37135063Y-33515535D01*
X37142031Y-33531315D01*
X37150000Y-33600000D01*
X37150000Y-35400000D01*
X37142031Y-35468685D01*
X37135063Y-35484464D01*
X37133835Y-35492222D01*
X37117373Y-35524528D01*
X37097499Y-35569541D01*
X37019541Y-35647499D01*
X36974528Y-35667373D01*
X36942222Y-35683835D01*
X36934464Y-35685063D01*
X36918685Y-35692031D01*
X36850000Y-35700000D01*
X34850000Y-35700000D01*
X34781315Y-35692031D01*
X34765535Y-35685063D01*
X34757777Y-35683835D01*
X34725464Y-35667370D01*
X34680459Y-35647499D01*
X34602501Y-35569541D01*
X34582632Y-35524542D01*
X34566164Y-35492222D01*
X34564934Y-35484461D01*
X34557969Y-35468685D01*
X34550000Y-35400000D01*
X34550000Y-33600000D01*
X34557969Y-33531315D01*
X34564934Y-33515539D01*
X34566164Y-33507777D01*
X34582635Y-33475449D01*
X34602501Y-33430459D01*
X34680459Y-33352501D01*
X34725449Y-33332635D01*
X34757777Y-33316164D01*
X34765539Y-33314934D01*
X34781315Y-33307969D01*
X34850000Y-33300000D01*
X36850000Y-33300000D01*
X36918685Y-33307969D01*
G37*
G36*
X41218685Y-33307969D02*
G01*
X41234461Y-33314934D01*
X41242222Y-33316164D01*
X41274542Y-33332632D01*
X41319541Y-33352501D01*
X41397499Y-33430459D01*
X41417370Y-33475464D01*
X41433835Y-33507777D01*
X41435063Y-33515535D01*
X41442031Y-33531315D01*
X41450000Y-33600000D01*
X41450000Y-35400000D01*
X41442031Y-35468685D01*
X41435063Y-35484464D01*
X41433835Y-35492222D01*
X41417373Y-35524528D01*
X41397499Y-35569541D01*
X41319541Y-35647499D01*
X41274528Y-35667373D01*
X41242222Y-35683835D01*
X41234464Y-35685063D01*
X41218685Y-35692031D01*
X41150000Y-35700000D01*
X39150000Y-35700000D01*
X39081315Y-35692031D01*
X39065535Y-35685063D01*
X39057777Y-35683835D01*
X39025464Y-35667370D01*
X38980459Y-35647499D01*
X38902501Y-35569541D01*
X38882632Y-35524542D01*
X38866164Y-35492222D01*
X38864934Y-35484461D01*
X38857969Y-35468685D01*
X38850000Y-35400000D01*
X38850000Y-33600000D01*
X38857969Y-33531315D01*
X38864934Y-33515539D01*
X38866164Y-33507777D01*
X38882635Y-33475449D01*
X38902501Y-33430459D01*
X38980459Y-33352501D01*
X39025449Y-33332635D01*
X39057777Y-33316164D01*
X39065539Y-33314934D01*
X39081315Y-33307969D01*
X39150000Y-33300000D01*
X41150000Y-33300000D01*
X41218685Y-33307969D01*
G37*
G36*
X60232228Y-32234448D02*
G01*
X60377117Y-32294463D01*
X60507515Y-32381592D01*
X60618408Y-32492485D01*
X60705537Y-32622883D01*
X60765552Y-32767772D01*
X60796148Y-32921586D01*
X60796148Y-33078414D01*
X60765552Y-33232228D01*
X60705537Y-33377117D01*
X60618408Y-33507515D01*
X60507515Y-33618408D01*
X60377117Y-33705537D01*
X60232228Y-33765552D01*
X60078414Y-33796148D01*
X59921586Y-33796148D01*
X59767772Y-33765552D01*
X59622883Y-33705537D01*
X59492485Y-33618408D01*
X59381592Y-33507515D01*
X59294463Y-33377117D01*
X59234448Y-33232228D01*
X59203852Y-33078414D01*
X59203852Y-32921586D01*
X59234448Y-32767772D01*
X59294463Y-32622883D01*
X59381592Y-32492485D01*
X59492485Y-32381592D01*
X59622883Y-32294463D01*
X59767772Y-32234448D01*
X59921586Y-32203852D01*
X60078414Y-32203852D01*
X60232228Y-32234448D01*
G37*
G36*
X40946742Y-30686601D02*
G01*
X41100687Y-30750367D01*
X41239234Y-30842941D01*
X41357059Y-30960766D01*
X41449633Y-31099313D01*
X41513399Y-31253258D01*
X41545907Y-31416685D01*
X41545907Y-31583315D01*
X41513399Y-31746742D01*
X41449633Y-31900687D01*
X41357059Y-32039234D01*
X41239234Y-32157059D01*
X41100687Y-32249633D01*
X40946742Y-32313399D01*
X40783315Y-32345907D01*
X40616685Y-32345907D01*
X40453258Y-32313399D01*
X40299313Y-32249633D01*
X40160766Y-32157059D01*
X40042941Y-32039234D01*
X39950367Y-31900687D01*
X39886601Y-31746742D01*
X39854093Y-31583315D01*
X39854093Y-31416685D01*
X39886601Y-31253258D01*
X39950367Y-31099313D01*
X40042941Y-30960766D01*
X40160766Y-30842941D01*
X40299313Y-30750367D01*
X40453258Y-30686601D01*
X40616685Y-30654093D01*
X40783315Y-30654093D01*
X40946742Y-30686601D01*
G37*
G36*
X51106742Y-30686601D02*
G01*
X51260687Y-30750367D01*
X51399234Y-30842941D01*
X51517059Y-30960766D01*
X51609633Y-31099313D01*
X51673399Y-31253258D01*
X51705907Y-31416685D01*
X51705907Y-31583315D01*
X51673399Y-31746742D01*
X51609633Y-31900687D01*
X51517059Y-32039234D01*
X51399234Y-32157059D01*
X51260687Y-32249633D01*
X51106742Y-32313399D01*
X50943315Y-32345907D01*
X50776685Y-32345907D01*
X50613258Y-32313399D01*
X50459313Y-32249633D01*
X50320766Y-32157059D01*
X50202941Y-32039234D01*
X50110367Y-31900687D01*
X50046601Y-31746742D01*
X50014093Y-31583315D01*
X50014093Y-31416685D01*
X50046601Y-31253258D01*
X50110367Y-31099313D01*
X50202941Y-30960766D01*
X50320766Y-30842941D01*
X50459313Y-30750367D01*
X50613258Y-30686601D01*
X50776685Y-30654093D01*
X50943315Y-30654093D01*
X51106742Y-30686601D01*
G37*
G36*
X57541807Y-28284538D02*
G01*
X57728354Y-28345151D01*
X57903123Y-28434200D01*
X58061810Y-28549493D01*
X58200507Y-28688190D01*
X58315800Y-28846877D01*
X58404849Y-29021646D01*
X58465462Y-29208193D01*
X58496147Y-29401926D01*
X58496147Y-29598074D01*
X58465462Y-29791807D01*
X58404849Y-29978354D01*
X58315800Y-30153123D01*
X58200507Y-30311810D01*
X58061810Y-30450507D01*
X57903123Y-30565800D01*
X57728354Y-30654849D01*
X57541807Y-30715462D01*
X57348074Y-30746147D01*
X57151926Y-30746147D01*
X56958193Y-30715462D01*
X56771646Y-30654849D01*
X56596877Y-30565800D01*
X56438190Y-30450507D01*
X56299493Y-30311810D01*
X56184200Y-30153123D01*
X56095151Y-29978354D01*
X56034538Y-29791807D01*
X56003853Y-29598074D01*
X56003853Y-29401926D01*
X56034538Y-29208193D01*
X56095151Y-29021646D01*
X56184200Y-28846877D01*
X56299493Y-28688190D01*
X56438190Y-28549493D01*
X56596877Y-28434200D01*
X56771646Y-28345151D01*
X56958193Y-28284538D01*
X57151926Y-28253853D01*
X57348074Y-28253853D01*
X57541807Y-28284538D01*
G37*
G36*
X70241807Y-28284538D02*
G01*
X70428354Y-28345151D01*
X70603123Y-28434200D01*
X70761810Y-28549493D01*
X70900507Y-28688190D01*
X71015800Y-28846877D01*
X71104849Y-29021646D01*
X71165462Y-29208193D01*
X71196147Y-29401926D01*
X71196147Y-29598074D01*
X71165462Y-29791807D01*
X71104849Y-29978354D01*
X71015800Y-30153123D01*
X70900507Y-30311810D01*
X70761810Y-30450507D01*
X70603123Y-30565800D01*
X70428354Y-30654849D01*
X70241807Y-30715462D01*
X70048074Y-30746147D01*
X69851926Y-30746147D01*
X69658193Y-30715462D01*
X69471646Y-30654849D01*
X69296877Y-30565800D01*
X69138190Y-30450507D01*
X68999493Y-30311810D01*
X68884200Y-30153123D01*
X68795151Y-29978354D01*
X68734538Y-29791807D01*
X68703853Y-29598074D01*
X68703853Y-29401926D01*
X68734538Y-29208193D01*
X68795151Y-29021646D01*
X68884200Y-28846877D01*
X68999493Y-28688190D01*
X69138190Y-28549493D01*
X69296877Y-28434200D01*
X69471646Y-28345151D01*
X69658193Y-28284538D01*
X69851926Y-28253853D01*
X70048074Y-28253853D01*
X70241807Y-28284538D01*
G37*
G36*
X32232228Y-28234448D02*
G01*
X32377117Y-28294463D01*
X32507515Y-28381592D01*
X32618408Y-28492485D01*
X32705537Y-28622883D01*
X32765552Y-28767772D01*
X32796148Y-28921586D01*
X32796148Y-29078414D01*
X32765552Y-29232228D01*
X32705537Y-29377117D01*
X32618408Y-29507515D01*
X32507515Y-29618408D01*
X32377117Y-29705537D01*
X32232228Y-29765552D01*
X32078414Y-29796148D01*
X31921586Y-29796148D01*
X31767772Y-29765552D01*
X31622883Y-29705537D01*
X31492485Y-29618408D01*
X31381592Y-29507515D01*
X31294463Y-29377117D01*
X31234448Y-29232228D01*
X31203852Y-29078414D01*
X31203852Y-28921586D01*
X31234448Y-28767772D01*
X31294463Y-28622883D01*
X31381592Y-28492485D01*
X31492485Y-28381592D01*
X31622883Y-28294463D01*
X31767772Y-28234448D01*
X31921586Y-28203852D01*
X32078414Y-28203852D01*
X32232228Y-28234448D01*
G37*
G36*
X47232228Y-24234448D02*
G01*
X47377117Y-24294463D01*
X47507515Y-24381592D01*
X47618408Y-24492485D01*
X47705537Y-24622883D01*
X47765552Y-24767772D01*
X47796148Y-24921586D01*
X47796148Y-25078414D01*
X47765552Y-25232228D01*
X47705537Y-25377117D01*
X47618408Y-25507515D01*
X47507515Y-25618408D01*
X47377117Y-25705537D01*
X47232228Y-25765552D01*
X47078414Y-25796148D01*
X46921586Y-25796148D01*
X46767772Y-25765552D01*
X46622883Y-25705537D01*
X46492485Y-25618408D01*
X46381592Y-25507515D01*
X46294463Y-25377117D01*
X46234448Y-25232228D01*
X46203852Y-25078414D01*
X46203852Y-24921586D01*
X46234448Y-24767772D01*
X46294463Y-24622883D01*
X46381592Y-24492485D01*
X46492485Y-24381592D01*
X46622883Y-24294463D01*
X46767772Y-24234448D01*
X46921586Y-24203852D01*
X47078414Y-24203852D01*
X47232228Y-24234448D01*
G37*
G36*
X34086934Y-20004815D02*
G01*
X34098017Y-20004815D01*
X34141329Y-20013430D01*
X34233355Y-20028006D01*
X34262956Y-20037623D01*
X34290285Y-20043060D01*
X34328846Y-20059032D01*
X34382532Y-20076476D01*
X34432828Y-20102103D01*
X34471397Y-20118079D01*
X34494567Y-20133560D01*
X34522301Y-20147692D01*
X34597696Y-20202470D01*
X34634393Y-20226990D01*
X34642224Y-20234821D01*
X34649191Y-20239883D01*
X34760116Y-20350808D01*
X34765177Y-20357774D01*
X34773010Y-20365607D01*
X34797532Y-20402308D01*
X34852307Y-20477698D01*
X34866437Y-20505429D01*
X34881921Y-20528603D01*
X34897898Y-20567176D01*
X34923523Y-20617467D01*
X34940964Y-20671145D01*
X34956940Y-20709715D01*
X34962377Y-20737049D01*
X34971993Y-20766644D01*
X34986567Y-20858661D01*
X34995185Y-20901983D01*
X34995185Y-20913066D01*
X34996532Y-20921571D01*
X34996532Y-21078428D01*
X34995185Y-21086932D01*
X34995185Y-21098017D01*
X34986567Y-21141341D01*
X34971993Y-21233355D01*
X34962377Y-21262948D01*
X34956940Y-21290285D01*
X34940962Y-21328858D01*
X34923523Y-21382532D01*
X34897900Y-21432818D01*
X34881921Y-21471397D01*
X34866434Y-21494573D01*
X34852307Y-21522301D01*
X34797541Y-21597679D01*
X34773010Y-21634393D01*
X34765174Y-21642228D01*
X34760116Y-21649191D01*
X34649191Y-21760116D01*
X34642228Y-21765174D01*
X34634393Y-21773010D01*
X34597679Y-21797541D01*
X34522301Y-21852307D01*
X34494573Y-21866434D01*
X34471397Y-21881921D01*
X34432818Y-21897900D01*
X34382532Y-21923523D01*
X34328858Y-21940962D01*
X34290285Y-21956940D01*
X34262948Y-21962377D01*
X34233355Y-21971993D01*
X34141339Y-21986567D01*
X34098017Y-21995185D01*
X34086933Y-21995185D01*
X34078429Y-21996532D01*
X33921571Y-21996532D01*
X33913067Y-21995185D01*
X33901983Y-21995185D01*
X33858661Y-21986567D01*
X33766644Y-21971993D01*
X33737049Y-21962377D01*
X33709715Y-21956940D01*
X33671145Y-21940964D01*
X33617467Y-21923523D01*
X33567176Y-21897898D01*
X33528603Y-21881921D01*
X33505429Y-21866437D01*
X33477698Y-21852307D01*
X33402308Y-21797532D01*
X33365607Y-21773010D01*
X33357774Y-21765177D01*
X33350808Y-21760116D01*
X33239883Y-21649191D01*
X33234821Y-21642224D01*
X33226990Y-21634393D01*
X33202470Y-21597696D01*
X33147692Y-21522301D01*
X33133560Y-21494567D01*
X33118079Y-21471397D01*
X33102103Y-21432828D01*
X33076476Y-21382532D01*
X33059032Y-21328846D01*
X33043060Y-21290285D01*
X33037623Y-21262956D01*
X33028006Y-21233355D01*
X33013430Y-21141331D01*
X33004815Y-21098017D01*
X33004815Y-21086932D01*
X33003468Y-21078428D01*
X33003468Y-20921571D01*
X33004815Y-20913066D01*
X33004815Y-20901983D01*
X33013430Y-20858671D01*
X33028006Y-20766644D01*
X33037624Y-20737041D01*
X33043060Y-20709715D01*
X33059031Y-20671156D01*
X33076476Y-20617467D01*
X33102105Y-20567165D01*
X33118079Y-20528603D01*
X33133558Y-20505436D01*
X33147692Y-20477698D01*
X33202478Y-20402290D01*
X33226990Y-20365607D01*
X33234818Y-20357778D01*
X33239883Y-20350808D01*
X33350808Y-20239883D01*
X33357778Y-20234818D01*
X33365607Y-20226990D01*
X33402290Y-20202478D01*
X33477698Y-20147692D01*
X33505436Y-20133558D01*
X33528603Y-20118079D01*
X33567165Y-20102105D01*
X33617467Y-20076476D01*
X33671156Y-20059031D01*
X33709715Y-20043060D01*
X33737041Y-20037624D01*
X33766644Y-20028006D01*
X33858671Y-20013430D01*
X33901983Y-20004815D01*
X33913066Y-20004815D01*
X33921571Y-20003468D01*
X34078429Y-20003468D01*
X34086934Y-20004815D01*
G37*
G36*
X42086934Y-20004815D02*
G01*
X42098017Y-20004815D01*
X42141329Y-20013430D01*
X42233355Y-20028006D01*
X42262956Y-20037623D01*
X42290285Y-20043060D01*
X42328846Y-20059032D01*
X42382532Y-20076476D01*
X42432828Y-20102103D01*
X42471397Y-20118079D01*
X42494567Y-20133560D01*
X42522301Y-20147692D01*
X42597696Y-20202470D01*
X42634393Y-20226990D01*
X42642224Y-20234821D01*
X42649191Y-20239883D01*
X42760116Y-20350808D01*
X42765177Y-20357774D01*
X42773010Y-20365607D01*
X42797532Y-20402308D01*
X42852307Y-20477698D01*
X42866437Y-20505429D01*
X42881921Y-20528603D01*
X42897898Y-20567176D01*
X42923523Y-20617467D01*
X42940964Y-20671145D01*
X42956940Y-20709715D01*
X42962377Y-20737049D01*
X42971993Y-20766644D01*
X42986567Y-20858661D01*
X42995185Y-20901983D01*
X42995185Y-20913066D01*
X42996532Y-20921571D01*
X42996532Y-21078428D01*
X42995185Y-21086932D01*
X42995185Y-21098017D01*
X42986567Y-21141341D01*
X42971993Y-21233355D01*
X42962377Y-21262948D01*
X42956940Y-21290285D01*
X42940962Y-21328858D01*
X42923523Y-21382532D01*
X42897900Y-21432818D01*
X42881921Y-21471397D01*
X42866434Y-21494573D01*
X42852307Y-21522301D01*
X42797541Y-21597679D01*
X42773010Y-21634393D01*
X42765174Y-21642228D01*
X42760116Y-21649191D01*
X42649191Y-21760116D01*
X42642228Y-21765174D01*
X42634393Y-21773010D01*
X42597679Y-21797541D01*
X42522301Y-21852307D01*
X42494573Y-21866434D01*
X42471397Y-21881921D01*
X42432818Y-21897900D01*
X42382532Y-21923523D01*
X42328858Y-21940962D01*
X42290285Y-21956940D01*
X42262948Y-21962377D01*
X42233355Y-21971993D01*
X42141339Y-21986567D01*
X42098017Y-21995185D01*
X42086933Y-21995185D01*
X42078429Y-21996532D01*
X41921571Y-21996532D01*
X41913067Y-21995185D01*
X41901983Y-21995185D01*
X41858661Y-21986567D01*
X41766644Y-21971993D01*
X41737049Y-21962377D01*
X41709715Y-21956940D01*
X41671145Y-21940964D01*
X41617467Y-21923523D01*
X41567176Y-21897898D01*
X41528603Y-21881921D01*
X41505429Y-21866437D01*
X41477698Y-21852307D01*
X41402308Y-21797532D01*
X41365607Y-21773010D01*
X41357774Y-21765177D01*
X41350808Y-21760116D01*
X41239883Y-21649191D01*
X41234821Y-21642224D01*
X41226990Y-21634393D01*
X41202470Y-21597696D01*
X41147692Y-21522301D01*
X41133560Y-21494567D01*
X41118079Y-21471397D01*
X41102103Y-21432828D01*
X41076476Y-21382532D01*
X41059032Y-21328846D01*
X41043060Y-21290285D01*
X41037623Y-21262956D01*
X41028006Y-21233355D01*
X41013430Y-21141331D01*
X41004815Y-21098017D01*
X41004815Y-21086932D01*
X41003468Y-21078428D01*
X41003468Y-20921571D01*
X41004815Y-20913066D01*
X41004815Y-20901983D01*
X41013430Y-20858671D01*
X41028006Y-20766644D01*
X41037624Y-20737041D01*
X41043060Y-20709715D01*
X41059031Y-20671156D01*
X41076476Y-20617467D01*
X41102105Y-20567165D01*
X41118079Y-20528603D01*
X41133558Y-20505436D01*
X41147692Y-20477698D01*
X41202478Y-20402290D01*
X41226990Y-20365607D01*
X41234818Y-20357778D01*
X41239883Y-20350808D01*
X41350808Y-20239883D01*
X41357778Y-20234818D01*
X41365607Y-20226990D01*
X41402290Y-20202478D01*
X41477698Y-20147692D01*
X41505436Y-20133558D01*
X41528603Y-20118079D01*
X41567165Y-20102105D01*
X41617467Y-20076476D01*
X41671156Y-20059031D01*
X41709715Y-20043060D01*
X41737041Y-20037624D01*
X41766644Y-20028006D01*
X41858671Y-20013430D01*
X41901983Y-20004815D01*
X41913066Y-20004815D01*
X41921571Y-20003468D01*
X42078429Y-20003468D01*
X42086934Y-20004815D01*
G37*
G36*
X54803479Y-17235919D02*
G01*
X54997488Y-17298957D01*
X55179248Y-17391568D01*
X55344282Y-17511472D01*
X55488528Y-17655718D01*
X55608432Y-17820752D01*
X55701043Y-18002512D01*
X55764081Y-18196521D01*
X55795993Y-18398003D01*
X55795993Y-18601997D01*
X55764081Y-18803479D01*
X55701043Y-18997488D01*
X55608432Y-19179248D01*
X55488528Y-19344282D01*
X55344282Y-19488528D01*
X55179248Y-19608432D01*
X54997488Y-19701043D01*
X54803479Y-19764081D01*
X54601997Y-19795993D01*
X54398003Y-19795993D01*
X54196521Y-19764081D01*
X54002512Y-19701043D01*
X53820752Y-19608432D01*
X53655718Y-19488528D01*
X53511472Y-19344282D01*
X53391568Y-19179248D01*
X53298957Y-18997488D01*
X53235919Y-18803479D01*
X53204007Y-18601997D01*
X53204007Y-18398003D01*
X53235919Y-18196521D01*
X53298957Y-18002512D01*
X53391568Y-17820752D01*
X53511472Y-17655718D01*
X53655718Y-17511472D01*
X53820752Y-17391568D01*
X54002512Y-17298957D01*
X54196521Y-17235919D01*
X54398003Y-17204007D01*
X54601997Y-17204007D01*
X54803479Y-17235919D01*
G37*
G36*
X70003479Y-17235919D02*
G01*
X70197488Y-17298957D01*
X70379248Y-17391568D01*
X70544282Y-17511472D01*
X70688528Y-17655718D01*
X70808432Y-17820752D01*
X70901043Y-18002512D01*
X70964081Y-18196521D01*
X70995993Y-18398003D01*
X70995993Y-18601997D01*
X70964081Y-18803479D01*
X70901043Y-18997488D01*
X70808432Y-19179248D01*
X70688528Y-19344282D01*
X70544282Y-19488528D01*
X70379248Y-19608432D01*
X70197488Y-19701043D01*
X70003479Y-19764081D01*
X69801997Y-19795993D01*
X69598003Y-19795993D01*
X69396521Y-19764081D01*
X69202512Y-19701043D01*
X69020752Y-19608432D01*
X68855718Y-19488528D01*
X68711472Y-19344282D01*
X68591568Y-19179248D01*
X68498957Y-18997488D01*
X68435919Y-18803479D01*
X68404007Y-18601997D01*
X68404007Y-18398003D01*
X68435919Y-18196521D01*
X68498957Y-18002512D01*
X68591568Y-17820752D01*
X68711472Y-17655718D01*
X68855718Y-17511472D01*
X69020752Y-17391568D01*
X69202512Y-17298957D01*
X69396521Y-17235919D01*
X69598003Y-17204007D01*
X69801997Y-17204007D01*
X70003479Y-17235919D01*
G37*
G36*
X22246742Y-17806601D02*
G01*
X22400687Y-17870367D01*
X22539234Y-17962941D01*
X22657059Y-18080766D01*
X22749633Y-18219313D01*
X22813399Y-18373258D01*
X22845907Y-18536685D01*
X22845907Y-18703315D01*
X22813399Y-18866742D01*
X22749633Y-19020687D01*
X22657059Y-19159234D01*
X22539234Y-19277059D01*
X22400687Y-19369633D01*
X22246742Y-19433399D01*
X22083315Y-19465907D01*
X21916685Y-19465907D01*
X21753258Y-19433399D01*
X21599313Y-19369633D01*
X21460766Y-19277059D01*
X21342941Y-19159234D01*
X21250367Y-19020687D01*
X21186601Y-18866742D01*
X21154093Y-18703315D01*
X21154093Y-18536685D01*
X21186601Y-18373258D01*
X21250367Y-18219313D01*
X21342941Y-18080766D01*
X21460766Y-17962941D01*
X21599313Y-17870367D01*
X21753258Y-17806601D01*
X21916685Y-17774093D01*
X22083315Y-17774093D01*
X22246742Y-17806601D01*
G37*
G36*
X29866742Y-17806601D02*
G01*
X30020687Y-17870367D01*
X30159234Y-17962941D01*
X30277059Y-18080766D01*
X30369633Y-18219313D01*
X30433399Y-18373258D01*
X30465907Y-18536685D01*
X30465907Y-18703315D01*
X30433399Y-18866742D01*
X30369633Y-19020687D01*
X30277059Y-19159234D01*
X30159234Y-19277059D01*
X30020687Y-19369633D01*
X29866742Y-19433399D01*
X29703315Y-19465907D01*
X29536685Y-19465907D01*
X29373258Y-19433399D01*
X29219313Y-19369633D01*
X29080766Y-19277059D01*
X28962941Y-19159234D01*
X28870367Y-19020687D01*
X28806601Y-18866742D01*
X28774093Y-18703315D01*
X28774093Y-18536685D01*
X28806601Y-18373258D01*
X28870367Y-18219313D01*
X28962941Y-18080766D01*
X29080766Y-17962941D01*
X29219313Y-17870367D01*
X29373258Y-17806601D01*
X29536685Y-17774093D01*
X29703315Y-17774093D01*
X29866742Y-17806601D01*
G37*
G36*
X47232228Y-17234448D02*
G01*
X47377117Y-17294463D01*
X47507515Y-17381592D01*
X47618408Y-17492485D01*
X47705537Y-17622883D01*
X47765552Y-17767772D01*
X47796148Y-17921586D01*
X47796148Y-18078414D01*
X47765552Y-18232228D01*
X47705537Y-18377117D01*
X47618408Y-18507515D01*
X47507515Y-18618408D01*
X47377117Y-18705537D01*
X47232228Y-18765552D01*
X47078414Y-18796148D01*
X46921586Y-18796148D01*
X46767772Y-18765552D01*
X46622883Y-18705537D01*
X46492485Y-18618408D01*
X46381592Y-18507515D01*
X46294463Y-18377117D01*
X46234448Y-18232228D01*
X46203852Y-18078414D01*
X46203852Y-17921586D01*
X46234448Y-17767772D01*
X46294463Y-17622883D01*
X46381592Y-17492485D01*
X46492485Y-17381592D01*
X46622883Y-17294463D01*
X46767772Y-17234448D01*
X46921586Y-17203852D01*
X47078414Y-17203852D01*
X47232228Y-17234448D01*
G37*
G36*
X29866742Y-15266601D02*
G01*
X30020687Y-15330367D01*
X30159234Y-15422941D01*
X30277059Y-15540766D01*
X30369633Y-15679313D01*
X30433399Y-15833258D01*
X30465907Y-15996685D01*
X30465907Y-15999771D01*
X30474506Y-16043001D01*
X30700000Y-16020791D01*
X30700000Y-15762310D01*
X30700000Y-15750000D01*
X30703806Y-15730866D01*
X30714645Y-15714645D01*
X30730866Y-15703806D01*
X30750000Y-15700000D01*
X33250000Y-15700000D01*
X33269134Y-15703806D01*
X33285355Y-15714645D01*
X33296194Y-15730866D01*
X33300000Y-15750000D01*
X33300000Y-18250000D01*
X33296194Y-18269134D01*
X33285355Y-18285355D01*
X33269134Y-18296194D01*
X33250000Y-18300000D01*
X30750000Y-18300000D01*
X30730866Y-18296194D01*
X30714645Y-18285355D01*
X30703806Y-18269134D01*
X30700000Y-18250000D01*
X30700000Y-16139206D01*
X30474506Y-16116997D01*
X30465907Y-16160226D01*
X30465907Y-16163315D01*
X30433399Y-16326742D01*
X30369633Y-16480687D01*
X30277059Y-16619234D01*
X30159234Y-16737059D01*
X30020687Y-16829633D01*
X29866742Y-16893399D01*
X29703315Y-16925907D01*
X29536685Y-16925907D01*
X29373258Y-16893399D01*
X29219313Y-16829633D01*
X29080766Y-16737059D01*
X28962941Y-16619234D01*
X28870367Y-16480687D01*
X28806601Y-16326742D01*
X28774093Y-16163315D01*
X28774093Y-15996685D01*
X28806601Y-15833258D01*
X28870367Y-15679313D01*
X28962941Y-15540766D01*
X29080766Y-15422941D01*
X29219313Y-15330367D01*
X29373258Y-15266601D01*
X29536685Y-15234093D01*
X29703315Y-15234093D01*
X29866742Y-15266601D01*
G37*
G36*
X22246742Y-15266601D02*
G01*
X22400687Y-15330367D01*
X22539234Y-15422941D01*
X22657059Y-15540766D01*
X22749633Y-15679313D01*
X22813399Y-15833258D01*
X22845907Y-15996685D01*
X22845907Y-16163315D01*
X22813399Y-16326742D01*
X22749633Y-16480687D01*
X22657059Y-16619234D01*
X22539234Y-16737059D01*
X22400687Y-16829633D01*
X22246742Y-16893399D01*
X22083315Y-16925907D01*
X21916685Y-16925907D01*
X21753258Y-16893399D01*
X21599313Y-16829633D01*
X21460766Y-16737059D01*
X21342941Y-16619234D01*
X21250367Y-16480687D01*
X21186601Y-16326742D01*
X21154093Y-16163315D01*
X21154093Y-15996685D01*
X21186601Y-15833258D01*
X21250367Y-15679313D01*
X21342941Y-15540766D01*
X21460766Y-15422941D01*
X21599313Y-15330367D01*
X21753258Y-15266601D01*
X21916685Y-15234093D01*
X22083315Y-15234093D01*
X22246742Y-15266601D01*
G37*
G36*
X22246742Y-12726601D02*
G01*
X22400687Y-12790367D01*
X22539234Y-12882941D01*
X22657059Y-13000766D01*
X22749633Y-13139313D01*
X22813399Y-13293258D01*
X22845907Y-13456685D01*
X22845907Y-13623315D01*
X22813399Y-13786742D01*
X22749633Y-13940687D01*
X22657059Y-14079234D01*
X22539234Y-14197059D01*
X22400687Y-14289633D01*
X22246742Y-14353399D01*
X22083315Y-14385907D01*
X21916685Y-14385907D01*
X21753258Y-14353399D01*
X21599313Y-14289633D01*
X21460766Y-14197059D01*
X21342941Y-14079234D01*
X21250367Y-13940687D01*
X21186601Y-13786742D01*
X21154093Y-13623315D01*
X21154093Y-13456685D01*
X21186601Y-13293258D01*
X21250367Y-13139313D01*
X21342941Y-13000766D01*
X21460766Y-12882941D01*
X21599313Y-12790367D01*
X21753258Y-12726601D01*
X21916685Y-12694093D01*
X22083315Y-12694093D01*
X22246742Y-12726601D01*
G37*
G36*
X29866742Y-12726601D02*
G01*
X30020687Y-12790367D01*
X30159234Y-12882941D01*
X30277059Y-13000766D01*
X30369633Y-13139313D01*
X30433399Y-13293258D01*
X30465907Y-13456685D01*
X30465907Y-13623315D01*
X30433399Y-13786742D01*
X30369633Y-13940687D01*
X30277059Y-14079234D01*
X30159234Y-14197059D01*
X30020687Y-14289633D01*
X29866742Y-14353399D01*
X29703315Y-14385907D01*
X29536685Y-14385907D01*
X29373258Y-14353399D01*
X29219313Y-14289633D01*
X29080766Y-14197059D01*
X28962941Y-14079234D01*
X28870367Y-13940687D01*
X28806601Y-13786742D01*
X28774093Y-13623315D01*
X28774093Y-13456685D01*
X28806601Y-13293258D01*
X28870367Y-13139313D01*
X28962941Y-13000766D01*
X29080766Y-12882941D01*
X29219313Y-12790367D01*
X29373258Y-12726601D01*
X29536685Y-12694093D01*
X29703315Y-12694093D01*
X29866742Y-12726601D01*
G37*
G36*
X34118685Y-10657969D02*
G01*
X34134461Y-10664934D01*
X34142222Y-10666164D01*
X34174542Y-10682632D01*
X34219541Y-10702501D01*
X34297499Y-10780459D01*
X34317370Y-10825464D01*
X34333835Y-10857777D01*
X34335063Y-10865535D01*
X34342031Y-10881315D01*
X34350000Y-10950000D01*
X34350000Y-12050000D01*
X34342031Y-12118685D01*
X34335063Y-12134464D01*
X34333835Y-12142222D01*
X34317373Y-12174528D01*
X34297499Y-12219541D01*
X34219541Y-12297499D01*
X34174528Y-12317373D01*
X34142222Y-12333835D01*
X34134464Y-12335063D01*
X34118685Y-12342031D01*
X34050000Y-12350000D01*
X32950000Y-12350000D01*
X32881315Y-12342031D01*
X32865535Y-12335063D01*
X32857777Y-12333835D01*
X32825464Y-12317370D01*
X32780459Y-12297499D01*
X32702501Y-12219541D01*
X32682632Y-12174542D01*
X32666164Y-12142222D01*
X32664934Y-12134461D01*
X32657969Y-12118685D01*
X32650000Y-12050000D01*
X32650000Y-10950000D01*
X32657969Y-10881315D01*
X32664934Y-10865539D01*
X32666164Y-10857777D01*
X32682635Y-10825449D01*
X32702501Y-10780459D01*
X32780459Y-10702501D01*
X32825449Y-10682635D01*
X32857777Y-10666164D01*
X32865539Y-10664934D01*
X32881315Y-10657969D01*
X32950000Y-10650000D01*
X34050000Y-10650000D01*
X34118685Y-10657969D01*
G37*
G36*
X22618685Y-10157969D02*
G01*
X22634461Y-10164934D01*
X22642222Y-10166164D01*
X22674542Y-10182632D01*
X22719541Y-10202501D01*
X22797499Y-10280459D01*
X22817370Y-10325464D01*
X22833835Y-10357777D01*
X22835063Y-10365535D01*
X22842031Y-10381315D01*
X22850000Y-10450000D01*
X22850000Y-11550000D01*
X22842031Y-11618685D01*
X22835063Y-11634464D01*
X22833835Y-11642222D01*
X22817373Y-11674528D01*
X22797499Y-11719541D01*
X22719541Y-11797499D01*
X22674528Y-11817373D01*
X22642222Y-11833835D01*
X22634464Y-11835063D01*
X22618685Y-11842031D01*
X22550000Y-11850000D01*
X21450000Y-11850000D01*
X21381315Y-11842031D01*
X21365535Y-11835063D01*
X21357777Y-11833835D01*
X21325464Y-11817370D01*
X21280459Y-11797499D01*
X21202501Y-11719541D01*
X21182632Y-11674542D01*
X21166164Y-11642222D01*
X21164934Y-11634461D01*
X21157969Y-11618685D01*
X21150000Y-11550000D01*
X21150000Y-10450000D01*
X21157969Y-10381315D01*
X21164934Y-10365539D01*
X21166164Y-10357777D01*
X21182635Y-10325449D01*
X21202501Y-10280459D01*
X21280459Y-10202501D01*
X21325449Y-10182635D01*
X21357777Y-10166164D01*
X21365539Y-10164934D01*
X21381315Y-10157969D01*
X21450000Y-10150000D01*
X22550000Y-10150000D01*
X22618685Y-10157969D01*
G37*
G36*
X29866742Y-10186601D02*
G01*
X30020687Y-10250367D01*
X30159234Y-10342941D01*
X30277059Y-10460766D01*
X30369633Y-10599313D01*
X30433399Y-10753258D01*
X30465907Y-10916685D01*
X30465907Y-11083315D01*
X30433399Y-11246742D01*
X30369633Y-11400687D01*
X30277059Y-11539234D01*
X30159234Y-11657059D01*
X30020687Y-11749633D01*
X29866742Y-11813399D01*
X29703315Y-11845907D01*
X29536685Y-11845907D01*
X29373258Y-11813399D01*
X29219313Y-11749633D01*
X29080766Y-11657059D01*
X28962941Y-11539234D01*
X28870367Y-11400687D01*
X28806601Y-11246742D01*
X28774093Y-11083315D01*
X28774093Y-10916685D01*
X28806601Y-10753258D01*
X28870367Y-10599313D01*
X28962941Y-10460766D01*
X29080766Y-10342941D01*
X29219313Y-10250367D01*
X29373258Y-10186601D01*
X29536685Y-10154093D01*
X29703315Y-10154093D01*
X29866742Y-10186601D01*
G37*
G36*
X4269134Y-7703806D02*
G01*
X4285355Y-7714645D01*
X4296194Y-7730866D01*
X4300000Y-7750000D01*
X4300000Y-10250000D01*
X4296194Y-10269134D01*
X4285355Y-10285355D01*
X4269134Y-10296194D01*
X4250000Y-10300000D01*
X1750000Y-10300000D01*
X1730866Y-10296194D01*
X1714645Y-10285355D01*
X1703806Y-10269134D01*
X1700000Y-10250000D01*
X1700000Y-7750000D01*
X1703806Y-7730866D01*
X1714645Y-7714645D01*
X1730866Y-7703806D01*
X1750000Y-7700000D01*
X4250000Y-7700000D01*
X4269134Y-7703806D01*
G37*
G36*
X33746742Y-8186601D02*
G01*
X33900687Y-8250367D01*
X34039234Y-8342941D01*
X34157059Y-8460766D01*
X34249633Y-8599313D01*
X34313399Y-8753258D01*
X34345907Y-8916685D01*
X34345907Y-9083315D01*
X34313399Y-9246742D01*
X34249633Y-9400687D01*
X34157059Y-9539234D01*
X34039234Y-9657059D01*
X33900687Y-9749633D01*
X33746742Y-9813399D01*
X33583315Y-9845907D01*
X33416685Y-9845907D01*
X33253258Y-9813399D01*
X33099313Y-9749633D01*
X32960766Y-9657059D01*
X32842941Y-9539234D01*
X32750367Y-9400687D01*
X32686601Y-9246742D01*
X32654093Y-9083315D01*
X32654093Y-8916685D01*
X32686601Y-8753258D01*
X32750367Y-8599313D01*
X32842941Y-8460766D01*
X32960766Y-8342941D01*
X33099313Y-8250367D01*
X33253258Y-8186601D01*
X33416685Y-8154093D01*
X33583315Y-8154093D01*
X33746742Y-8186601D01*
G37*
G36*
X21732228Y-5734448D02*
G01*
X21877117Y-5794463D01*
X22007515Y-5881592D01*
X22118408Y-5992485D01*
X22205537Y-6122883D01*
X22265552Y-6267772D01*
X22296148Y-6421586D01*
X22296148Y-6578414D01*
X22265552Y-6732228D01*
X22205537Y-6877117D01*
X22118408Y-7007515D01*
X22007515Y-7118408D01*
X21877117Y-7205537D01*
X21732228Y-7265552D01*
X21578414Y-7296148D01*
X21421586Y-7296148D01*
X21267772Y-7265552D01*
X21122883Y-7205537D01*
X20992485Y-7118408D01*
X20881592Y-7007515D01*
X20794463Y-6877117D01*
X20734448Y-6732228D01*
X20703852Y-6578414D01*
X20703852Y-6421586D01*
X20734448Y-6267772D01*
X20794463Y-6122883D01*
X20881592Y-5992485D01*
X20992485Y-5881592D01*
X21122883Y-5794463D01*
X21267772Y-5734448D01*
X21421586Y-5703852D01*
X21578414Y-5703852D01*
X21732228Y-5734448D01*
G37*
G36*
X4269134Y-2623806D02*
G01*
X4285355Y-2634645D01*
X4296194Y-2650866D01*
X4300000Y-2670000D01*
X4300000Y-5170000D01*
X4296194Y-5189134D01*
X4285355Y-5205355D01*
X4269134Y-5216194D01*
X4250000Y-5220000D01*
X1750000Y-5220000D01*
X1730866Y-5216194D01*
X1714645Y-5205355D01*
X1703806Y-5189134D01*
X1700000Y-5170000D01*
X1700000Y-2670000D01*
X1703806Y-2650866D01*
X1714645Y-2634645D01*
X1730866Y-2623806D01*
X1750000Y-2620000D01*
X4250000Y-2620000D01*
X4269134Y-2623806D01*
G37*
G36*
X8166742Y-2686601D02*
G01*
X8320687Y-2750367D01*
X8459234Y-2842941D01*
X8577059Y-2960766D01*
X8669633Y-3099313D01*
X8733399Y-3253258D01*
X8765907Y-3416685D01*
X8765907Y-3583315D01*
X8733399Y-3746742D01*
X8669633Y-3900687D01*
X8577059Y-4039234D01*
X8459234Y-4157059D01*
X8320687Y-4249633D01*
X8166742Y-4313399D01*
X8003315Y-4345907D01*
X7836685Y-4345907D01*
X7673258Y-4313399D01*
X7519313Y-4249633D01*
X7380766Y-4157059D01*
X7262941Y-4039234D01*
X7170367Y-3900687D01*
X7106601Y-3746742D01*
X7074093Y-3583315D01*
X7074093Y-3416685D01*
X7106601Y-3253258D01*
X7170367Y-3099313D01*
X7262941Y-2960766D01*
X7380766Y-2842941D01*
X7519313Y-2750367D01*
X7673258Y-2686601D01*
X7836685Y-2654093D01*
X8003315Y-2654093D01*
X8166742Y-2686601D01*
G37*
G36*
X18326742Y-2686601D02*
G01*
X18480687Y-2750367D01*
X18619234Y-2842941D01*
X18737059Y-2960766D01*
X18829633Y-3099313D01*
X18893399Y-3253258D01*
X18925907Y-3416685D01*
X18925907Y-3583315D01*
X18893399Y-3746742D01*
X18829633Y-3900687D01*
X18737059Y-4039234D01*
X18619234Y-4157059D01*
X18480687Y-4249633D01*
X18326742Y-4313399D01*
X18163315Y-4345907D01*
X17996685Y-4345907D01*
X17833258Y-4313399D01*
X17679313Y-4249633D01*
X17540766Y-4157059D01*
X17422941Y-4039234D01*
X17330367Y-3900687D01*
X17266601Y-3746742D01*
X17234093Y-3583315D01*
X17234093Y-3416685D01*
X17266601Y-3253258D01*
X17330367Y-3099313D01*
X17422941Y-2960766D01*
X17540766Y-2842941D01*
X17679313Y-2750367D01*
X17833258Y-2686601D01*
X17996685Y-2654093D01*
X18163315Y-2654093D01*
X18326742Y-2686601D01*
G37*
G36*
X23269134Y-1203806D02*
G01*
X23285355Y-1214645D01*
X23296194Y-1230866D01*
X23300000Y-1250000D01*
X23300000Y-3750000D01*
X23296194Y-3769134D01*
X23285355Y-3785355D01*
X23269134Y-3796194D01*
X23250000Y-3800000D01*
X20750000Y-3800000D01*
X20730866Y-3796194D01*
X20714645Y-3785355D01*
X20703806Y-3769134D01*
X20700000Y-3750000D01*
X20700000Y-1250000D01*
X20703806Y-1230866D01*
X20714645Y-1214645D01*
X20730866Y-1203806D01*
X20750000Y-1200000D01*
X23250000Y-1200000D01*
X23269134Y-1203806D01*
G37*
G36*
X27746742Y-1686601D02*
G01*
X27900687Y-1750367D01*
X28039234Y-1842941D01*
X28157059Y-1960766D01*
X28249633Y-2099313D01*
X28313399Y-2253258D01*
X28345907Y-2416685D01*
X28345907Y-2583315D01*
X28313399Y-2746742D01*
X28249633Y-2900687D01*
X28157059Y-3039234D01*
X28039234Y-3157059D01*
X27900687Y-3249633D01*
X27746742Y-3313399D01*
X27583315Y-3345907D01*
X27416685Y-3345907D01*
X27253258Y-3313399D01*
X27099313Y-3249633D01*
X26960766Y-3157059D01*
X26842941Y-3039234D01*
X26750367Y-2900687D01*
X26686601Y-2746742D01*
X26654093Y-2583315D01*
X26654093Y-2416685D01*
X26686601Y-2253258D01*
X26750367Y-2099313D01*
X26842941Y-1960766D01*
X26960766Y-1842941D01*
X27099313Y-1750367D01*
X27253258Y-1686601D01*
X27416685Y-1654093D01*
X27583315Y-1654093D01*
X27746742Y-1686601D01*
G37*
G36*
X32746742Y-1686601D02*
G01*
X32900687Y-1750367D01*
X33039234Y-1842941D01*
X33157059Y-1960766D01*
X33249633Y-2099313D01*
X33313399Y-2253258D01*
X33345907Y-2416685D01*
X33345907Y-2583315D01*
X33313399Y-2746742D01*
X33249633Y-2900687D01*
X33157059Y-3039234D01*
X33039234Y-3157059D01*
X32900687Y-3249633D01*
X32746742Y-3313399D01*
X32583315Y-3345907D01*
X32416685Y-3345907D01*
X32253258Y-3313399D01*
X32099313Y-3249633D01*
X31960766Y-3157059D01*
X31842941Y-3039234D01*
X31750367Y-2900687D01*
X31686601Y-2746742D01*
X31654093Y-2583315D01*
X31654093Y-2416685D01*
X31686601Y-2253258D01*
X31750367Y-2099313D01*
X31842941Y-1960766D01*
X31960766Y-1842941D01*
X32099313Y-1750367D01*
X32253258Y-1686601D01*
X32416685Y-1654093D01*
X32583315Y-1654093D01*
X32746742Y-1686601D01*
G37*
M02*
